<?xml version="1.0" encoding="utf-8"?>
<!-- Generator: Adobe Illustrator 26.2.1, SVG Export Plug-In . SVG Version: 6.00 Build 0)  -->
<svg version="1.1" id="Capa_1" xmlns="http://www.w3.org/2000/svg" xmlns:xlink="http://www.w3.org/1999/xlink" x="0px" y="0px"
	 viewBox="0 0 481.4 151.9" style="enable-background:new 0 0 481.4 151.9;" xml:space="preserve">
<style type="text/css">
	.st0{fill:#303030;}
	.st1{fill:#008168;}
</style>
<g>
	<path class="st0" d="M184.1,151.9c-1.8,0-3.3-0.4-4.7-1.1c-1.4-0.8-2.5-1.8-3.2-3.1c-0.8-1.3-1.2-2.9-1.2-4.6
		c0-1.7,0.4-3.3,1.1-4.6s1.8-2.4,3-3.1c1.3-0.8,2.8-1.1,4.5-1.1s3.1,0.4,4.3,1.1c1.2,0.7,2.1,1.7,2.7,3s0.9,2.8,1,4.5
		c0,0.4-0.1,0.7-0.4,1s-0.6,0.4-1.1,0.4h-12.9v-2.6H190l-1.3,0.9c0-1.1-0.2-2-0.6-2.9c-0.4-0.8-1-1.5-1.7-2s-1.7-0.7-2.7-0.7
		c-1.2,0-2.3,0.3-3.1,0.8s-1.5,1.3-2,2.2c-0.4,0.9-0.7,2-0.7,3.2s0.3,2.2,0.8,3.1s1.3,1.6,2.2,2.2c0.9,0.5,2,0.8,3.2,0.8
		c0.7,0,1.3-0.1,2-0.4c0.7-0.2,1.3-0.5,1.7-0.9c0.3-0.2,0.7-0.4,1-0.4c0.4,0,0.7,0.1,1,0.3c0.4,0.3,0.6,0.7,0.6,1.1
		c0,0.4-0.1,0.7-0.5,1c-0.7,0.6-1.6,1-2.7,1.4C186.2,151.7,185.1,151.9,184.1,151.9z"/>
	<path class="st0" d="M207.1,151.8c-1.7,0-3.2-0.4-4.5-1.2s-2.4-1.8-3.2-3.2c-0.8-1.3-1.2-2.9-1.2-4.5c0-1.7,0.3-3.2,1.1-4.5
		c0.7-1.3,1.7-2.4,2.9-3.2s2.6-1.2,4.2-1.2c1.3,0,2.4,0.3,3.5,0.8s2,1.2,2.7,2.1v-8.6c0-0.5,0.2-0.9,0.5-1.2
		c0.3-0.3,0.7-0.4,1.2-0.5c0.5,0,0.9,0.1,1.2,0.4s0.4,0.7,0.5,1.2v14.6c0,1.7-0.4,3.2-1.2,4.5s-1.8,2.4-3.1,3.2
		C210.3,151.4,208.8,151.8,207.1,151.8z M207.1,149c1.1,0,2.1-0.3,2.9-0.8c0.9-0.5,1.5-1.2,2-2.2c0.5-0.9,0.7-1.9,0.7-3.1
		c0-1.2-0.3-2.2-0.7-3.1c-0.5-0.9-1.2-1.6-2-2.1c-0.9-0.5-1.8-0.8-2.9-0.8c-1.1,0-2,0.3-2.9,0.8s-1.5,1.2-2,2.1
		c-0.5,0.9-0.7,1.9-0.7,3.1c0,1.1,0.3,2.2,0.8,3.1c0.5,0.9,1.2,1.6,2.1,2.2S206.1,149,207.1,149z"/>
	<path class="st0" d="M233.1,151.8c-1.5,0-2.8-0.3-4-0.9c-1.2-0.6-2.1-1.5-2.8-2.8c-0.7-1.2-1-2.7-1-4.5v-7.9c0-0.5,0.2-0.9,0.5-1.2
		s0.7-0.5,1.2-0.5s0.9,0.2,1.2,0.5s0.5,0.7,0.5,1.2v7.9c0,1.2,0.2,2.2,0.7,3c0.4,0.8,1.1,1.4,1.8,1.7c0.8,0.4,1.6,0.6,2.6,0.6
		c0.9,0,1.7-0.2,2.4-0.5c0.7-0.4,1.3-0.9,1.7-1.5s0.6-1.3,0.6-2.1h2c0,1.3-0.3,2.5-1,3.6c-0.6,1.1-1.5,1.9-2.7,2.5
		C235.8,151.5,234.6,151.8,233.1,151.8z M240.2,151.6c-0.5,0-0.9-0.2-1.2-0.5s-0.5-0.7-0.5-1.2v-14.3c0-0.5,0.2-0.9,0.5-1.2
		s0.7-0.4,1.2-0.5c0.5,0,0.9,0.1,1.2,0.4c0.3,0.3,0.4,0.7,0.5,1.2v14.3c0,0.5-0.1,0.9-0.4,1.2C241.1,151.5,240.7,151.6,240.2,151.6z
		"/>
	<path class="st0" d="M259.6,151.7c-1.7,0-3.2-0.4-4.6-1.2c-1.3-0.8-2.4-1.8-3.1-3.2c-0.8-1.3-1.1-2.8-1.1-4.5s0.4-3.3,1.1-4.6
		c0.7-1.3,1.8-2.4,3.1-3.2s2.8-1.1,4.5-1.1c1.3,0,2.4,0.2,3.5,0.7c1,0.5,2,1.2,2.8,2.2c0.3,0.3,0.4,0.7,0.3,1.1
		c-0.1,0.4-0.3,0.7-0.7,1c-0.3,0.2-0.6,0.3-1,0.2s-0.7-0.3-1-0.6c-1-1.1-2.3-1.7-3.9-1.7c-1.1,0-2,0.3-2.9,0.8
		c-0.8,0.5-1.5,1.2-1.9,2.1c-0.5,0.9-0.7,2-0.7,3.2s0.2,2.2,0.7,3.1c0.5,0.9,1.2,1.6,2,2.1c0.9,0.5,1.8,0.8,3,0.8
		c0.7,0,1.4-0.1,2-0.3s1.1-0.5,1.6-0.9c0.3-0.3,0.7-0.4,1.1-0.5s0.7,0.1,1,0.3c0.4,0.3,0.6,0.6,0.6,1s-0.1,0.7-0.4,1
		C263.8,151,261.9,151.7,259.6,151.7z"/>
	<path class="st0" d="M282.3,151.7c-1.6,0-3-0.4-4.2-1.2s-2.2-1.8-2.9-3.2c-0.7-1.3-1.1-2.8-1.1-4.5s0.4-3.2,1.2-4.5
		s1.8-2.4,3.2-3.2c1.3-0.8,2.8-1.2,4.5-1.2s3.2,0.4,4.5,1.2s2.4,1.8,3.2,3.2c0.8,1.3,1.2,2.9,1.2,4.5h-1.2c0,1.7-0.4,3.2-1.1,4.5
		c-0.7,1.3-1.7,2.4-2.9,3.2C285.2,151.3,283.8,151.7,282.3,151.7z M282.9,148.8c1.1,0,2.1-0.3,2.9-0.8c0.9-0.5,1.5-1.2,2-2.1
		c0.5-0.9,0.7-1.9,0.7-3.1c0-1.2-0.3-2.2-0.7-3.1c-0.5-0.9-1.2-1.6-2-2.1s-1.8-0.8-2.9-0.8c-1.1,0-2,0.3-2.9,0.8s-1.5,1.2-2,2.1
		c-0.5,0.9-0.7,1.9-0.7,3.1c0,1.1,0.3,2.1,0.8,3.1c0.5,0.9,1.2,1.6,2.1,2.1C280.9,148.6,281.8,148.8,282.9,148.8z M290.1,151.6
		c-0.5,0-0.9-0.2-1.2-0.5s-0.5-0.7-0.5-1.2V145l0.6-3.4l2.7,1.1v7.1c0,0.5-0.2,0.9-0.5,1.2C290.9,151.4,290.5,151.6,290.1,151.6z"/>
	<path class="st0" d="M302.2,151.5c-0.5,0-0.9-0.1-1.2-0.4c-0.3-0.3-0.4-0.7-0.4-1.2v-14.3c0-0.5,0.1-0.9,0.4-1.2
		c0.3-0.3,0.7-0.4,1.2-0.4s0.9,0.1,1.2,0.4c0.3,0.3,0.4,0.7,0.4,1.2v14.3c0,0.5-0.1,0.9-0.4,1.2
		C303.2,151.4,302.8,151.5,302.2,151.5z M302.2,140.6c0-1.3,0.3-2.4,0.9-3.4c0.6-1,1.5-1.8,2.5-2.4s2.2-0.9,3.5-0.9s2.2,0.2,2.9,0.6
		c0.6,0.4,0.9,0.9,0.7,1.5c-0.1,0.3-0.2,0.5-0.4,0.7s-0.4,0.3-0.6,0.3c-0.2,0-0.5,0-0.8,0c-1.4-0.3-2.6-0.3-3.7-0.1
		c-1.1,0.2-1.9,0.7-2.6,1.3c-0.6,0.6-0.9,1.5-0.9,2.4L302.2,140.6z"/>
	<path class="st0" d="M341.6,151.6c-1.7,0-3.2-0.4-4.6-1.2c-1.3-0.8-2.4-1.8-3.1-3.2c-0.8-1.3-1.1-2.8-1.1-4.5s0.4-3.3,1.1-4.6
		s1.8-2.4,3.1-3.2s2.8-1.1,4.5-1.1c1.3,0,2.4,0.2,3.5,0.7c1,0.5,2,1.2,2.8,2.2c0.3,0.3,0.4,0.7,0.3,1.1c-0.1,0.4-0.3,0.7-0.7,1
		c-0.3,0.2-0.6,0.3-1,0.2s-0.7-0.3-1-0.6c-1-1.1-2.3-1.7-3.9-1.7c-1.1,0-2,0.3-2.9,0.8c-0.8,0.5-1.5,1.2-1.9,2.1
		c-0.5,0.9-0.7,2-0.7,3.2s0.2,2.2,0.7,3.1c0.5,0.9,1.2,1.6,2,2.1c0.9,0.5,1.8,0.8,3,0.8c0.7,0,1.4-0.1,2-0.3s1.1-0.5,1.6-0.9
		c0.3-0.3,0.7-0.4,1.1-0.5c0.4,0,0.7,0.1,1,0.3c0.4,0.3,0.6,0.6,0.6,1s-0.1,0.7-0.4,1C345.8,150.9,343.9,151.6,341.6,151.6z"/>
	<path class="st0" d="M364.3,151.6c-1.5,0-2.8-0.3-4-0.9c-1.2-0.6-2.1-1.5-2.8-2.8c-0.7-1.2-1-2.7-1-4.5v-7.9c0-0.5,0.2-0.9,0.5-1.2
		s0.7-0.5,1.2-0.5s0.9,0.2,1.2,0.5s0.5,0.7,0.5,1.2v7.9c0,1.2,0.2,2.2,0.7,3c0.4,0.8,1.1,1.4,1.8,1.7c0.8,0.4,1.6,0.6,2.6,0.6
		c0.9,0,1.7-0.2,2.4-0.5c0.7-0.4,1.3-0.9,1.7-1.5s0.6-1.3,0.6-2.1h2c0,1.3-0.3,2.5-1,3.6s-1.5,1.9-2.7,2.5
		C367,151.3,365.8,151.6,364.3,151.6z M371.4,151.4c-0.5,0-0.9-0.2-1.2-0.5s-0.5-0.7-0.5-1.2v-14.3c0-0.5,0.2-0.9,0.5-1.2
		s0.7-0.5,1.2-0.5s0.9,0.1,1.2,0.4c0.3,0.3,0.5,0.7,0.5,1.2v14.3c0,0.5-0.1,0.9-0.4,1.2C372.3,151.2,371.9,151.4,371.4,151.4z"/>
	<path class="st0" d="M384.5,151.4c-0.5,0-0.9-0.1-1.2-0.4c-0.3-0.3-0.4-0.7-0.4-1.2v-14.3c0-0.5,0.1-0.9,0.4-1.2
		c0.3-0.3,0.7-0.4,1.2-0.4s0.9,0.1,1.2,0.4c0.3,0.3,0.4,0.7,0.4,1.2v14.3c0,0.5-0.1,0.9-0.4,1.2C385.4,151.2,385,151.4,384.5,151.4z
		 M384.4,140.4c0-1.3,0.3-2.4,0.9-3.4c0.6-1,1.5-1.8,2.5-2.4s2.2-0.9,3.5-0.9s2.2,0.2,2.9,0.6c0.6,0.4,0.9,0.9,0.7,1.5
		c-0.1,0.3-0.2,0.5-0.4,0.7s-0.4,0.3-0.6,0.3c-0.2,0-0.5,0-0.8,0c-1.4-0.3-2.6-0.3-3.7-0.1c-1.1,0.2-1.9,0.7-2.6,1.3
		c-0.6,0.6-0.9,1.5-0.9,2.4L384.4,140.4z"/>
	<path class="st0" d="M408.5,151.5c-1.6,0-3-0.4-4.2-1.2s-2.2-1.8-2.9-3.2c-0.7-1.3-1.1-2.8-1.1-4.5s0.4-3.2,1.2-4.5
		s1.8-2.4,3.2-3.2s2.8-1.2,4.5-1.2s3.2,0.4,4.5,1.2s2.4,1.8,3.2,3.2c0.8,1.3,1.2,2.9,1.2,4.5h-1.2c0,1.7-0.4,3.2-1.1,4.5
		c-0.7,1.3-1.7,2.4-2.9,3.2C411.4,151.1,410.1,151.5,408.5,151.5z M409.1,148.6c1.1,0,2.1-0.3,2.9-0.8c0.9-0.5,1.5-1.2,2-2.1
		c0.5-0.9,0.7-1.9,0.7-3.1c0-1.2-0.3-2.2-0.7-3.1c-0.5-0.9-1.2-1.6-2-2.1c-0.9-0.5-1.8-0.8-2.9-0.8c-1.1,0-2,0.3-2.9,0.8
		s-1.5,1.2-2,2.1c-0.5,0.9-0.7,1.9-0.7,3.1c0,1.1,0.3,2.1,0.8,3.1c0.5,0.9,1.2,1.6,2.1,2.1S408.1,148.6,409.1,148.6z M416.3,151.3
		c-0.5,0-0.9-0.2-1.2-0.5s-0.5-0.7-0.5-1.2v-4.9l0.6-3.4l2.7,1.1v7.1c0,0.5-0.2,0.9-0.5,1.2C417.2,151.2,416.8,151.3,416.3,151.3z"
		/>
</g>
<g>
	<g>
		<path class="st1" d="M172.5,71.3c-0.7-2.3-1.8-4.3-3.3-6.2c-1.4-1.9-3.1-3.5-5-4.8s-4-2.4-6.3-3.1s-4.7-1.1-7.1-1.1
			s-4.8,0.4-7.1,1.1c-2.3,0.7-4.5,1.8-6.4,3.1c-1.9,1.3-3.6,2.9-5,4.8c-1.4,1.9-2.5,3.9-3.2,6.2H172.5z M169.6,92.9
			c1.9,0,3.5,0.6,4.8,1.8c1.3,1.2,1.9,2.7,1.9,4.6c0,1.8-0.6,3.4-1.9,4.6c-6.7,5.6-14.5,8.4-23.6,8.4c-10,0-18.5-3.4-25.5-10.1
			c-7.1-6.8-10.6-14.9-10.6-24.5s3.5-17.7,10.6-24.5c7-6.8,15.5-10.1,25.5-10.1c9.9,0,18.4,3.4,25.5,10.1c3.5,3.3,6.2,7.1,7.9,11.2
			c1.8,4.1,2.7,8.5,2.7,13.3c0,1.9-0.7,3.4-2,4.6s-2.9,1.8-4.8,1.8h-51c0.7,2.3,1.8,4.3,3.2,6.2c1.4,1.9,3.1,3.5,5,4.8
			s4,2.4,6.3,3.1s4.7,1.1,7.2,1.1c2.8,0,5.4-0.4,7.8-1.2c2.4-0.8,4.6-2.1,6.6-3.7C166.4,93.5,167.9,92.9,169.6,92.9"/>
		<path class="st1" d="M331.9,112.5c-1.9,0-3.5-0.6-4.8-1.9c-1.2-1.2-1.9-2.7-1.9-4.5c-3,2.2-6.1,3.8-9.4,4.8
			c-3.3,1-6.9,1.5-10.8,1.5c-4.6,0-8.9-0.9-13-2.6s-7.7-4-10.7-7c-3-2.9-5.5-6.3-7.2-10.3c-1.8-3.9-2.7-8.1-2.7-12.5V49.5
			c0-1.8,0.7-3.3,2-4.5s2.9-1.9,4.8-1.9c1.8,0,3.4,0.6,4.7,1.9s2,2.8,2,4.5V80c0,2.7,0.5,5.2,1.6,7.5s2.5,4.4,4.3,6.2
			c1.8,1.8,4,3.1,6.4,4.1s5.1,1.5,7.9,1.5c2.8,0,5.3-0.5,7.8-1.5c2.4-1,4.6-2.4,6.4-4.2c1.9-1.8,3.3-3.8,4.4-6.1
			c1-2.3,1.6-4.8,1.6-7.5V49.5c0-1.8,0.7-3.3,2-4.5s2.9-1.9,4.8-1.9c1.8,0,3.4,0.6,4.7,1.9s2,2.8,2,4.5v56.4c0,1.8-0.7,3.3-2,4.5
			C335.4,111.9,333.8,112.5,331.9,112.5"/>
		<path class="st1" d="M400.3,92.9c1.9,0,3.5,0.6,4.8,1.8c1.3,1.2,1.9,2.7,1.9,4.6c0,1.8-0.7,3.4-2.1,4.8
			c-6.7,5.6-14.5,8.4-23.5,8.4c-10,0-18.5-3.4-25.5-10.1c-7-6.8-10.6-14.9-10.6-24.5s3.5-17.7,10.6-24.5s15.6-10.1,25.5-10.1
			c9.1,0,16.9,2.8,23.5,8.4c1.5,1.3,2.3,2.9,2.3,4.9c0,1.9-0.6,3.4-1.9,4.6c-1.3,1.2-2.9,1.9-4.8,1.9c-1.6,0-3.1-0.5-4.4-1.5
			c-2.2-1.8-4.5-3.1-6.9-4s-5-1.4-7.9-1.4c-3.1,0-6.1,0.6-8.8,1.7c-2.8,1.1-5.2,2.7-7.2,4.6c-2.1,2-3.7,4.3-4.9,6.9
			s-1.8,5.5-1.8,8.5s0.6,5.8,1.8,8.5c1.2,2.6,2.8,4.9,4.9,6.9c2.1,2,4.5,3.5,7.2,4.6s5.7,1.7,8.8,1.7c2.8,0,5.4-0.4,7.9-1.3
			c2.4-0.9,4.7-2.2,6.8-4C397.3,93.4,398.7,92.9,400.3,92.9"/>
		<path class="st1" d="M445.3,56.2c-3.2,0-6.1,0.6-8.9,1.7c-2.7,1.2-5.1,2.7-7.2,4.7c-2,2-3.6,4.2-4.8,6.9c-1.2,2.6-1.8,5.4-1.8,8.4
			s0.6,5.8,1.8,8.4s2.8,4.9,4.8,6.9s4.4,3.5,7.2,4.7s5.7,1.7,8.9,1.7c3.1,0,6.1-0.6,8.8-1.7c2.7-1.2,5.1-2.7,7.2-4.7
			c2-2,3.6-4.3,4.8-6.9s1.8-5.4,1.8-8.4s-0.6-5.8-1.8-8.4s-2.8-4.9-4.8-6.9c-2.1-2-4.4-3.5-7.2-4.7
			C451.3,56.8,448.4,56.2,445.3,56.2 M481.4,77.9c0,9.6-3.5,17.8-10.6,24.5c-7.1,6.8-15.6,10.1-25.5,10.1c-10,0-18.5-3.4-25.5-10.1
			c-7-6.8-10.6-14.9-10.6-24.5s3.5-17.7,10.6-24.5c7-6.8,15.5-10.1,25.5-10.1c9.9,0,18.4,3.4,25.5,10.1c3.5,3.4,6.2,7.1,7.9,11.2
			C480.4,68.7,481.3,73.1,481.4,77.9"/>
		<path class="st1" d="M251.4,77.9c0-3-0.6-5.8-1.8-8.4s-2.8-4.9-4.8-6.9c-2-2-4.4-3.5-7.2-4.7c-2.8-1.1-5.7-1.7-8.8-1.7
			c-3.2,0-6.1,0.6-8.9,1.7c-2.7,1.2-5.1,2.7-7.2,4.7c-2,2-3.6,4.2-4.8,6.9c-1.2,2.6-1.8,5.4-1.8,8.4s0.6,5.8,1.8,8.4
			s2.8,4.9,4.8,6.9s4.4,3.5,7.2,4.7s5.7,1.7,8.9,1.7c3.1,0,6.1-0.6,8.8-1.7c2.7-1.2,5.1-2.7,7.2-4.7c2-2,3.7-4.3,4.8-6.9
			C250.8,83.7,251.4,80.9,251.4,77.9 M228.8,43.3c8.5,0,16.1,2.5,22.6,7.6v-16c0-1.8,0.6-3.4,1.9-4.6c1.3-1.2,2.9-1.8,4.8-1.8
			c1.9,0,3.5,0.6,4.8,1.8c1.3,1.2,2,2.8,2,4.6v43c0,9.6-3.5,17.8-10.6,24.5c-7.1,6.8-15.6,10.1-25.5,10.1c-10,0-18.5-3.4-25.5-10.1
			c-7-6.8-10.6-14.9-10.6-24.5s3.5-17.7,10.6-24.5C210.3,46.7,218.8,43.3,228.8,43.3"/>
	</g>
</g>
<g>
	<path class="st1" d="M101.9,23.8C74.5,49.7,37,50.9,3.9,48.6c-1.7-0.1-3.3,0.9-3.8,2.4C0,51.3,0,51.7,0,52c0,1.2,0.7,2.4,1.9,3
		c8.6,4.4,19.5,7.8,30.5,9.7C30.5,77.5,14,113.9,3.9,128.8c-0.4,0.6-0.6,1.2-0.6,1.8c0,1,0.4,1.9,1.3,2.6c1.4,1.1,3.4,1.1,4.8,0
		c10.5-8.5,30.9-30.1,43.7-44.2c0.7,1.4,1.5,3,2.4,4.7c5.7,11.2,15.2,30,22.1,40.6c0.9,1.4,2.7,2,4.4,1.5c1.5-0.5,2.5-1.8,2.5-3.2
		c0-0.2,0-0.3,0-0.5c-4.3-28.5-5.1-51.4-5.1-63.3c0-3.7,0.1-6.2,0.1-7.6c15.3-12.8,24.4-23.6,28.5-33.7c0.2-0.4,0.2-0.8,0.2-1.2
		c0-1.1-0.6-2.2-1.7-2.9C105.1,22.4,103.1,22.6,101.9,23.8"/>
	<path class="st1" d="M45.7,2.1c-5.2,2.4-9.1,6.6-10.9,11.7C31,24.4,37.2,35.9,48.6,39.4c5.5,1.7,11.4,1.3,16.6-1.1
		s9.1-6.6,10.9-11.7l0,0C79.9,16,73.7,4.5,62.3,1C56.8-0.7,50.9-0.3,45.7,2.1"/>
</g>
</svg>
