<?xml version="1.0" encoding="utf-8"?>
<!-- Generator: Adobe Illustrator 27.0.0, SVG Export Plug-In . SVG Version: 6.00 Build 0)  -->
<svg version="1.1" id="Layer_1" xmlns="http://www.w3.org/2000/svg" xmlns:xlink="http://www.w3.org/1999/xlink" x="0px" y="0px"
	 viewBox="0 0 514 156" style="enable-background:new 0 0 514 156;" xml:space="preserve">
<style type="text/css">
	.st0{fill:#232231;}
</style>
<g id="TdH">
	<path class="st0" d="M56.8,156c31.4,0,56.3-25.9,56.8-57.8C114.3,58.9,56.8,0,56.8,0S-0.8,59.2,0,98.2C0.6,130.1,25.4,156,56.8,156
		"/>
</g>
<g id="TdH_00000160187969645971981180000011217330076837268143_">
	<g>
		<path class="st0" d="M492,138c15,0,22-5.4,22-14.8c0-10.5-8.7-11.8-21.1-12.9c-8-0.8-12.4-1.6-12.4-6.9c0-4.4,4.4-6.7,11.3-6.7
			c9.1,0,11.1,5.3,11.1,9.6h10.2c0-12.6-9.7-17.3-21.3-17.3c-12.7,0-21.5,5-21.5,14.8c0,11.6,10.5,12.1,21.8,13.3
			c5.7,0.6,11.4,1.2,11.4,6c0,4.2-3.1,7.2-11.4,7.2c-9.6,0-13.2-4.4-13.1-10.3h-10.7C468.1,129,473.1,138,492,138 M426.8,108
			c1.1-7.8,6-11.8,13.1-11.8c6.7,0,11.6,3.2,12.3,11.8H426.8z M440.2,138c12.6,0,21.7-5.9,22.5-18.1h-10.3
			c-0.5,6.6-5.7,9.7-12.3,9.7c-7.9,0-13.4-4.8-13.7-15.1h36.4v-2.7c-0.1-16.7-10.2-23-23.2-23c-14.5,0-24.2,8.2-24.2,24.6
			C415.5,129.9,425.6,138,440.2,138 M335.9,137.2H347v-25.8c0-4.7,1.2-13.7,10.7-13.7c7.2,0,8.8,6,8.8,11.8v27.7h11.2v-25.8
			c0-4.7,1.1-13.7,10.6-13.7c7.2,0,8.9,6,8.9,11.8v27.7h11.1v-30.6c0-11.3-4.9-17.7-14.8-17.7c-12.4,0-16,9.1-16.5,15.5h-0.7
			c-0.3-10.3-4.7-15.5-13.8-15.5c-11.9,0-15.6,8.8-16,15.5h-0.8V89.7h-9.8L335.9,137.2L335.9,137.2z M254.5,137.1h11.1v-25.8
			c0-4.7,1.2-13.7,10.7-13.7c7.2,0,8.8,6,8.8,11.8v27.7h11.2v-25.8c0-4.7,1.1-13.7,10.6-13.7c7.2,0,8.9,6,8.9,11.8v27.7H327v-30.6
			c0-11.3-4.9-17.7-14.8-17.7c-12.4,0-16,9.1-16.5,15.5H295c-0.3-10.3-4.7-15.5-13.8-15.5c-11.9,0-15.6,8.8-16,15.5h-0.8V89.7h-9.8
			L254.5,137.1L254.5,137.1z M210.3,113.4c0-11.2,5.2-16.2,12.9-16.2c7.6,0,12.9,5,12.9,16.2c0,11.5-5.3,16.1-12.9,16.1
			C215.4,129.6,210.3,124.9,210.3,113.4 M223.1,138c14.5,0,24.1-8.1,24.1-24.6c0-16.4-9.6-24.6-24.1-24.6c-14.4,0-24,8.2-24,24.6
			C199.1,129.9,208.7,138,223.1,138 M179.7,137.1h11.6V81.1h-11.6v22.1H153V81.1h-11.6v56.1H153v-24.7h26.8L179.7,137.1L179.7,137.1
			z"/>
		<path class="st0" d="M305.8,46.2c1.1-7.8,6-11.8,13.1-11.8c6.7,0,11.6,3.2,12.3,11.8H305.8z M319.2,76.2
			c12.6,0,21.7-5.9,22.5-18.1h-10.3c-0.5,6.6-5.7,9.7-12.3,9.7c-7.9,0-13.4-4.8-13.7-15.1h36.4V50c-0.1-16.7-10.2-23-23.2-23
			c-14.5,0-24.2,8.2-24.2,24.6C294.6,68.1,304.7,76.2,319.2,76.2 M261.9,75.3H273V51.2c0-7,2.3-14.5,11.5-14.5
			c3.9,0,7.1,1.5,8.7,3.1V28.4c-0.9-0.3-2.9-0.9-5.6-0.9c-10.3,0-14.8,5.3-15.1,17.3h-0.7V27.9h-9.9L261.9,75.3L261.9,75.3z
			 M224,75.3h11.1V51.2c0-7,2.3-14.5,11.5-14.5c3.9,0,7.1,1.5,8.7,3.1V28.4c-0.9-0.3-2.9-0.9-5.6-0.9c-10.3,0-14.8,5.3-15.1,17.3
			h-0.7V27.9H224L224,75.3L224,75.3z M180.5,46.2c1.1-7.8,6-11.8,13.1-11.8c6.7,0,11.6,3.2,12.3,11.8H180.5z M193.9,76.2
			c12.6,0,21.7-5.9,22.5-18.1h-10.3c-0.5,6.6-5.7,9.7-12.3,9.7c-7.9,0-13.4-4.8-13.7-15.1h36.4V50c-0.1-16.7-10.2-23-23.2-23
			c-14.5,0-24.2,8.2-24.2,24.6C169.3,68.1,179.4,76.2,193.9,76.2 M141.5,75.3h11.6V28.6h18.5v-9.3h-48.7v9.3h18.6L141.5,75.3
			L141.5,75.3z"/>
		<path class="st0" d="M492,76.2c15,0,22-5.4,22-14.8c0-10.5-8.7-11.8-21.1-12.9c-8-0.8-12.4-1.6-12.4-6.9c0-4.4,4.4-6.7,11.3-6.7
			c9.1,0,11.1,5.3,11.1,9.6h10.2c0-12.6-9.7-17.3-21.3-17.3c-12.7,0-21.5,5-21.5,14.8c0,11.6,10.5,12.1,21.8,13.3
			c5.7,0.6,11.4,1.2,11.4,6c0,4.2-3.1,7.2-11.4,7.2c-9.6,0-13.2-4.4-13.1-10.3h-10.7C468.1,67.2,473.1,76.2,492,76.2 M426.5,46.2
			c1.1-7.8,6-11.8,13.1-11.8c6.7,0,11.6,3.2,12.3,11.8H426.5z M440,76.2c12.6,0,21.7-5.9,22.5-18.1h-10.3c-0.5,6.6-5.7,9.7-12.3,9.7
			c-7.9,0-13.4-4.8-13.7-15.1h36.4V50c-0.1-16.7-10.2-23-23.2-23c-14.5,0-24.2,8.2-24.2,24.6C415.3,68.1,425.4,76.2,440,76.2
			 M374.6,51.6c0-11,4.5-16.2,12.2-16.2c8.1,0,11.7,5.3,11.7,16.2c0,11.2-3.6,16.1-11.7,16.1C379,67.7,374.6,62.8,374.6,51.6
			 M382.5,76.2c9.1,0,14.4-5,16.2-15.2h0.6v14.3h10.4l-0.1-57.8h-11.1v10.4c0,5.2,0.3,9.8,1.1,14.7h-0.8C397,32.2,391.7,27,382.5,27
			c-12.3,0-19.3,8.2-19.3,24.6C363.2,68.1,370,76.2,382.5,76.2"/>
	</g>
</g>
</svg>
