<svg width="34" height="28" viewBox="0 0 34 28" fill="none" xmlns="http://www.w3.org/2000/svg">
<path d="M34 0C32.674 0.810199 30.0135 1.91438 28.4495 2.23286C28.4036 2.24511 28.3662 2.26086 28.322 2.27311C26.9399 0.869695 25.0461 0 22.95 0C18.7255 0 15.3 3.52603 15.3 7.87451C15.3 8.10374 15.2813 8.52547 15.3 8.74945C9.5999 8.74945 5.2615 5.67665 2.1505 1.74989C1.8122 2.62484 1.6643 4.00725 1.6643 5.30567C1.6643 7.75727 3.5258 10.1651 6.4243 11.6578C5.8905 11.7995 5.3023 11.901 4.6903 11.901C3.7026 11.901 2.6571 11.6333 1.7 10.8213C1.7 10.8511 1.7 10.8791 1.7 10.9106C1.7 14.3369 5.2326 16.6695 8.3742 17.3187C7.7367 17.7054 6.4515 17.7439 5.8242 17.7439C5.3822 17.7439 3.8182 17.5357 3.4 17.4552C4.2738 20.2637 7.4256 21.8421 10.4295 21.8981C8.0801 23.795 6.4498 24.4985 1.6388 24.4985H0C3.0396 26.5038 6.9105 28 10.7899 28C23.4209 28 30.6 18.0904 30.6 8.74945C30.6 8.59896 30.5966 8.28398 30.5915 7.96725C30.5915 7.93575 30.6 7.90601 30.6 7.87451C30.6 7.82726 30.5864 7.78176 30.5864 7.73452C30.5813 7.49653 30.5762 7.2743 30.5711 7.1588C31.9141 6.16137 33.0786 4.91719 34 3.49978C32.7675 4.06325 31.4449 4.44122 30.056 4.61271C31.4738 3.73777 33.4883 1.6519 34 0Z" fill="white"/>
</svg>
