<svg width="34" height="28" viewBox="0 0 34 28" fill="none" xmlns="http://www.w3.org/2000/svg">
<path d="M33.2894 3.8255C32.8984 2.3205 31.7458 1.134 30.2838 0.7315C27.6318 3.65078e-07 17 0 17 0C17 0 6.3682 3.65078e-07 3.7162 0.7315C2.2542 1.134 1.1016 2.3205 0.7106 3.8255C-5.06639e-08 6.5555 0 14 0 14C0 14 -5.06639e-08 21.4445 0.7106 24.1745C1.1016 25.6795 2.2542 26.866 3.7162 27.2685C6.3682 28 17 28 17 28C17 28 27.6318 28 30.2838 27.2685C31.7475 26.866 32.8984 25.6795 33.2894 24.1745C34 21.4445 34 14 34 14C34 14 34 6.5555 33.2894 3.8255ZM13.6 20.062V7.938L23.8 14L13.6 20.062Z" fill="white"/>
</svg>
