<svg width="370" height="374" viewBox="0 0 370 374" fill="none" xmlns="http://www.w3.org/2000/svg">
<g filter="url(#filter0_d_507_3593)">
<path d="M316.338 312.401C290.751 337.994 258.15 355.423 222.658 362.484C187.167 369.545 150.379 365.921 116.946 352.07C83.5143 338.219 54.9392 314.764 34.8349 284.669C14.7306 254.575 4 219.194 4 183C4 146.806 14.7306 111.425 34.8349 81.3307C54.9392 51.2365 83.5142 27.7809 116.946 13.9301C150.379 0.079213 187.167 -3.5448 222.658 3.51629C258.15 10.5774 290.751 28.0064 316.338 53.5994L273.537 96.4097C256.414 79.2838 234.599 67.6209 210.849 62.8959C187.099 58.1708 162.482 60.5959 140.111 69.8644C117.739 79.1329 98.6176 94.8285 85.1645 114.966C71.7114 135.104 64.5309 158.78 64.5309 183C64.5309 207.22 71.7114 230.896 85.1645 251.034C98.6176 271.171 117.739 286.867 140.111 296.136C162.482 305.404 187.099 307.829 210.849 303.104C234.599 298.379 256.414 286.716 273.537 269.59L316.338 312.401Z" fill="black"/>
</g>
<g clip-path="url(#clip0_507_3593)" filter="url(#filter1_d_507_3593)">
<path d="M195.384 175.406L195.288 175.774L195.094 175.813H194.649L195.017 176.143L195.114 176.338L195.094 176.609L194.881 176.493L194.649 176.415L194.436 176.435L194.223 176.609L194.494 176.823L194.726 177.075L194.901 177.386L194.997 177.736V177.93L194.901 178.143L194.881 178.24V178.823L194.959 179.153L195.249 179.58L195.326 179.833L195.249 180.085L195.133 180.376L195.075 180.687L195.21 181.017L195.075 181.367L195.094 181.658L195.133 181.949L195.094 182.279L194.746 182.726L194.726 182.92L195.094 182.939L194.804 183.425L194.765 183.58L194.804 183.716L194.959 183.91L194.997 184.085L194.959 184.318L194.475 185.464L194.436 185.561L194.359 186.007L194.204 186.163L193.836 186.415L193.701 186.59L193.565 186.823L193.449 187.095L193.41 187.366L193.468 187.6L193.604 187.735L193.855 187.852L193.914 188.007L193.855 188.124L193.294 189.075L193.217 189.444L193.023 189.774L193.004 189.968L193.081 190.124L193.314 190.415L193.41 190.57L193.449 190.726L193.488 191.036L193.836 192.376L194.049 192.764L195.539 194.395L195.926 194.59L196.275 194.726L196.43 194.803L196.584 194.92L197.591 195.988L197.823 196.182L198.752 196.726L199.178 196.861L199.333 196.939L199.855 197.366L201.21 198.92L201.926 199.522L202.101 199.755L202.236 200.182L202.372 200.434L202.449 200.764L202.352 201.075L202.236 201.386L201.694 201.444L201.52 201.386H201.384L201.036 201.483H200.881L200.572 201.444L200.417 201.463L200.243 201.522L199.643 201.929L199.526 202.046L199.449 202.24V202.415L199.468 202.803L199.372 203.114L196.855 206.881L196.526 207.288L195.23 208.609L194.881 208.9L194.649 209.172L194.552 209.638L194.63 209.949L194.726 210.123L195.443 210.881L195.655 211.211L196.178 212.22L196.468 213.036L196.701 213.288L196.836 213.424L197.03 213.56L197.281 213.871L197.494 214.279L197.823 214.706L198.075 215.133L198.23 215.813L198.481 216.24L198.772 216.473L198.81 216.57V216.764L198.752 217.075L198.772 217.172L198.965 217.327L199.004 217.444L198.984 217.696L199.043 217.968L199.236 218.279L199.372 218.376L199.662 218.473L199.836 218.55L200.068 218.745L200.32 219.016L200.475 219.133L200.843 219.308L201.017 219.482L201.055 219.696L201.017 220.356L201.055 220.647L201.152 220.919V221.016L201.094 221.133L200.688 221.618L200.417 222.123L200.262 221.968L200.165 221.832L200.03 221.424L199.933 221.308L199.604 221.191L199.236 221.327L198.172 222.201L197.978 222.278L197.726 222.317H196.914L196.701 222.278L196.565 222.201L196.314 221.851L196.178 221.715L195.868 221.463L195.733 221.308L195.501 220.822L195.481 220.744L195.268 220.686L195.133 220.531L194.959 220.162L194.668 219.968H193.894L193.584 219.851L193.488 219.715L193.294 219.424L193.178 219.308L192.888 219.23L192.52 219.269L191.378 219.599L190.526 220.007L189.926 220.434L189.578 220.764L189.423 220.958L189.307 221.191L189.191 221.677L189.094 221.91L188.901 222.084L188.688 222.104L188.475 222.026L187.759 221.521L187.468 221.385L187.197 221.366L186.578 221.482L186.307 221.444L186.094 221.191L186.055 220.842V220.395L185.997 219.987L185.823 219.832L185.649 219.754L185.475 219.599L185.32 219.405L185.223 219.249L185.126 218.686L184.952 218.628L184.778 218.686H184.623L184.565 218.512L184.526 218.201L184.468 218.046L184.41 217.987L184.255 217.948L183.714 217.638L183.559 217.463L183.384 217.385L183.152 217.327L183.055 217.308L182.572 216.783L181.894 215.58L181.314 215.114L181.062 214.978L180.772 214.764L180.539 214.531L180.365 214.046L180.172 213.754L179.804 213.288L179.243 212.939L178.952 212.706L178.836 212.415L177.849 211.56L176.901 211.017L176.61 210.589H176.281L175.217 210.861L175.081 210.803L174.984 210.395L174.868 210.24L174.714 210.123L174.539 210.085L174.365 209.929L174.133 209.56L173.92 209.152L173.843 208.822H173.514L173.165 208.745L172.623 208.686L171.984 208.725L171.559 208.822L171.365 208.9L170.088 209.813L169.739 210.085L168.83 210.842L168.655 210.939L168.501 210.958H168.326L167.514 210.822L166.565 210.861L165.946 210.784L165.675 210.745L165.326 210.764L164.243 210.978L163.352 208.842L162.152 206.958L161.339 205.91L161.049 205.638L158.455 203.638L160.507 202.531L160.681 202.395L160.797 202.24L160.759 202.026L160.662 201.871L160.526 201.716L160.43 201.541L160.352 201.366L160.662 200.745L160.43 199.852L160.314 199.696L160.197 199.483L160.12 199.308V199.094L160.159 198.57L159.926 197.366L159.83 197.114L159.733 196.9L159.52 196.59L159.288 196.337L159.114 196.065L158.378 195.774L158.146 195.541L158.068 195.23L158.107 194.9L158.243 194.551L158.32 194.415L158.591 194.046L158.649 193.852L158.668 193.696L158.61 193.386L158.649 193.036L158.765 192.745L159.055 192.182L159.384 191.716L159.752 191.541L160.701 191.405L161.088 191.289L161.494 191.056L161.862 190.764L162.075 190.434L162.133 190.163L162.114 189.891L161.997 189.114V188.9L162.017 187.638L161.862 187.172L161.397 186.318L161.204 185.871L161.184 185.464L161.397 184.629L161.475 182.57L161.378 182.337L161.049 181.891L160.914 181.677L160.855 181.619L160.352 181.444L160.333 181.328L160.372 181.075L160.333 180.706L160.159 180.435L159.694 179.93L159.443 179.503L159.172 179.134L159.114 178.998L159.094 178.842L159.249 177.619V177.211L159.191 176.823V176.629L159.23 176.435L159.346 176.221L159.481 176.066L159.559 175.891L159.597 175.639L159.578 175.522L159.384 175.367L159.346 175.308L159.83 174.784L160.391 174.046L161.707 172.92L166.159 177.425L166.333 177.736L166.565 178.454L166.759 178.939L166.836 179.114L167.746 180.318L170.339 183.134L170.688 183.405L172.236 184.454L173.03 184.842L174.268 185.25L175.933 185.6L176.726 185.638L177.23 185.6L182.746 183.988L184.275 183.25L184.488 182.959L184.72 182.493L185.591 179.813V179.308L185.649 179.075L186.133 178.007L186.888 176.687L187.372 176.357L193.41 175.619L194.959 175.289L195.191 175.406H195.384Z" fill="#E83B3B" stroke="white" stroke-width="0.5" stroke-linecap="round" stroke-linejoin="round"/>
<path d="M184.527 218.201L184.565 218.512L184.623 218.686H184.778L184.952 218.628L185.127 218.686L185.223 219.249L185.32 219.405L185.475 219.599L185.649 219.754L185.823 219.832L185.997 219.987L186.056 220.395V220.842L186.094 221.191L186.307 221.444L186.578 221.482L187.197 221.366L187.468 221.385L187.759 221.521L188.475 222.026L188.688 222.104L188.901 222.084L189.094 221.91L189.191 221.677L189.307 221.191L189.423 220.958L189.578 220.764L189.927 220.434L190.527 220.007L191.378 219.599L192.52 219.269L192.888 219.23L193.178 219.308L193.294 219.424L193.488 219.715L193.585 219.851L193.894 219.968H194.668L194.959 220.162L195.133 220.531L195.268 220.686L195.481 220.744L195.501 220.822L195.733 221.308L195.868 221.463L196.178 221.715L196.314 221.851L196.565 222.201L196.701 222.278L196.914 222.317H197.727L197.978 222.278L198.172 222.201L199.236 221.327L199.604 221.191L199.933 221.308L200.03 221.424L200.165 221.832L200.262 221.968L200.417 222.123L200.572 222.278L200.727 222.492L200.785 222.706V222.919L200.746 223.172V223.443L200.804 223.657L201.017 224.084L201.114 224.317L201.23 224.764L201.346 224.958L201.656 225.23L202.004 225.405L202.314 225.618L202.527 226.007L202.585 226.22L202.604 226.453L202.643 226.686L202.759 226.861L202.952 226.977L203.185 227.016L203.649 227.055L203.901 227.133L204.036 227.288L204.172 227.482L204.346 227.657L204.675 227.754L204.772 227.871L205.43 230.201L205.468 230.395L205.546 230.589L205.681 230.725L205.933 230.803L206.223 230.822L206.514 230.783L206.746 230.725L206.959 230.628L207.094 230.472L207.21 230.278L207.288 230.045L207.443 228.822L207.617 228.473L207.81 228.317H208.004L208.43 228.453L208.759 228.473L209.746 228.356L209.901 228.628L209.514 231.424L209.475 232.453L210.152 244.123L210.21 244.297L210.443 244.802L211.101 251.637L211.314 252.356L211.662 252.394L212.649 252.414L213.385 252.569H213.539L213.752 252.491L213.849 252.394L214.12 251.987L214.236 251.851L214.372 251.773L214.527 251.715L214.836 251.676L215.049 251.579L215.262 251.404L215.359 251.268L215.552 250.977L215.668 250.86L215.804 250.802L215.997 250.958L216.21 251.288L216.694 252.472L216.83 252.686L217.101 252.783L234.133 252.724L233.785 253.229L233.204 254.103L233.068 254.569L233.165 261.715L207.868 261.695L206.397 261.656H206.068V261.598L205.759 261.307L205.643 261.132L205.681 260.957L205.797 260.763L205.681 260.724L205.41 260.783H204.946L204.81 260.685L204.752 260.375L204.617 260.258L204.307 260.181H203.978L203.727 260.258L203.533 260.278L203.32 260.142L203.127 259.909L203.03 259.87L202.894 260.161L202.856 260.414L202.836 260.821L202.933 261.851L202.914 262.045L202.739 262.297L202.681 262.569L202.604 262.705L202.585 262.802L202.681 263.054V263.151L202.662 263.482L202.585 263.753L202.391 264.006L202.236 264.103L201.985 264.122L201.559 263.986L201.365 263.948L200.397 264.064L200.107 264.006L199.527 263.753L198.965 263.268L198.733 263.132L198.443 263.093L198.133 263.132L197.649 263.249H197.397L197.262 263.151L197.146 263.016L196.778 262.122L196.739 262.064L196.43 261.715L196.352 261.618L196.178 261.443L195.888 261.268L195.791 261.132L195.694 260.88L195.597 260.763L195.52 260.724L195.23 260.705L195.056 260.666L194.843 260.55L194.668 260.491L194.552 260.53L194.436 260.608L194.281 260.841L194.146 261.113L193.914 261.462L193.817 261.715L193.797 261.928V262.239L193.778 262.317L193.662 262.569L193.585 262.86L193.527 262.957L193.41 263.074L193.159 263.19L192.849 263.287L192.656 263.365L192.52 263.307L192.346 263.132L192.114 263.016L191.978 262.918L191.785 262.666L191.649 262.569L191.456 262.511L191.397 262.472L191.32 262.2L191.262 262.122L191.127 262.045H190.739L190.585 261.967L190.391 261.812L190.314 261.792L190.062 261.87L189.927 261.889L189.752 261.695L189.539 261.715L189.423 261.695L188.92 261.093L188.804 260.977L188.63 260.938L188.32 261.054H188.127L187.856 260.977L187.585 260.783H187.488L187.391 260.841L187.294 260.957L187.217 261.171L187.004 264.278L186.733 265.229L186.714 265.404V266.083L186.752 266.433L186.307 269.85L186.249 270.841L184.933 269.85L182.707 267.423L182.436 266.782L182.417 266.685L182.397 266.258L182.572 264.472L182.475 264.006L182.456 263.792L182.494 263.443L183.172 261.074L183.268 258.938L183.694 258.22L183.81 257.928L184.004 256.938L184.081 256.686L185.281 253.792L184.178 249.288L184.12 248.938V248.336V248.181L184.294 247.618L184.372 247.462L184.972 246.589L185.049 246.297L184.952 245.928V245.56L185.01 245.462L185.088 245.404L185.262 245.346L185.397 245.268L185.668 244.996L185.997 244.744L186.346 244.589L186.83 244.53L187.178 244.414L188.804 244.278L189.075 244.22L192.056 242.511L193.294 241.191L193.836 240.433L193.972 240.22L193.856 239.87L193.507 239.21L192.172 237.424L192.017 237.094L191.92 236.783L191.901 236.453L191.959 236.103L192.036 235.812L192.056 235.676V235.521L191.881 235.288L191.785 235.171L191.727 235.191L191.668 234.841L191.475 234.453L191.243 234.123L190.972 233.89L190.546 233.773L190.062 233.812L188.843 234.22H188.475L188.397 234.103L188.32 234.084L188.204 234.162L187.894 234.259L187.507 234.123L186.559 233.579L186.307 233.385L186.036 233.23L185.339 233.094L185.068 232.919L184.836 232.705L184.062 232.162L183.888 231.968L183.539 231.424L183.114 231.113L182.881 230.9L182.785 230.686L182.727 230.239L182.649 230.026L182.572 229.89L182.456 229.793L181.952 229.463L181.701 229.016L181.41 228.201L181.43 228.026L181.488 227.89L181.759 227.424L182.146 226.764L182.262 226.647L182.475 226.473L182.533 226.278L182.475 226.026L182.436 225.812L182.378 225.618L182.301 225.443L182.049 225.21L181.972 225.075L181.933 224.88L181.952 224.744L182.01 224.608L182.591 224.104L182.843 223.929L183.036 223.696L183.21 223.424L183.268 223.23L183.288 223.055L183.21 222.783L183.152 222.706L182.997 222.609L182.823 222.55H182.727L182.03 222.725L181.72 222.842L179.997 223.715L179.843 223.735L179.649 223.657L179.572 223.463L179.61 223.366L179.707 223.191L179.765 223.113L180.133 222.783L180.268 222.647L180.346 222.414L180.017 220.589L179.978 219.89L180.075 219.094V218.919L180.017 218.783L179.843 218.667L179.514 218.512L179.281 218.337L179.146 218.162L179.068 217.968V217.813L178.972 217.211L179.01 217.055L179.146 216.939L179.32 216.9L179.378 216.919L179.456 217.113L179.572 217.211L179.765 217.23L180.017 217.366L180.114 217.385L180.578 217.366L180.791 217.424L180.907 217.541L181.023 217.793L181.197 217.91L181.372 217.871L181.817 217.657L181.991 217.618L182.204 217.715L183.404 218.123L183.772 218.279L184.004 218.317L184.527 218.201Z" fill="#E83B3B" stroke="white" stroke-width="0.5" stroke-linecap="round" stroke-linejoin="round"/>
<path d="M243.907 136.901L243.888 136.921L235.43 141.853L221.436 149.989L212.591 155.115L207.133 156.726L206.378 157.076L206.746 158.629L206.765 160.532L206.843 161.386L206.823 161.852L206.765 162.163L206.669 162.396L206.591 162.804L206.765 163.58L206.881 163.852L207.385 164.648L207.965 166.299L209.63 168.901L209.785 169.056L209.939 169.173L210.327 169.309L210.539 169.444L210.733 169.716L210.83 169.93L210.907 170.726L211.023 170.959L211.759 171.736L211.933 171.852L212.107 171.891H212.301L212.456 171.988L212.939 172.396L213.114 172.493L213.617 172.726L213.733 172.804L213.869 172.94L214.043 173.153L214.236 173.561L214.565 173.988L214.643 174.143L214.681 174.318L214.701 174.726L214.739 174.978L214.817 175.289L214.972 175.503L215.378 175.969L215.533 176.085L215.727 176.163L216.288 176.318L216.598 176.454L216.559 176.512H216.23L195.385 175.406H195.191L194.959 175.289L193.41 175.619L187.372 176.357L186.888 176.687L186.133 178.007L185.649 179.075L185.591 179.308V179.813L184.72 182.493L184.488 182.959L184.275 183.25L182.746 183.988L177.23 185.599L176.727 185.638L175.933 185.599L174.269 185.25L173.03 184.842L172.236 184.454L170.688 183.405L170.339 183.134L167.746 180.318L166.836 179.114L166.759 178.939L166.565 178.454L166.333 177.736L166.159 177.425L161.707 172.92L161.069 172.26L157.894 169.25L157.565 168.648L157.314 168.435L156.985 168.279L156.772 168.163L156.598 167.988L156.481 167.794L156.423 167.619L156.404 167.444V167.289L156.52 166.59V166.396L156.481 166.163L155.475 164.105L155.049 163.464L154.662 163.017L154.449 162.823L154.314 162.59L154.023 161.988L153.849 161.775L153.675 161.639L153.481 161.6L153.288 161.619L152.92 161.658L152.707 161.639L152.533 161.581L152.398 161.503L152.165 161.309L151.933 161.173L151.701 160.882L151.488 160.28L151.449 159.93L151.43 159.678L151.488 159.328L151.565 158.998L151.623 158.377L151.604 157.697L151.527 157.348L151.391 157.076L150.636 156.377L150.327 155.95L149.901 154.92L149.823 154.785L149.959 154.493L150.056 154.377L150.307 154.144L150.423 154.008L150.559 153.678L150.578 153.367L150.481 153.056L150.288 152.746L149.939 152.396L149.881 152.241L149.862 151.93L149.843 151.833L149.649 151.62L149.436 151.018L149.339 150.707L149.301 150.396L149.359 150.086L149.552 149.93L150.056 149.697L150.269 149.484L150.327 149.212L150.307 148.94L150.152 148.396L150.21 147.406L150.036 146.144L150.017 145.95L149.823 145.212V144.94L150.249 143.018L150.365 142.765L150.52 142.552L150.656 142.299L150.714 141.969L150.481 141.542L150.501 141.231L150.694 140.571L150.83 140.241L151.043 140.028L151.294 139.872L151.488 139.659L151.798 139.134L152.456 138.28L152.591 138.008V137.678L152.32 137.251L152.049 135.775V135.193L152.281 134.649L152.978 133.6L153.21 133.329L153.752 132.901L155.049 131.368L155.107 131.212L155.165 130.902L155.243 130.746L155.359 130.63L155.649 130.494L155.785 130.377L156.404 129.232L156.675 128.979L156.985 128.921L157.256 128.96L157.469 128.882L158.243 127.018L159.114 123.271L159.152 122.843L159.075 122.513L158.823 121.814L159.249 121.232L159.443 120.902L159.462 120.63L159.327 120.377L159.307 120.183L159.288 119.174L159.327 118.863L159.443 118.572L159.675 118.222L159.81 117.911L159.752 117.64L159.636 117.368L159.578 117.038L159.694 116.688L159.907 116.339L160.062 115.97L160.023 115.581L159.907 115.174L159.927 114.824L160.178 114.086L160.236 113.407L160.159 112.591L159.927 111.795L159.598 111.193L159.365 110.921L159.269 110.824L159.017 110.941L158.92 110.902L158.785 110.63L158.707 110.222L158.765 109.892L159.036 109.834L159.327 109.873L159.617 109.776L159.869 109.62L160.062 109.407L160.256 109.038L160.178 108.805L159.985 108.63L159.81 108.358V108.048L160.023 107.912H160.333L160.604 107.95L160.914 107.931L161.107 107.737L161.301 107.465L161.514 107.251L161.785 107.174H162.327L162.598 107.077L162.81 106.766L162.83 106.378L162.714 105.582L162.81 105.29L163.198 104.844L163.256 104.533L163.198 104.125L163.217 103.737L163.391 103.407L163.739 103.271L165.191 103.174L166.275 103.29L166.681 103.154L167.533 102.63L168.636 102.514L169.12 102.378L169.198 102.048L169.236 101.718L170.107 101.504L170.281 101.193L170.185 100.98L170.01 100.824L169.894 100.63L169.952 100.242L170.088 99.9895L170.669 99.2516L170.785 98.9604L170.765 98.6885L170.649 98.0866L170.688 97.7177L170.881 97.6594L171.172 97.7371L171.423 97.7565L171.81 97.4458L171.888 96.9022V96.3196L172.062 95.8342L172.217 95.6206L172.449 95.776L172.701 95.64L172.894 95.3488L173.088 94.6886L173.281 94.3197L173.417 93.9896L173.301 93.7372L173.127 93.6983L172.798 93.8343H172.643L172.527 93.776L172.43 93.6595V93.5624L172.933 93.3877L173.591 92.8634L173.959 92.7275L174.559 92.8246L175.236 93.0576L175.798 93.077L176.01 92.6304L175.933 92.3197L175.739 92.0285L175.488 91.8149L175.198 91.7372L175.043 91.6013L175.159 91.2906L175.372 90.9994L175.565 90.8634L175.739 90.9605L175.972 91.1741L176.146 91.4071L176.223 91.5819L176.417 91.6595L176.843 91.5625L177.52 91.2906L177.888 91.0188L178.043 90.7469L178.062 90.4363V90.0285L177.985 89.679L177.869 89.3295L177.907 89.0771L178.275 88.9606L178.604 89.0188L178.952 89.1547L179.301 89.1936L179.649 89.0188L179.959 88.7276L180.269 88.514L181.643 87.8344L181.759 87.6984L181.856 87.3684L182.107 87.0188L182.398 86.7082L182.61 86.5334L182.881 86.4363L183.714 86.3004L183.752 86.4363L183.83 86.5334L183.462 87.2324L183.23 87.446L182.843 87.5237V87.6402L183.036 87.9315L183.075 88.0285L182.978 88.2615L182.959 88.3586L183.017 88.6693L183.075 88.8052L183.133 88.8635L183.172 89.0382L183.075 89.8343V90.0867L183.346 90.378L183.617 90.5528L183.849 90.7858L183.927 91.2518L183.907 91.5236L183.791 92.145L183.559 92.8828L183.636 93.0964L184.256 93.2712L184.546 93.4653L184.798 93.7177L184.914 93.9508L185.01 95.3488L185.049 95.4265L185.223 95.64V95.8342L185.165 95.9896L184.798 96.2808L184.546 96.6691V96.9604L184.623 97.2322L184.681 97.5623L184.565 97.8536L183.965 98.339L183.714 98.6109L183.656 99.0186L183.869 99.271L184.139 99.4652L184.275 99.6788L184.178 99.9312L183.965 100.048L183.81 100.242L183.83 100.63L184.043 100.921L184.372 101.174L184.662 101.329L184.798 101.446L184.739 101.64L184.469 101.97L184.372 102.164L184.352 102.32L184.372 102.455L184.914 103.853L185.339 104.319L185.881 104.164L186.269 104.378L186.443 104.514L186.539 104.727V104.883L186.423 105.174V105.387L186.501 105.601L186.578 105.659H186.675L186.869 105.737L187.217 105.97L187.314 106.106L186.946 106.242L186.907 106.378L186.965 106.785L186.946 106.941L186.791 107.193L186.772 107.349V107.931L186.869 108.164L187.081 108.397L187.372 108.611L187.565 108.669L187.701 108.514L187.778 107.737L187.836 107.523L187.952 107.387L188.165 107.329L188.223 107.484L188.165 107.853L188.398 108.067L188.688 108.183L188.92 108.339L189.075 108.863L189.288 109.232L189.365 109.407V109.562L189.346 109.892L189.365 110.048L189.443 110.397L189.52 110.552L189.888 110.708L190.004 110.863L190.023 111.077L189.946 111.232L189.733 111.543L189.714 111.834L189.81 112.106L190.004 112.3L190.236 112.416L190.488 112.475L191.146 112.514L191.475 112.572L191.804 112.708L192.152 112.747L192.501 112.63L192.694 112.708L192.985 112.766L193.256 112.882L193.372 113.115L193.449 113.446L193.623 113.756L194.127 114.3L194.01 114.533L194.088 114.708L194.262 114.785L194.456 114.727L194.494 114.611L194.552 114.164L194.61 114.067L194.881 114.047L194.939 114.145L195.017 114.416V114.552L194.901 114.746L194.881 114.844L194.939 114.941L195.114 115.135L195.269 115.29L195.656 115.523L196.41 115.853L196.604 115.892H197.01L197.107 115.912L197.378 116.125L197.707 116.3L197.746 116.183L198.056 116.242L198.307 116.475L198.365 116.591L198.385 116.785L198.365 117.154L198.288 117.504L197.998 118.144L198.036 118.436L198.133 118.494L198.481 118.61L198.636 118.708L198.772 118.843L198.946 119.193L199.081 119.368L199.294 119.581L199.527 119.795L199.836 119.931L200.204 119.989L200.843 119.853L201.094 119.931L201.249 120.436L201.385 120.475L201.539 120.436L201.733 120.339L201.907 120.144L202.062 120.086L202.391 120.047L202.662 120.144L202.894 120.28L203.339 120.766L203.514 120.824L203.669 120.669L203.901 120.319L204.152 120.591L205.101 120.63L205.43 121.096L205.739 121.057L206.243 120.863L206.436 120.941L206.591 121.076L206.765 121.193L207.036 121.212L207.23 121.038L207.423 120.746L207.965 120.067V119.989L208.236 119.95L208.72 119.795L208.952 119.756L211.217 120.086L211.256 120.125L212.127 120.591L212.785 121.135L213.056 121.271L213.404 121.309L213.598 121.329L213.772 121.348L213.946 121.426L214.101 121.542L214.217 121.717L214.256 122.028L214.314 122.203L214.43 122.3L214.585 122.358L214.701 122.416L214.739 122.61L214.798 122.707L215.398 123.154L215.746 123.251L215.939 123.329L216.404 123.698L216.598 123.775L217.72 123.756L217.894 123.717L217.952 123.601L218.107 123.465L218.436 123.212L218.514 123.193L218.765 123.212L218.843 123.154L218.92 122.96L218.978 122.882L219.423 122.688L219.462 122.669L219.656 122.688L219.965 122.843L220.449 122.96L220.604 123.193L220.72 123.775L220.778 123.873L220.894 123.97L220.933 124.047L220.817 124.241V124.436L220.875 124.494L221.223 124.805L221.398 124.999L221.475 125.173L221.514 125.523L221.649 125.853L221.823 126.086L222.017 126.222L222.191 126.3H222.346L222.481 126.261L222.617 126.183L222.752 126.125L222.83 126.222L222.888 126.377L223.72 127.465L223.759 127.581L223.836 127.659L224.185 127.698L224.301 127.737L224.378 127.814L224.398 127.95L224.475 128.222L224.688 128.455L224.959 128.649L225.268 128.804L225.288 128.474L225.462 128.397H225.733L226.023 128.338L226.236 128.222L226.391 128.086L226.585 128.067L226.894 128.241L227.049 128.377L227.146 128.513L227.204 128.649L227.243 129.037L227.301 129.115L228.675 129.717L229.662 129.698L229.991 129.756L230.204 129.911L230.649 130.416L230.688 130.669L230.746 130.688H231.017L231.288 130.863L231.423 130.921L232.159 130.999L232.372 130.979L232.546 130.824L232.875 130.94L233.127 130.882L233.359 130.766L233.959 130.61L234.114 130.591L234.288 130.63L234.714 130.921L234.733 130.552L234.888 130.591L235.256 131.037L235.41 131.096L235.546 131.057L235.643 131.076L235.681 131.309V132.416L235.739 132.688L235.894 132.921L236.223 133.173L236.939 133.95L237.152 134.066L237.172 134.125L237.404 134.513L237.501 134.571L237.849 134.746L238.12 134.921L238.894 135.678L239.049 135.795L239.359 135.969L239.475 136.086L239.533 136.202L239.862 137.29L240.056 137.464L240.404 137.523L240.714 137.445L241.043 137.348L241.352 137.29L241.662 137.406L241.972 137.231L242.32 137.096L242.727 136.998L243.849 136.901H243.907Z" fill="#E83B3B" stroke="white" stroke-width="0.5" stroke-linecap="round" stroke-linejoin="round"/>
<path d="M127.236 181.541L126.927 181.367L126.481 181.502L125.959 181.347L125.785 181.328L125.61 181.386L125.32 181.638L125.127 181.716H124.875L125.01 181.483L125.049 181.25L124.856 181.134L124.507 181.095L124.565 180.978L125.01 180.687L125.185 180.473L125.223 180.26L125.243 180.066L125.34 179.891L125.243 179.677L124.623 179.192L124.43 178.901L124.74 178.765L124.759 178.804L125.127 179.095L125.669 179.328L126.385 179.736L126.714 180.046L126.869 180.415L126.985 180.629L127.256 180.765L127.836 180.92L128.843 181.794L129.075 181.93L129.133 181.988L129.036 182.104L128.881 182.221L128.688 182.279L128.494 182.26L128.398 182.221L128.359 182.143L127.759 181.58L127.43 181.347L127.275 181.425L127.236 181.541ZM159.443 118.572L159.327 118.863L159.288 119.174L159.307 120.183L159.327 120.377L159.462 120.63L159.443 120.902L159.249 121.232L158.823 121.814L159.075 122.513L159.152 122.843L159.114 123.271L158.243 127.018L157.469 128.882L157.256 128.96L156.985 128.921L156.675 128.979L156.404 129.232L155.785 130.377L155.649 130.494L155.359 130.63L155.243 130.746L155.165 130.902L155.107 131.212L155.049 131.368L153.752 132.901L153.21 133.329L152.978 133.6L152.281 134.649L152.049 135.193V135.775L152.32 137.251L152.591 137.678V138.008L152.456 138.28L151.798 139.134L151.488 139.659L151.294 139.872L151.043 140.028L150.83 140.241L150.694 140.571L150.501 141.231L150.481 141.542L150.714 141.969L150.656 142.299L150.52 142.552L150.365 142.765L150.249 143.018L149.823 144.94V145.212L150.017 145.95L150.036 146.144L150.21 147.406L150.152 148.396L150.307 148.94L150.327 149.212L150.269 149.484L150.056 149.697L149.552 149.93L149.359 150.086L149.301 150.396L149.339 150.707L149.436 151.018L149.649 151.62L149.843 151.833L149.862 151.93L149.881 152.241L149.939 152.396L150.288 152.746L150.481 153.056L150.578 153.367L150.559 153.678L150.423 154.008L150.307 154.144L150.056 154.377L149.959 154.493L149.823 154.785L149.901 154.92L150.327 155.95L150.636 156.377L151.391 157.076L151.527 157.348L151.604 157.697L151.623 158.377L151.565 158.998L151.488 159.328L151.43 159.678L151.449 159.93L151.488 160.28L151.701 160.882L151.933 161.173L152.165 161.309L152.398 161.503L152.533 161.581L152.707 161.639L152.92 161.658L153.288 161.619L153.481 161.6L153.675 161.639L153.849 161.775L154.023 161.988L154.314 162.59L154.449 162.823L154.662 163.017L155.049 163.464L155.475 164.105L156.481 166.163L156.52 166.396V166.59L156.404 167.289V167.445L156.423 167.619L156.481 167.794L156.598 167.988L156.772 168.163L156.985 168.279L157.314 168.435L157.565 168.648L157.894 169.25L161.069 172.26L161.707 172.92L160.391 174.046L159.83 174.784L159.346 175.308L159.385 175.367L159.578 175.522L159.598 175.639L159.559 175.891L159.481 176.066L159.346 176.221L159.23 176.435L159.191 176.629V176.823L159.249 177.211V177.619L159.094 178.842L159.114 178.998L159.172 179.134L159.443 179.503L159.694 179.93L160.159 180.435L160.333 180.706L160.372 181.075L160.333 181.328L160.352 181.444L160.856 181.619L160.914 181.677L161.049 181.891L161.378 182.337L161.475 182.57L161.398 184.629L161.185 185.464L161.204 185.871L161.398 186.318L161.862 187.172L162.017 187.638L161.998 188.9V189.114L162.114 189.891L162.133 190.163L162.075 190.434L161.862 190.764L161.494 191.056L161.088 191.289L160.701 191.405L159.752 191.541L159.385 191.716L159.056 192.182L158.765 192.745L158.649 193.036L158.61 193.386L158.669 193.696L158.649 193.852L158.591 194.046L158.32 194.415L158.243 194.551L158.107 194.9L158.069 195.23L158.146 195.541L158.378 195.774L159.114 196.065L159.288 196.337L159.52 196.59L159.733 196.9L159.83 197.114L159.927 197.366L160.159 198.57L160.12 199.094V199.308L160.198 199.483L160.314 199.696L160.43 199.852L160.662 200.745L160.352 201.366L160.43 201.541L160.527 201.716L160.662 201.871L160.759 202.026L160.798 202.24L160.681 202.395L160.507 202.531L158.456 203.638L158.088 203.288L158.049 203.211L157.662 202.764L157.391 202.376L157.198 201.929L156.985 201.599L156.849 201.463L156.617 201.269L156.404 201.172L156.21 201.133H155.92L153.849 201.735L153.52 201.871L151.643 202.978L149.707 204.376L149.339 204.667L146.707 206.337L146.417 206.551L146.359 206.648L146.339 206.764L146.359 206.997L146.456 207.25L146.591 207.502L146.688 207.735L146.707 207.91V208.026L146.61 208.318L146.533 208.473L146.417 208.609L146.088 208.822L145.856 208.861L145.662 208.842L145.488 208.784L142.372 206.415L142.023 206.259L141.501 206.065L140.243 205.424L139.778 205.288L137.301 205.172L135.404 205.327L134.881 205.463L133.894 205.929L133.739 206.026L132.849 206.784L131.456 208.57L130.894 209.094L129.54 210.123L128.727 210.57L126.656 211.133L125.494 211.716L125.34 211.774L125.185 211.521H124.991L124.74 211.618L124.41 211.638L124.14 211.56L123.888 211.444L123.404 211.133L123.036 211.055L122.92 210.997L122.804 210.9L122.494 210.512L122.243 210.589L122.049 210.725H121.856L121.604 210.317L121.469 209.696L121.449 208.473L121.352 207.871L120.946 207.114L120.385 206.473L119.107 205.327L118.778 204.803L118.623 204.201L118.565 202.861L118.585 201.677L118.546 201.094L118.372 200.59L118.14 200.298L117.83 199.968L117.191 199.463L116.94 199.366L116.088 199.25L116.359 198.823L116.61 197.91L116.785 197.541L117.21 197.444L118.081 196.648L118.565 196.318L118.991 196.143L119.456 196.065L119.881 195.91L120.21 195.502L120.288 195.25L120.21 195.133L120.094 195.094L120.036 194.997L120.094 194.823L120.191 194.726L120.869 194.318L121.062 194.085L121.488 193.172L123.094 191.444L123.307 191.095L123.598 190.182L123.752 189.949L124.004 189.794L124.565 189.735L124.875 189.658L125.785 189.192L126.056 188.978L126.501 188.376L126.075 187.794L125.998 187.502L126.036 187.017L126.114 187.036L126.54 187.153L126.81 187.328L127.275 187.561L128.34 187.658L128.804 187.832L128.92 187.425L128.959 186.687L128.92 185.988L128.746 185.677L128.165 185.619L127.565 185.464L127.333 185.231L127.836 184.881L128.417 184.726L128.978 184.629L129.288 184.667L129.791 184.842L130.062 184.881L130.372 184.765L130.604 184.493L130.798 184.201L130.972 183.968L131.069 183.93L131.417 183.852L131.727 183.638L131.591 183.502L131.456 183.464L131.32 183.502L131.185 183.638L130.875 183.405V183.289L131.514 183.056L131.746 183.036L132.365 183.347L132.559 183.367L133.256 183.289L133.043 183.075L132.965 182.939L132.927 182.784L132.965 182.57L133.14 182.532L133.256 182.396L133.333 182.066L133.294 181.891L132.927 181.697L132.83 181.6L132.694 181.405L132.559 181.367L132.385 181.386L131.959 181.483H131.475L131.185 181.444L130.875 181.367L130.081 180.939L129.791 180.92L129.559 181.095L129.385 181.367L129.21 181.522L129.017 181.367L128.998 181.211L129.017 180.881L128.978 180.745L128.765 180.435L128.049 178.978L128.301 178.901L128.901 178.862L129.017 178.823L129.094 178.571L129.249 178.318L129.462 178.105L129.675 177.969L130.043 177.891L130.236 177.794L130.333 177.677L130.275 177.503L130.062 177.211L130.023 177.114L129.849 176.998L128.804 176.939L128.32 176.745L128.107 176.706L127.952 176.765L127.836 176.881L127.72 176.959L127.275 176.765L126.52 176.726L126.327 176.609V176.473L126.501 176.046L126.54 175.872L126.52 175.677L126.443 175.347L126.423 175.192L126.346 174.823L126.152 174.59L125.669 174.221L125.398 173.891L125.223 173.6L124.991 173.406L124.643 173.328L124.333 173.308L124.043 173.231L123.791 173.134L123.598 172.978L123.714 172.765L123.985 172.823L124.14 172.707V172.512L123.985 172.415L123.385 172.396L122.94 172.454L122.359 172.415L122.146 171.833L122.03 171.736L121.875 171.639V171.406L121.952 171.134L121.972 170.94L122.03 170.843L121.991 170.765L121.72 170.707L121.488 170.629L121.275 170.299L120.791 169.949L121.004 169.658L121.081 169.328L121.12 168.998L121.198 168.668L121.41 168.377L121.565 168.279L122.01 168.144L122.107 168.066L122.127 167.93L121.933 167.425L122.03 167.173L122.281 166.823L122.591 166.551L123.114 166.357L123.327 165.736L123.636 165.716L124.004 165.736L124.256 165.542L124.294 165.231L123.927 164.862L123.52 164.299L123.269 164.047L122.34 163.328L122.069 163.076L121.159 161.658L120.559 161.095L120.462 160.804L120.52 160.493L120.791 159.891L120.81 159.755L120.752 158.416L120.772 158.124L120.927 157.911L121.275 157.678L122.146 157.445L122.398 157.289L122.63 156.823L122.727 154.707L122.92 154.396L123.23 154.357L123.598 154.435L123.946 154.454L124.043 154.26L123.985 153.503L124.043 153.231L124.14 153.154L124.41 153.076L124.527 153.018L125.146 152.299L125.456 152.066L126.481 151.484L126.791 151.192L126.733 150.862L126.501 150.532L126.385 150.241L126.365 149.6L126.385 149.29L126.481 148.998L126.888 148.707L127.41 148.571L128.475 148.435L128.785 148.105L128.707 147.542L128.32 146.435L128.223 145.872L128.127 145.62L127.972 145.387L127.12 144.824L126.907 144.513L126.81 143.989V143.406L126.752 142.843L126.481 142.435L126.269 141.795L126.249 141.581L126.307 141.309L126.385 141.115V140.94L126.21 140.688L125.359 139.989L125.03 139.523L125.262 139.154L125.456 139.134L125.94 139.212L126.114 139.173L126.269 138.998V138.804L126.23 138.61L126.269 138.377L126.404 138.183L126.733 137.833L126.869 137.62L127.004 137.231L127.101 136.824L127.043 136.455L127.236 133.251L127.004 131.969L126.965 131.309L127.081 129.387L126.849 127.542V126.843L126.946 126.474L127.449 126.086L127.604 125.698L127.798 125.387L128.146 125.426L128.359 124.979L128.591 124.63L128.92 124.416L130.217 124.047L130.333 123.911L130.701 123.174L130.546 122.999L130.043 122.863L129.888 122.707L129.907 122.436L130.062 122.203L130.275 122.028L130.759 121.756L130.972 121.562L131.165 121.309L131.281 121.076L131.378 120.746L131.475 120.591L131.63 120.533L131.552 120.377L131.727 120.397L132.249 120.436L132.404 120.397L132.501 120.339L132.694 120.125L132.772 120.086L133.081 119.193L133.256 118.96L133.643 118.902L133.914 119.018L134.146 119.212L134.398 119.31L134.727 119.251L134.92 119.135L135.21 118.649L135.946 116.785L136.294 116.3L138.172 115.29L138.578 114.844L138.694 114.3L138.81 113.135L139.062 112.669L139.546 112.436L140.746 112.281L141.172 112.067L141.501 112.086L141.888 112.009L142.275 111.873L142.546 111.679L142.759 111.31L142.894 110.882V110.805L143.185 110.882L159.443 118.572Z" fill="#E83B3B" stroke="white" stroke-width="0.5" stroke-linecap="round" stroke-linejoin="round"/>
<path d="M158.456 203.638L161.05 205.638L161.34 205.91L162.153 206.958L163.353 208.842L164.243 210.978L164.108 211.308L163.953 211.444L163.779 211.58L163.585 211.677L162.501 212.026L162.385 212.298L162.288 213.851L162.308 214.22L162.385 214.434L162.482 214.609L162.598 214.745L162.753 214.861L163.295 215.094L163.488 215.133H163.682L164.108 215.055L164.514 215.036L164.688 215.075L165.017 215.211L165.172 215.249L165.521 215.23L165.869 215.347L165.521 215.754L165.056 216.065L164.34 216.414L163.953 216.667L163.605 216.842L163.43 216.997L163.372 217.113V217.211L163.392 217.754V218.045L163.353 218.24L163.198 218.997V219.172V219.385L163.237 219.482L163.43 219.793L163.992 221.016L164.108 221.21L164.205 221.327L164.379 221.463L165.714 222.531L166.179 222.822L167.572 223.327L168.579 223.424L169.392 223.754L169.624 223.948L169.817 224.142L169.895 224.317L170.611 226.55L170.65 226.647L171.25 227.812L172.043 228.88L173.205 230.259L173.495 230.783L173.475 230.958L173.398 231.094L173.243 231.23L173.069 231.307L172.605 231.404L170.669 231.56L167.321 231.793L166.953 231.948L166.295 232.317L164.379 234.065L163.237 234.958L162.617 235.307L159.308 236.822L154.488 238.919L149.572 241.055L147.424 241.793L146.592 241.773L145.14 241.501L137.901 239.055L133.411 237.424L133.334 237.385L134.05 236.317L134.398 235.812L134.611 235.599L135.25 235.307L135.385 235.191L135.269 234.88L134.998 234.531L134.669 234.22L132.966 232.977L132.405 232.764L131.979 232.492L131.417 231.502L131.05 231.113L129.559 229.793L129.056 229.424L128.301 229.171L128.088 229.016L127.914 228.783L127.546 227.909L127.256 227.366L127.043 227.152L126.811 226.977L127.275 226.337L127.411 226.026V225.657L127.353 225.482L126.482 223.599V223.56L126.598 223.346L126.617 223.113L126.579 222.88L126.482 222.667L126.095 221.987L125.959 221.172L125.979 220.317L126.095 219.502V219.133L125.979 218.783L125.417 217.793L125.34 217.521L125.379 216.609L125.359 216.453L125.127 215.754L125.108 215.424L125.05 215.036L124.895 214.764L124.411 214.24L124.179 213.463L124.643 212.978L125.224 212.512L125.34 211.793V211.774L125.495 211.716L126.656 211.133L128.727 210.57L129.54 210.123L130.895 209.094L131.456 208.57L132.85 206.784L133.74 206.026L133.895 205.929L134.882 205.463L135.405 205.327L137.301 205.172L139.779 205.288L140.243 205.424L141.501 206.065L142.024 206.259L142.372 206.415L145.488 208.784L145.663 208.842L145.856 208.861L146.088 208.822L146.417 208.609L146.534 208.473L146.611 208.318L146.708 208.026V207.91L146.688 207.735L146.592 207.502L146.456 207.25L146.359 206.997L146.34 206.764L146.359 206.648L146.417 206.551L146.708 206.337L149.34 204.667L149.708 204.376L151.643 202.978L153.521 201.871L153.85 201.735L155.921 201.133H156.211L156.405 201.172L156.617 201.269L156.85 201.463L156.985 201.599L157.198 201.929L157.392 202.376L157.663 202.764L158.05 203.211L158.088 203.288L158.456 203.638Z" fill="#E83B3B" stroke="white" stroke-width="0.5" stroke-linecap="round" stroke-linejoin="round"/>
<path d="M183.714 86.3005L182.882 86.4364L182.611 86.5335L182.398 86.7082L182.107 87.0189L181.856 87.3684L181.759 87.6985L181.643 87.8344L180.269 88.514L179.959 88.7276L179.649 89.0189L179.301 89.1936L178.953 89.1548L178.604 89.0189L178.275 88.9606L177.907 89.0771L177.869 89.3295L177.985 89.679L178.062 90.0286V90.4363L178.043 90.747L177.888 91.0188L177.52 91.2907L176.843 91.5625L176.417 91.6596L176.224 91.5819L176.146 91.4072L175.972 91.1742L175.74 90.9606L175.565 90.8635L175.372 90.9994L175.159 91.2907L175.043 91.6013L175.198 91.7373L175.488 91.8149L175.74 92.0285L175.933 92.3198L176.011 92.6304L175.798 93.077L175.236 93.0576L174.559 92.8246L173.959 92.7275L173.591 92.8635L172.933 93.3877L172.43 93.5625V93.6596L172.527 93.7761L172.643 93.8343H172.798L173.127 93.6984L173.301 93.7372L173.417 93.9896L173.282 94.3197L173.088 94.6887L172.895 95.3488L172.701 95.6401L172.449 95.776L172.217 95.6207L172.062 95.8343L171.888 96.3197V96.9022L171.811 97.4459L171.424 97.7566L171.172 97.7371L170.882 97.6595L170.688 97.7177L170.649 98.0867L170.765 98.6886L170.785 98.9604L170.669 99.2517L170.088 99.9895L169.953 100.242L169.895 100.63L170.011 100.824L170.185 100.98L170.282 101.193L170.107 101.504L169.236 101.718L169.198 102.048L169.12 102.378L168.636 102.514L167.533 102.63L166.682 103.155L166.275 103.29L165.191 103.174L163.74 103.271L163.391 103.407L163.217 103.737L163.198 104.125L163.256 104.533L163.198 104.844L162.811 105.29L162.714 105.582L162.83 106.378L162.811 106.766L162.598 107.077L162.327 107.174H161.785L161.514 107.252L161.301 107.465L161.107 107.737L160.914 107.931L160.604 107.951L160.333 107.912H160.024L159.811 108.048V108.358L159.985 108.63L160.178 108.805L160.256 109.038L160.062 109.407L159.869 109.62L159.617 109.776L159.327 109.873L159.036 109.834L158.765 109.892L158.707 110.222L158.785 110.63L158.92 110.902L159.017 110.941L159.269 110.824L159.365 110.921L159.598 111.193L159.927 111.795L160.159 112.591L160.236 113.407L160.178 114.086L159.927 114.824L159.907 115.174L160.024 115.581L160.062 115.97L159.907 116.339L159.695 116.688L159.578 117.038L159.636 117.368L159.753 117.64L159.811 117.912L159.675 118.222L159.443 118.572L143.185 110.883L142.895 110.805V110.883L142.759 111.31L142.546 111.679L142.275 111.873L141.888 112.009L141.501 112.086L141.172 112.067L140.746 112.281L139.546 112.436L139.062 112.669L138.811 113.135L138.695 114.3L138.578 114.844L138.172 115.29L136.295 116.3L135.946 116.785L135.211 118.649L134.92 119.135L134.727 119.251L134.398 119.31L134.146 119.212L133.914 119.018L133.643 118.902L133.256 118.96L133.082 119.193L132.772 120.086L132.695 120.125L132.501 120.339L132.404 120.397L132.249 120.436L131.727 120.397L131.553 120.377L131.165 119.678L127.856 113.776L124.565 107.912L119.611 99.0963L117.675 95.6595L117.501 95.3683L118.682 95.4071L119.301 95.3488L120.365 95.077L120.888 95.1547L121.43 95.31L121.991 95.4071L122.882 95.3683L124.14 95.5236L124.72 95.6595L125.262 95.6013L125.514 95.6401L126.695 96.1644H126.753L127.353 96.1449L128.088 96.3585L128.475 96.3974L128.882 96.3003L129.307 96.1449L129.733 96.0479L130.217 96.1838L130.469 96.3197L130.217 96.708L130.043 97.0964L129.946 97.5041L130.004 98.1837L130.062 98.3197L130.178 98.4167H130.469L132.714 97.9507L133.159 97.7371L133.991 97.1352L134.669 96.9022L134.92 96.8634H135.191L135.462 96.9022L135.695 96.844L136.198 96.3585L136.488 96.2226L137.224 96.1449L137.495 96.0284L137.824 95.7954L138.133 95.4848L138.404 95.1353L138.617 94.7857L139.024 93.8343L139.256 93.5236L140.146 92.5722L140.688 91.5043L140.92 91.2518L141.288 90.98L141.772 90.747L142.043 90.6693L142.314 90.6305L142.759 90.7082L144.656 90.6111L144.888 90.6499L145.101 90.7082L145.411 90.8829L146.03 91.3878L146.34 91.5043L146.882 91.3683L147.133 90.9023L147.288 90.3198L147.462 89.8344L147.636 89.6596L148.12 89.2519L148.314 88.9994L148.624 88.514L148.798 88.3004L149.049 88.0674L149.359 87.9703L149.92 87.6985L150.578 87.4849L150.888 87.2713L151.178 87.0189L151.391 86.7082L151.469 86.5335V86.3976L151.507 86.2811L151.682 86.1257L151.817 86.0869L152.533 86.0675L152.707 86.048L152.882 85.9898L152.998 85.8927L153.017 85.7374L152.92 85.3684L152.959 85.2325L153.191 85.116L153.54 85.0578L154.198 85.0384L154.488 85.0772L155.107 85.2519H155.378L155.572 85.1354L155.688 84.9607L155.785 84.7665L155.901 84.6306L156.056 84.5723H156.385L156.559 84.5335L157.295 84.1258L159.849 81.4656L161.94 79.854L162.23 79.6987L163.527 79.1938L163.682 79.0967L163.759 78.9608L163.856 78.6113L163.953 78.4754L164.127 78.4171L166.004 78.1065L166.972 78.1647L167.282 78.1259L167.591 78.0288L168.249 77.6404L168.52 77.5434L170.069 77.3103L170.359 77.1938L170.843 76.8832L171.114 76.7667L171.985 76.6696L172.178 76.8249L172.256 76.8443L172.353 76.7861L172.449 76.5919L172.527 76.5337L172.759 76.4948L173.03 76.5919L173.456 76.8249L173.669 76.8832L173.978 76.8055L174.675 76.3783L174.965 76.2812L175.256 76.2618L175.469 76.2812L176.127 76.4366L176.32 76.456L176.495 76.3395L176.765 76.0677L176.862 76.3201L176.959 76.456L177.036 76.5142L177.191 76.4948L177.249 76.3395L177.269 76.0482L177.385 75.7376L177.482 75.6599L177.578 75.8735L177.656 76.1453L177.733 76.2424L177.888 76.3007L178.488 76.0482L178.72 76.0288L178.662 76.3977L178.604 76.6113L178.682 76.6502H178.933L179.224 76.5725L179.32 76.6307L179.533 76.8638L180.017 77.1744L180.249 77.2909L180.52 77.3492H180.714L180.791 77.2715L180.83 77.1744L180.927 76.9997L180.946 76.8443L181.062 76.7278L181.314 76.6696L181.488 76.456L181.643 76.223L181.72 76.0677L181.778 75.8346L181.875 75.6793L182.611 75.0774L182.804 74.825L182.959 74.8055H183.385L183.675 74.922L184.101 75.3104L184.333 75.7958L184.372 75.8541L184.585 76.5725L184.74 76.7473L184.953 76.9414L185.146 77.155L185.224 77.4074L185.165 77.7764L184.817 78.4365L184.682 78.786L184.643 79.4462L184.701 80.1064L184.836 80.7278L185.127 81.5627L185.185 81.8928L185.224 82.5918L185.262 82.7666L185.417 83.1355L185.456 83.3102L185.398 83.4656L185.127 83.8733L184.972 84.6694L184.778 85.0384L184.198 85.3296L183.965 85.6403L183.791 86.0092L183.714 86.3005Z" fill="#E83B3B" stroke="white" stroke-width="0.5" stroke-linecap="round" stroke-linejoin="round"/>
<path d="M184.527 218.201L184.004 218.317L183.772 218.279L183.404 218.123L182.204 217.715L181.991 217.618L181.817 217.657L181.372 217.871L181.198 217.91L181.024 217.793L180.907 217.541L180.791 217.424L180.578 217.366L180.114 217.385L180.017 217.366L179.765 217.23L179.572 217.211L179.456 217.113L179.378 216.919L179.32 216.9L179.146 216.939L179.011 217.055L178.972 217.211L179.069 217.813V217.968L179.146 218.162L179.282 218.337L179.514 218.512L179.843 218.667L180.017 218.783L180.075 218.919V219.094L179.978 219.89L180.017 220.589L180.346 222.414L180.269 222.647L180.133 222.783L179.765 223.113L179.707 223.191L179.611 223.366L179.572 223.463L179.649 223.657L179.843 223.735L179.998 223.715L181.72 222.842L182.03 222.725L182.727 222.55H182.824L182.998 222.609L183.153 222.706L183.211 222.783L183.288 223.055L183.269 223.23L183.211 223.424L183.036 223.696L182.843 223.929L182.591 224.104L182.011 224.608L181.953 224.744L181.933 224.88L181.972 225.075L182.049 225.21L182.301 225.443L182.378 225.618L182.436 225.812L182.475 226.026L182.533 226.278L182.475 226.473L182.262 226.647L182.146 226.764L181.759 227.424L181.488 227.89L181.43 228.026L181.411 228.201L181.701 229.016L181.953 229.463L182.456 229.793L182.572 229.89L182.649 230.026L182.727 230.239L182.785 230.686L182.882 230.9L183.114 231.113L183.54 231.424L183.888 231.968L184.062 232.162L184.836 232.705L185.069 232.919L185.34 233.094L186.036 233.23L186.307 233.385L186.559 233.579L187.507 234.123L187.894 234.259L188.204 234.162L188.32 234.084L188.398 234.103L188.475 234.22H188.843L190.062 233.812L190.546 233.773L190.972 233.89L191.243 234.123L191.475 234.453L191.669 234.841L191.727 235.191L191.785 235.171L191.882 235.288L192.056 235.521V235.676L192.036 235.812L191.959 236.103L191.901 236.453L191.92 236.783L192.017 237.094L192.172 237.424L193.507 239.21L193.856 239.87L193.972 240.22L193.836 240.433L193.294 241.191L192.056 242.511L189.075 244.22L188.804 244.278L187.178 244.414L186.83 244.53L186.346 244.589L185.998 244.744L185.669 244.996L185.398 245.268L185.262 245.346L185.088 245.404L185.011 245.462L184.953 245.56V245.928L185.049 246.297L184.972 246.589L184.372 247.462L184.294 247.618L184.12 248.181V248.336V248.938L184.178 249.288L185.282 253.792L184.082 256.686L184.004 256.938L183.811 257.928L183.694 258.22L183.269 258.938L183.172 261.074L182.494 263.443L182.456 263.792L182.475 264.006L182.572 264.472L182.398 266.258L182.417 266.685L182.436 266.782L182.707 267.423L184.933 269.85L186.249 270.841V271.384L186.191 271.753L185.92 272.491L185.707 272.879L185.494 273.112L185.436 273.171L185.34 273.443L185.301 273.947L185.262 274.083L185.011 274.355L184.914 274.627L184.759 275.423L184.933 275.501L185.127 275.695L185.301 275.947L185.475 276.103L185.591 276.239L185.843 276.627L186.249 277.423L186.443 277.695L186.617 277.87L186.791 278.394L187.198 280.433L187.236 280.472H186.946L182.727 280.53L181.894 280.433L180.791 280.277H180.656L180.501 280.433L180.385 280.491L178.178 280.743L177.694 280.588L177.23 280.258L175.198 277.831L174.849 277.637L173.398 277.384L173.32 277.287L173.127 276.452L172.643 275.928L171.946 275.578L170.611 275.132L170.34 275.229L169.585 278.044L169.43 279.656L169.353 279.908L169.256 280.103L169.159 280.083L168.965 280.122L168.83 280.2L168.714 280.336L168.598 280.51L168.54 280.666L168.153 280.976L166.062 281.578L164.204 282.103L164.146 282.18L164.069 282.413L163.972 282.433L163.72 282.355L163.411 282.316L163.236 282.258L163.062 282.238L162.849 282.336L162.482 282.646L162.288 282.996L162.172 283.384L161.978 284.666L161.862 285.054L161.669 285.306L161.611 285.462L161.707 285.947V286.122L161.533 286.258L159.753 286.821L159.327 287.034L158.998 287.384L158.862 287.617L158.649 287.753L158.398 287.811L158.049 287.792H157.778L157.914 289.403L157.875 289.772L157.701 290.044L156.52 290.996L156.036 291.559L155.243 292.918L150.23 294.025L149.649 294.141L148.546 294.219L146.088 294.063L145.585 293.889L145.469 293.772L145.12 293.229L145.043 293.248L144.424 293.112L144.269 292.86L144.191 292.413V291.093L144.714 288.53L144.694 288.18L144.211 287.229L144.075 286.374L143.94 286.005L143.34 284.86L143.243 284.53L143.224 284.18L143.494 283.112V282.782L143.34 282.355L142.894 281.714L142.836 281.539L142.894 281.365L143.088 281.073L143.146 280.918L143.088 280.549L142.914 280.141L142.624 279.772L142.314 279.559L141.54 278.802L141.153 278.452L141.017 278.258L140.94 278.006L140.765 275.19L140.436 273.87L139.449 272.044L139.333 271.462L139.411 267.307L139.178 266.549L135.888 261.016L135.636 260.763L135.288 260.685L134.611 260.705L134.398 260.685L133.682 260.239L133.411 259.54V257.326L133.527 256.938L133.759 256.588L134.843 255.637L134.862 255.326L134.398 254.938L133.972 254.763L133.236 254.278L131.611 253.501L131.262 253.229L130.914 252.86L130.585 252.394L130.353 251.87L130.294 251.346L130.469 250.919L130.836 250.627L131.727 250.297L131.107 249.171L130.914 248.608L130.933 247.948L131.03 247.462L130.972 247.288L130.449 247.171L129.965 246.88L129.927 246.55L130.198 246.259L132.133 245.657L132.617 245.618L132.849 245.657L133.024 245.695L133.159 245.676L133.294 245.501L133.372 245.346L133.507 244.763L133.527 244.433L133.856 243.637L133.894 243.404L133.875 243.288L133.817 243.191L133.74 242.958L133.72 242.453L133.701 242.336L133.585 242.103L133.43 241.987L132.946 241.793L132.675 241.579L132.172 241.055L131.417 240.453L131.301 240.239L131.34 239.929L131.553 239.599L132.211 238.997L132.482 238.686L133.333 237.385L133.411 237.424L137.901 239.055L145.14 241.501L146.591 241.773L147.424 241.793L149.572 241.055L154.488 238.919L159.307 236.822L162.617 235.307L163.236 234.958L164.378 234.065L166.294 232.317L166.953 231.948L167.32 231.793L170.669 231.56L172.604 231.404L173.069 231.307L173.243 231.23L173.398 231.094L173.475 230.958L173.494 230.783L173.204 230.259L172.043 228.88L171.249 227.812L170.649 226.647L170.611 226.55L169.894 224.317L169.817 224.142L169.624 223.948L169.391 223.754L168.578 223.424L167.572 223.327L166.178 222.822L165.714 222.531L164.378 221.463L164.204 221.327L164.107 221.21L163.991 221.016L163.43 219.793L163.236 219.482L163.198 219.385V219.172V218.997L163.353 218.24L163.391 218.046V217.754L163.372 217.211V217.113L163.43 216.997L163.604 216.842L163.953 216.667L164.34 216.414L165.056 216.065L165.52 215.754L165.869 215.347L165.52 215.23L165.172 215.249L165.017 215.211L164.688 215.075L164.514 215.036L164.107 215.055L163.682 215.133H163.488L163.294 215.094L162.753 214.861L162.598 214.745L162.482 214.609L162.385 214.434L162.307 214.22L162.288 213.851L162.385 212.298L162.501 212.026L163.585 211.677L163.778 211.58L163.953 211.444L164.107 211.308L164.243 210.978L165.327 210.764L165.675 210.745L165.946 210.784L166.565 210.861L167.514 210.822L168.327 210.958H168.501L168.656 210.939L168.83 210.842L169.74 210.084L170.088 209.813L171.365 208.9L171.559 208.822L171.985 208.725L172.624 208.686L173.165 208.745L173.514 208.822H173.843L173.92 209.152L174.133 209.56L174.365 209.929L174.54 210.084L174.714 210.123L174.869 210.24L174.985 210.395L175.082 210.803L175.217 210.861L176.282 210.589H176.611L176.901 211.017L177.849 211.56L178.836 212.415L178.953 212.706L179.243 212.939L179.804 213.288L180.172 213.754L180.365 214.046L180.54 214.531L180.772 214.764L181.062 214.978L181.314 215.114L181.894 215.58L182.572 216.783L183.056 217.308L183.153 217.327L183.385 217.385L183.559 217.463L183.714 217.638L184.256 217.948L184.411 217.987L184.469 218.046L184.527 218.201Z" fill="#E83B3B" stroke="white" stroke-width="0.5" stroke-linecap="round" stroke-linejoin="round"/>
<path d="M234.133 252.724L217.101 252.783L216.83 252.686L216.694 252.472L216.21 251.288L215.997 250.958L215.804 250.802L215.668 250.86L215.552 250.977L215.359 251.268L215.262 251.404L215.049 251.579L214.836 251.676L214.526 251.715L214.372 251.773L214.236 251.851L214.12 251.987L213.849 252.394L213.752 252.491L213.539 252.569H213.385L212.649 252.414L211.662 252.394L211.314 252.356L211.101 251.637L210.443 244.802L210.21 244.297L210.152 244.123L209.475 232.453L209.514 231.424L209.901 228.628L209.746 228.356L208.759 228.472L208.43 228.453L208.004 228.317H207.81L207.617 228.472L207.443 228.822L207.288 230.045L207.21 230.278L207.094 230.472L206.959 230.628L206.746 230.725L206.514 230.783L206.223 230.822L205.933 230.803L205.681 230.725L205.546 230.589L205.468 230.395L205.43 230.201L204.772 227.871L204.675 227.754L204.346 227.657L204.172 227.482L204.036 227.288L203.901 227.133L203.649 227.055L203.185 227.016L202.952 226.977L202.759 226.861L202.643 226.686L202.604 226.453L202.585 226.22L202.526 226.007L202.314 225.618L202.004 225.405L201.656 225.23L201.346 224.958L201.23 224.764L201.114 224.317L201.017 224.084L200.804 223.657L200.746 223.443V223.172L200.785 222.919V222.706L200.726 222.492L200.572 222.278L200.417 222.123L200.688 221.618L201.094 221.133L201.152 221.016V220.919L201.056 220.647L201.017 220.356L201.056 219.696L201.017 219.482L200.843 219.308L200.475 219.133L200.32 219.016L200.068 218.745L199.836 218.55L199.662 218.473L199.372 218.376L199.236 218.279L199.043 217.968L198.985 217.696L199.004 217.444L198.965 217.327L198.772 217.172L198.752 217.075L198.81 216.764V216.57L198.772 216.473L198.481 216.24L198.23 215.813L198.075 215.133L197.823 214.706L197.494 214.279L197.281 213.871L197.03 213.56L196.836 213.424L196.701 213.288L196.468 213.036L196.178 212.22L195.656 211.211L195.443 210.881L194.726 210.123L194.63 209.949L194.552 209.638L194.649 209.172L194.881 208.9L195.23 208.609L196.526 207.288L196.856 206.881L199.372 203.114L199.468 202.803L199.449 202.415V202.24L199.526 202.046L199.643 201.929L200.243 201.522L200.417 201.463L200.572 201.444L200.881 201.483H201.036L201.385 201.386H201.52L201.694 201.444L202.236 201.386L202.352 201.075L202.449 200.764L202.372 200.434L202.236 200.182L202.101 199.755L201.926 199.522L201.21 198.92L199.856 197.366L199.333 196.939L199.178 196.861L198.752 196.726L197.823 196.182L197.591 195.988L196.585 194.92L196.43 194.803L196.275 194.726L195.926 194.59L195.539 194.395L194.049 192.764L193.836 192.376L193.488 191.036L193.449 190.726L193.41 190.57L193.314 190.415L193.081 190.124L193.004 189.968L193.023 189.774L193.217 189.444L193.294 189.075L193.856 188.124L193.914 188.007L193.856 187.852L193.604 187.735L193.468 187.599L193.41 187.366L193.449 187.095L193.565 186.823L193.701 186.59L193.836 186.415L194.204 186.163L194.359 186.007L194.436 185.561L194.475 185.464L194.959 184.318L194.997 184.085L194.959 183.91L194.804 183.716L194.765 183.58L194.804 183.425L195.094 182.939L194.726 182.92L194.746 182.726L195.094 182.279L195.133 181.949L195.094 181.658L195.075 181.367L195.21 181.017L195.075 180.687L195.133 180.376L195.249 180.085L195.326 179.833L195.249 179.58L194.959 179.153L194.881 178.823V178.24L194.901 178.143L194.997 177.93V177.736L194.901 177.386L194.726 177.075L194.494 176.823L194.223 176.609L194.436 176.435L194.649 176.415L194.881 176.493L195.094 176.609L195.114 176.338L195.017 176.143L194.649 175.813H195.094L195.288 175.774L195.385 175.406L216.23 176.512H216.559L216.597 176.454L216.288 176.318L215.726 176.163L215.533 176.085L215.378 175.969L214.972 175.503L214.817 175.289L214.739 174.978L214.701 174.726L214.681 174.318L214.643 174.143L214.565 173.988L214.236 173.561L214.043 173.153L213.868 172.94L213.733 172.804L213.617 172.726L213.114 172.493L212.939 172.396L212.456 171.988L212.301 171.891H212.107L211.933 171.852L211.759 171.736L211.023 170.959L210.907 170.726L210.83 169.93L210.733 169.716L210.539 169.444L210.326 169.309L209.939 169.173L209.785 169.056L209.63 168.901L207.965 166.299L207.385 164.648L206.881 163.852L206.765 163.581L206.591 162.804L206.668 162.396L206.765 162.163L206.823 161.852L206.843 161.386L206.765 160.532L206.746 158.629L206.378 157.076L207.133 156.726L212.591 155.115L221.436 149.989L235.43 141.853L243.888 136.921L243.907 136.901L243.985 136.921L244.41 137.329L244.565 137.406L245.32 137.581L246.036 137.503L246.714 137.251L247.797 136.688L248.03 136.707L248.281 136.804L248.843 136.921L249.172 137.115L249.365 137.193H249.52L249.888 137.076L250.933 137.115L251.088 137.018L251.185 136.688L251.417 136.532L252.094 136.435L252.152 136.377L252.346 136.261L252.539 136.222L252.636 136.377V137.037L252.946 137.367L253.643 137.503L254.417 137.542L254.92 137.659L255.23 137.95L255.346 138.028L256.43 138.494L258.791 140.377L259.333 140.668L259.701 140.746L259.797 140.785L259.875 140.862L259.952 141.057L260.03 141.134L260.165 141.212L261.365 141.503L261.636 141.659L261.752 141.969L261.791 142.416L261.888 142.862L262.023 143.29L262.178 143.639L262.314 143.775L262.662 144.066L262.681 144.163L262.604 144.338L262.701 144.435L262.952 144.571L262.991 144.707V144.804L262.856 145.115L262.643 145.872L262.488 146.241L262.197 146.474L261.83 146.591L261.714 146.668L261.636 146.901L261.559 147.27L261.539 147.639L261.597 147.853L261.81 148.222V148.649L261.752 149.095L261.772 149.542L261.926 149.833L262.797 150.552L262.933 150.823L263.165 151.853L263.688 153.018L263.765 153.717L263.281 153.872L263.533 154.416L264.307 154.94L264.501 155.309L264.849 162.765L264.772 162.959L259.914 163.017L260.746 163.755L263.552 167.153L265.004 168.901L265.217 169.27L265.352 169.677L265.856 175.464L266.049 177.91L266.281 181.561L266.591 182.26L267.075 182.396L271.178 182.551L277.217 182.765L280.236 182.881L283.236 182.998L289.275 183.211L293.436 183.367L293.785 183.308L294.114 183.153L294.23 182.998L294.443 182.59L294.578 182.512L295.256 182.532L295.41 182.668L295.488 184.279L295.43 184.512L295.062 184.823L295.043 185.114L295.372 185.716L295.159 186.318L293.572 188.143L293.301 188.648L293.185 189.211L293.243 189.93L293.572 191.172L293.61 191.813L293.591 191.929L293.436 192.24L293.397 192.395L293.417 192.59L293.572 193.405L293.843 193.91L293.939 194.221L294.036 195.386L294.114 195.638L294.288 195.929L294.365 196.298L294.385 197.774L294.462 198.415L294.752 198.9L295.352 199.23L295.856 199.289L296.01 199.347L296.165 199.444L296.436 199.677L296.61 199.774L296.726 199.832L296.997 199.871L297.133 199.949L297.307 200.182L297.559 200.745L297.81 200.92L298.023 200.978L298.197 200.997L298.372 201.056L298.585 201.191L299.01 201.677L299.185 201.793L299.746 202.046L299.939 202.143L300.636 202.725L301.081 202.92L301.681 203.075L302.281 203.114L302.746 202.978L303.094 202.92L303.365 202.958L303.733 203.114L303.946 203.327L304.101 203.716L304.139 204.123L304.12 204.512L304.159 204.784L304.139 205.424L304.178 205.735L304.314 206.046L304.468 206.259L304.662 206.453L304.894 206.609L305.146 206.725L305.01 207.25L305.068 207.444L305.359 207.793L305.591 208.201L305.552 208.492L305.068 208.551L306.539 211.133L307.352 213.172L307.894 214.201L308.533 214.55H308.843L309.114 214.609L309.249 214.764L309.23 215.133L308.146 215.152L307.856 215.211L307.643 215.405L305.165 223.405L304.236 226.375L304.875 226.434L305.03 226.57L305.107 226.9L305.204 227.909L305.281 228.628L304.41 228.705L304.139 228.88L302.185 232.977L300.617 236.317L298.817 240.181L298.933 240.647L301.41 242.938L303.017 244.414L302.843 244.628L302.668 244.899L302.436 245.152L302.088 245.327L301.681 245.21L301.43 245.191L301.314 245.268L301.275 245.404L301.178 245.54L301.023 245.637L300.83 245.676L300.443 245.831L299.939 246.569L299.533 246.725L299.417 246.783L299.243 247.074L299.146 247.171L298.952 247.288L298.275 247.54L298.256 247.093L298.507 246.2L298.526 245.851L298.507 245.132L298.546 244.763L298.488 244.22L298.217 243.249L298.197 242.725L298.236 242.162L298.178 241.909L298.023 241.715L294.443 239.482L291.481 237.637L288.539 235.793L284.785 233.443L283.856 232.783L283.546 232.705L279.268 232.764L276.288 232.803L273.307 232.841L269.03 232.9L261.288 234.589L255.926 235.754L250.565 236.938L245.204 238.103L241.623 238.647L241.372 238.764L241.236 238.958L240.501 241.035L239.165 244.763L238.352 246.511L237.288 248.123L234.133 252.724Z" fill="#E83B3B" stroke="white" stroke-width="0.5" stroke-linecap="round" stroke-linejoin="round"/>
<path d="M233.165 261.715L233.088 262.841L231.52 268.258L230.939 270.258L230.397 272.064L229.081 276.472L228.385 278.802L227.533 281.947L227.165 282.821L227.03 282.763L226.991 282.646L226.972 282.491L226.894 282.336L226.701 282.122L226.023 281.637L225.288 281.268L225.056 281.035L224.939 280.724V280.18L224.823 279.986L224.881 279.831V279.675L224.785 279.015L224.727 278.86L224.494 278.802L223.817 278.666L221.456 278.802L211.507 278.743L210.907 278.86L210.636 278.996L209.901 279.656L209.727 279.578L209.068 278.996L208.759 278.84L207.288 278.743L206.862 278.821L206.63 278.918L206.572 278.976V279.073L206.417 279.462L206.359 279.792L206.301 279.928L206.185 280.064L205.952 280.141L205.875 280.219L205.72 280.491L205.488 281.462L204.985 282.724L204.868 282.918L204.559 283.093L204.443 283.209L203.262 286.316L202.875 286.879L202.062 287.656L201.83 288.083L201.152 290.665L201.133 291.908L200.997 292.238L200.63 293.559L200.649 293.772L200.359 293.636L200.301 292.84L200.107 292.588L200.223 292.18L200.165 291.714L199.952 291.326L199.604 291.17L199.43 291.034L199.023 290.122L198.868 289.986L198.714 289.928L198.617 289.831L198.578 289.578L198.597 289.384L198.675 289.054V288.879L198.752 288.685L198.868 288.53L198.985 288.355L199.023 288.102L198.133 287.229L197.92 286.899L197.823 286.51L197.765 286.413L197.475 286.219L197.378 286.102L197.397 285.928L197.514 285.598L197.494 285.403L197.281 285.209L196.952 284.976L196.739 284.685L196.894 284.277L197.107 284.025L197.223 283.792L197.204 283.52L197.068 283.17L196.933 282.957L196.507 282.433L196.352 282.336L196.043 282.258L195.694 282.083L195.385 281.85L195.056 281.792L194.92 281.753L194.785 281.772L194.494 281.908L194.359 281.928L193.72 281.772L192.617 281.151L189.636 280.452L187.236 280.471L187.197 280.433L186.791 278.394L186.617 277.87L186.443 277.695L186.249 277.423L185.843 276.627L185.591 276.239L185.475 276.103L185.301 275.947L185.127 275.695L184.933 275.501L184.759 275.423L184.914 274.627L185.01 274.355L185.262 274.083L185.301 273.947L185.339 273.442L185.436 273.171L185.494 273.112L185.707 272.879L185.92 272.491L186.191 271.753L186.249 271.384V270.841L186.307 269.85L186.752 266.433L186.714 266.083V265.404L186.733 265.229L187.004 264.278L187.217 261.171L187.294 260.957L187.391 260.841L187.488 260.783H187.585L187.856 260.977L188.127 261.054H188.32L188.63 260.938L188.804 260.977L188.92 261.093L189.423 261.695L189.539 261.715L189.752 261.695L189.927 261.889L190.062 261.87L190.314 261.792L190.391 261.812L190.585 261.967L190.739 262.045H191.127L191.262 262.122L191.32 262.2L191.398 262.472L191.456 262.511L191.649 262.569L191.785 262.666L191.978 262.918L192.114 263.016L192.346 263.132L192.52 263.307L192.656 263.365L192.849 263.287L193.159 263.19L193.41 263.074L193.527 262.957L193.585 262.86L193.662 262.569L193.778 262.316L193.797 262.239V261.928L193.817 261.715L193.914 261.462L194.146 261.113L194.281 260.841L194.436 260.608L194.552 260.53L194.668 260.491L194.843 260.55L195.056 260.666L195.23 260.705L195.52 260.724L195.597 260.763L195.694 260.88L195.791 261.132L195.888 261.268L196.178 261.443L196.352 261.617L196.43 261.715L196.739 262.064L196.778 262.122L197.146 263.016L197.262 263.151L197.397 263.249H197.649L198.133 263.132L198.443 263.093L198.733 263.132L198.965 263.268L199.527 263.753L200.107 264.006L200.397 264.064L201.365 263.948L201.559 263.986L201.985 264.122L202.236 264.103L202.391 264.006L202.585 263.753L202.662 263.482L202.681 263.151V263.054L202.585 262.802L202.604 262.705L202.681 262.569L202.739 262.297L202.914 262.045L202.933 261.85L202.836 260.821L202.856 260.414L202.894 260.161L203.03 259.87L203.127 259.909L203.32 260.142L203.533 260.278L203.727 260.258L203.978 260.181H204.307L204.617 260.258L204.752 260.375L204.81 260.685L204.946 260.783H205.41L205.681 260.724L205.797 260.763L205.681 260.957L205.643 261.132L205.759 261.307L206.068 261.598V261.656H206.397L207.868 261.695L233.165 261.715Z" fill="#E83B3B" stroke="white" stroke-width="0.5" stroke-linecap="round" stroke-linejoin="round"/>
</g>
<defs>
<filter id="filter0_d_507_3593" x="0" y="-0.00012207" width="320.339" height="374" filterUnits="userSpaceOnUse" color-interpolation-filters="sRGB">
<feFlood flood-opacity="0" result="BackgroundImageFix"/>
<feColorMatrix in="SourceAlpha" type="matrix" values="0 0 0 0 0 0 0 0 0 0 0 0 0 0 0 0 0 0 127 0" result="hardAlpha"/>
<feOffset dy="4"/>
<feGaussianBlur stdDeviation="2"/>
<feComposite in2="hardAlpha" operator="out"/>
<feColorMatrix type="matrix" values="0 0 0 0 0 0 0 0 0 0 0 0 0 0 0 0 0 0 0.3 0"/>
<feBlend mode="normal" in2="BackgroundImageFix" result="effect1_dropShadow_507_3593"/>
<feBlend mode="normal" in="SourceGraphic" in2="effect1_dropShadow_507_3593" result="shape"/>
</filter>
<filter id="filter1_d_507_3593" x="111.895" y="74.6113" width="201.549" height="227.802" filterUnits="userSpaceOnUse" color-interpolation-filters="sRGB">
<feFlood flood-opacity="0" result="BackgroundImageFix"/>
<feColorMatrix in="SourceAlpha" type="matrix" values="0 0 0 0 0 0 0 0 0 0 0 0 0 0 0 0 0 0 127 0" result="hardAlpha"/>
<feOffset dy="4"/>
<feGaussianBlur stdDeviation="2"/>
<feComposite in2="hardAlpha" operator="out"/>
<feColorMatrix type="matrix" values="0 0 0 0 0 0 0 0 0 0 0 0 0 0 0 0 0 0 0.3 0"/>
<feBlend mode="normal" in2="BackgroundImageFix" result="effect1_dropShadow_507_3593"/>
<feBlend mode="normal" in="SourceGraphic" in2="effect1_dropShadow_507_3593" result="shape"/>
</filter>
<clipPath id="clip0_507_3593">
<rect width="193.548" height="219.802" fill="white" transform="translate(115.895 74.6113)"/>
</clipPath>
</defs>
</svg>
