<?xml version="1.0" encoding="utf-8"?>
<!-- Generator: Adobe Illustrator 28.0.0, SVG Export Plug-In . SVG Version: 6.00 Build 0)  -->
<svg version="1.1" id="Capa_1" xmlns="http://www.w3.org/2000/svg" xmlns:xlink="http://www.w3.org/1999/xlink" x="0px" y="0px"
	 viewBox="0 0 200 200" style="enable-background:new 0 0 200 200;" xml:space="preserve">
<style type="text/css">
	.st0{clip-path:url(#SVGID_00000019638054571210437190000001372498169968762244_);fill:#FFE7B0;}
	.st1{clip-path:url(#SVGID_00000019638054571210437190000001372498169968762244_);}
	.st2{fill:#AF5C1E;}
	.st3{fill:#B26F5D;}
	.st4{fill:#DD9080;}
	.st5{fill:#FFE094;}
	.st6{fill:#E2C074;}
	.st7{fill:#FFC950;}
	.st8{fill:#F9B43A;}
	.st9{fill:#EA572A;}
	.st10{fill:#C43D1E;}
	.st11{fill:#5FC6DD;}
	.st12{fill:#49AFBF;}
	.st13{opacity:0.4;fill:#A37462;}
	.st14{fill:#F28F36;}
	.st15{fill:#F49758;}
	.st16{fill:#FFBA76;}
	.st17{fill:#FF8039;}
	.st18{fill:#7C4939;}
	.st19{fill:#F4A067;}
	.st20{fill:#F2CD8C;}
	.st21{fill:#4BA8B7;}
	.st22{fill:#6CD3DD;}
	.st23{opacity:0.3;fill:#AD4100;}
	.st24{fill:#914816;}
	.st25{fill:#F9A064;}
	.st26{fill:#FFF5C5;}
	.st27{fill:#664C38;}
	.st28{fill:#773B2F;}
	.st29{fill:#A8DCE5;}
	.st30{fill:#FFE1A4;}
	.st31{filter:url(#Adobe_OpacityMaskFilter);}
	.st32{filter:url(#Adobe_OpacityMaskFilter_00000035489335813273732230000014808462038498375308_);}
	
		.st33{mask:url(#SVGID_00000080907992170563227420000006922959452193406364_);fill:url(#SVGID_00000068671254746412480990000012493403394409551543_);}
	.st34{opacity:0.6;fill:url(#SVGID_00000088818427104056417730000005643169475796403849_);}
</style>
<g>
	<defs>
		<path id="SVGID_1_" d="M195,99.94C195,154.1,152.39,198,99.83,198c-52.56,0-95.17-43.9-95.17-98.06
			c0-54.16,42.61-98.06,95.17-98.06C152.39,1.88,195,45.78,195,99.94z"/>
	</defs>
	<clipPath id="SVGID_00000065069490557666968950000001601489445561574035_">
		<use xlink:href="#SVGID_1_"  style="overflow:visible;"/>
	</clipPath>
	
		<ellipse style="clip-path:url(#SVGID_00000065069490557666968950000001601489445561574035_);fill:#FFE7B0;" cx="104.27" cy="97.98" rx="107.22" ry="106.56"/>
	<g style="clip-path:url(#SVGID_00000065069490557666968950000001601489445561574035_);">
		<path class="st2" d="M115.07,134.44c9.03,4.69,15.95-4.73,16.1-8.59c0.15-3.82,0.47-10.5,2.74-14.04
			c2.21-3.45,7.46-9.57,2.95-16.29c-4.62-6.89,3.9-10.17-4.58-16.29C123.28,72.75,102.72,128.03,115.07,134.44z"/>
		<path class="st3" d="M259.74,311.68c-4.25,5.64-58.94,27.55-99.95,19.72c-40.08-7.64,17.62-118.64,17.62-118.64
			c0,0,44-8.18,65.62,13.46C252.15,235.35,264,306.04,259.74,311.68z"/>
		<path class="st4" d="M235.36,224.25c6.03,1.8,18.56,24.76,20.94,59.33C258.67,318.15,218.94,219.35,235.36,224.25z"/>
		<path class="st5" d="M182.93,582.11c1.32-10.04,2.89-32.09,6.74-35.01c0,0,4.84-5.11,12.38,12.52
			c7.14,16.67,40.68,12.75,40.07,23.79L182.93,582.11z"/>
		<path class="st6" d="M183.4,581.87c0.92-10.04,2.03-32.09,4.72-35.01c0,0,3.39-5.11,8.68,12.52c5,16.67,28.51,12.75,28.08,23.79
			L183.4,581.87z"/>
		<polygon class="st6" points="244.16,580.71 180.4,579.73 180.4,584.63 244.4,584.63 		"/>
		<path class="st6" d="M83.8,582.11c-3.37-10.04-9.27-32.09-14.23-35.01c0,0-3.79-4.29-10.74,12.76
			c-6.9,16.92-41.64,13.24-42.74,23.54L83.8,582.11z"/>
		<path class="st5" d="M83.81,581.94c-2.69-10.05-8.04-31.91-12-34.83c0,0-3.03-4.29-8.58,12.76
			c-5.51,16.92-33.26,13.24-34.14,23.54L83.81,581.94z"/>
		<path class="st7" d="M-13.53,232.63l1.82,25.36c0,0,71.85-15.18,77.02-79.36C68.15,143.28,18.82,165.48-13.53,232.63z"/>
		<path class="st8" d="M49.15,162.76c-5.8,42.97-42.21,62.66-62.64,70.42l1.78,24.81c0,0,71.85-15.18,77.02-79.36
			C66.41,164.95,59.67,159.92,49.15,162.76z"/>
		<path class="st9" d="M57.41,306.36c0,0-34.64,7.51-39.5-11.27C13.05,276.3,5.25,164.55,59.84,155.47
			C131.17,143.6,87.18,296.96,57.41,306.36z"/>
		<path class="st10" d="M65.81,308.39c0,0-34.85,7.61-39.17-11.41c-4.32-19.02-18.72-139.65,45.95-141.39
			C117.65,154.38,95.85,298.88,65.81,308.39z"/>
		<path class="st11" d="M48.29,285.07c-3.64,29.11-15.8,55.09,10.63,269.23l16.41,0.94c0,0-24.69-191.74,18.15-203.01
			c42.84-11.27,93.04,198.32,93.04,198.32h11.85l-51.95-262.97L48.29,285.07z"/>
		<g>
			<path class="st12" d="M66.06,554.3c-26.38-213.69-14.33-240-10.66-269.05l-7.12-0.18c-3.64,29.11-15.8,55.09,10.63,269.23
				l16.41,0.94c0,0-0.02-0.16-0.05-0.41L66.06,554.3z"/>
			<path class="st12" d="M100.62,352.23c-0.06,0.02-0.12,0.05-0.19,0.06c41.13,10.59,86.09,198.25,86.09,198.25h7.14
				C193.66,550.54,143.46,340.96,100.62,352.23z"/>
		</g>
		<path class="st13" d="M160.41,359.09l-10.03-51.48c-0.03-0.03-0.08-0.08-0.08-0.08l-106.06,5.73c-0.24,2.14-1.3,25.11-1.51,27.53
			C72.55,317.9,138.05,363.01,160.41,359.09z"/>
		<path class="st7" d="M62.27,159.22c-23.17,9.07-42.54,71.77-19.29,160.05c41.02,11.08,73.56,13.56,109.83,2.58l-7.9-165.76
			L62.27,159.22z"/>
		<path class="st8" d="M122.35,294.37c-42.57,0-77.08-48.4-77.08-108.11c0-3.16,0.12-6.28,0.31-9.37
			c-13.68,26-19.76,77.2-2.6,142.39c41.02,11.08,73.56,13.56,109.83,2.58l-1.68-35.3C142.23,291.58,132.52,294.37,122.35,294.37z"/>
		<path class="st8" d="M116.84,329.03c-28.28-39.07-41.77-111.1-2.78-168.49l27.45,84.45l11.29,76.87
			C139.6,328.67,128.42,327.24,116.84,329.03z"/>
		<g>
			<path class="st8" d="M82.61,211.14c0.47-0.57-0.18-2.35-1.16-1.03C80.34,211.61,82.22,211.63,82.61,211.14z"/>
			<path class="st8" d="M44.26,219.12l2.8,2.56C47.06,221.68,51.83,211.7,44.26,219.12z"/>
			<path class="st8" d="M37.61,280.02c0.96,9.45,6.95,17.77,15.2,19.18C43.3,295.48,38.03,282.62,37.61,280.02z"/>
			<path class="st8" d="M112.34,243.25c2.32,26.29-14.49,35.99-19.09,38.02C108.41,276.3,115.27,260.69,112.34,243.25z"/>
			<path class="st8" d="M40.33,263.44c0.01,13.9,3.08,20.94,12.06,29.23l23.6-40.26L40.33,263.44z M45.02,265.26
				c2.38-5.1,7.95-3.1,5.28,1.21C47.64,270.78,42.7,270.23,45.02,265.26z M46.34,274.39l-0.65-1.78l2.35-0.49l0.44,1.95
				L46.34,274.39z M54.87,284.15l-2.03,0.63l0.05-3.16l2.31-0.29L54.87,284.15z M57.43,275.78c-1.73,5.4-10.08,4.18-6.56-2.62
				C54.06,266.97,59.4,269.61,57.43,275.78z M55.53,266l-0.77-2.09l2.77-0.58l0.52,2.3L55.53,266z M62.2,261.78
				c3.42-6.02,5.89-3.45,4.19,1.93C64.69,269.08,59.89,265.83,62.2,261.78z"/>
			<path class="st8" d="M56.26,221.6l3.51-3.2c0,0-2.64-1.53-3.9-4.26l-1.48,1.09L56.26,221.6z"/>
			<path class="st8" d="M62.9,209.04l-1.8,8.11c3.12-2.66,5.01-3.27,7.98-3.88l-1.78-2.94c-2.48,0.63-4.68,2.79-4.68,2.79l2.42-6.42
				c-1.1-0.01-3.92,1.09-6.4,3.19l1.27,3.3C60.1,212.68,62.9,209.04,62.9,209.04z"/>
			<path class="st8" d="M77.63,213.33l-0.78-3.52c-2.28-0.65-4.71,0.22-4.71,0.22l3.7-4.59c-0.94-0.54-3.63-0.94-6.29-0.26
				l0.26,3.59c0.29-0.37,3.61-2.27,3.61-2.27l-3.6,6.4C73.16,212.05,74.93,212.43,77.63,213.33z"/>
			<path class="st8" d="M82.87,212.45c-0.01-0.48,0.09-1.02,0.44-1.56c0.29-0.45,0.48-0.85,0.6-1.21c-0.63-1.46-2.49-2.51-3.78-0.64
				C77.19,213.3,80.89,213.45,82.87,212.45z M81.45,210.1c0.98-1.32,1.62,0.46,1.16,1.03C82.22,211.63,80.34,211.61,81.45,210.1z"/>
			<path class="st8" d="M84.12,210.81c-0.01,0.09-0.03,0.18-0.03,0.26C84.11,210.98,84.11,210.89,84.12,210.81z"/>
			<path class="st8" d="M82.87,212.45c0.02,0.98,0.54,1.71,0.54,1.71l1.56-0.53c-0.22-0.51-0.93-1.38-0.88-2.57
				c-0.06,0.27-0.17,0.52-0.35,0.74C83.55,212.05,83.23,212.27,82.87,212.45z"/>
			<path class="st8" d="M84.12,210.81c0.05-0.37,0.16-0.76,0.39-1.18c1.07-1.95-0.54-5.2-3.1-5.14l-0.28,2.33
				c0,0,3.8-0.02,2.79,2.87C84.07,210.04,84.14,210.43,84.12,210.81z"/>
			<path class="st8" d="M82.87,212.45c0.36-0.18,0.67-0.4,0.87-0.65c0.18-0.22,0.29-0.47,0.35-0.74c0-0.08,0.02-0.17,0.03-0.26
				c0.03-0.38-0.05-0.76-0.21-1.13c-0.12,0.36-0.31,0.76-0.6,1.21C82.96,211.44,82.86,211.97,82.87,212.45z"/>
			<path class="st8" d="M53.37,226.1l-4.85-3.06c0,0,4.56-3.55,3.83-7.92c-0.52-3.08-5.69-5.61-11.83,3.55l9.57,14.54L53.37,226.1z
				 M44.26,219.12c7.58-7.42,2.8,2.56,2.8,2.56L44.26,219.12z"/>
			<path class="st8" d="M55.13,212.94c0.65-1.6-1.2-2.52-1.66-1.05C53.16,212.89,54.59,214.26,55.13,212.94z"/>
			<path class="st8" d="M106.41,257.69l-22.37-11.18l22.56,10.07c0.58-2.69,2.5-9.65,2.37-11.98c-0.49-8.94-4.58-16.1-10.39-20.9
				l-14.56,20.11l13.81-20.72c-5.5-4.23-12.41-6.43-19.28-6.11l4.68,27.08l-5.62-27.02c-4.01,0.32-8,1.5-11.65,3.64
				c-2.63,1.55-4.82,3.64-6.64,6.07l22.53,18.49l-23.25-17.48c-5.29,7.83-6.95,18.89-6.07,28.38l29.14-8.76L65.75,279.2
				c7.26,4.7,14.24,4.87,20.41,2.36l-3.07-33.21l3.99,32.82C97.41,276.45,103.71,268.53,106.41,257.69z M98.07,257.49
				c0.98-0.89,2.56-0.12,3.53,1.72c0.96,1.84,0.96,4.05-0.02,4.94c-0.98,0.89-2.56,0.12-3.53-1.72
				C97.08,260.59,97.09,258.38,98.07,257.49z M97.71,266.83l1.27,1.29l-0.96,1.59l-1.27-1.29L97.71,266.83z M93.59,258.46l1.51-0.28
				l0.17,2.12l-1.51,0.28L93.59,258.46z M95.01,267.12c0.19,2.26-0.91,4.33-2.45,4.62c-1.54,0.29-2.93-1.31-3.12-3.57
				c-0.19-2.26,0.91-4.33,2.45-4.62C93.42,263.26,94.82,264.86,95.01,267.12z M87.78,252.02c0.79-0.73,2.09-0.06,2.91,1.5
				c0.81,1.56,0.83,3.42,0.04,4.15c-0.79,0.74-2.1,0.06-2.91-1.5C87,254.61,86.99,252.76,87.78,252.02z M88.21,260.15l1.27,1.29
				l-0.96,1.59l-1.27-1.29L88.21,260.15z M101.23,235.63l0.65,0.64l-0.41,0.78l-0.65-0.64L101.23,235.63z M105.31,244.1
				c0.52,3.44-4.12,8.62-4.74,1.04C100.15,239.99,104.8,240.66,105.31,244.1z M95.64,248.23l-1.51,0.28l-0.17-2.12l1.51-0.28
				L95.64,248.23z M93.29,236.82c1.52-5.79,6.14-2.69,4.35,1.34C95.85,242.19,91.77,242.64,93.29,236.82z M87.21,242.28
				c0.88-3.37,3.57-1.57,2.53,0.78C88.7,245.4,86.33,245.66,87.21,242.28z M90.98,223.83c1.83-2.65,3.56,0.41,1.92,2.03
				C91.27,227.49,89.14,226.5,90.98,223.83z M88.12,222.16l0.65,0.64l-0.42,0.78l-0.65-0.64L88.12,222.16z M87.27,234.4
				c-1.04,2.34-3.42,2.61-2.53-0.78C85.62,230.26,88.31,232.06,87.27,234.4z M83.66,228.85l0.42-0.78l0.65,0.64l-0.41,0.78
				L83.66,228.85z M85.48,221.45c0.5,3.45-1.71,6.31-3.05,1.99C81.11,219.14,84.99,218,85.48,221.45z M83.87,238.31l0.65,0.64
				l-0.41,0.78l-0.65-0.64L83.87,238.31z M65.06,226.69l-1.27-1.29l0.96-1.59l1.27,1.29L65.06,226.69z M71.41,229.57l-0.65-0.64
				l0.41-0.78l0.65,0.64L71.41,229.57z M72.77,220.48c4.6-2.31,5.38,4.61,1.74,5.45C70.87,226.77,68.14,222.8,72.77,220.48z
				 M76.68,236.44c-1.89-1.23-2.1-4.38,0.63-3.42C80.02,233.97,78.57,237.67,76.68,236.44z M56.43,244.84l-1.45,0.27l-0.12-1.4
				l1.45-0.27L56.43,244.84z M60.62,250.79c-3.1-0.25-4.73-4.28-0.59-5C64.15,245.07,63.73,251.05,60.62,250.79z M62.22,237.8
				c-2.26,2.96-5.7,2.11-3.31-2.5C61.28,230.71,64.47,234.83,62.22,237.8z M65.33,240.52l-0.65-0.64l0.41-0.78l0.65,0.65
				L65.33,240.52z M68.62,248.64l-1.27-1.29l0.96-1.59l1.27,1.29L68.62,248.64z M72.54,245.18c-1.89-1.23-2.1-4.38,0.63-3.42
				C75.88,242.71,74.43,246.41,72.54,245.18z M74.33,275.24l-1.27-1.29l0.96-1.59l1.27,1.29L74.33,275.24z M77.28,259.98
				c3.44-2.64,3.36,2.14,0.63,4.81C75.19,267.45,74.53,262.1,77.28,259.98z M78.17,276.59c-1.78-6.38,3.82-7.95,4.26-4.03
				C82.87,276.48,79.84,282.58,78.17,276.59z"/>
		</g>
		<path class="st14" d="M66.82,158.93c13,13.72,14.86,19.09,66.39-5.97L66.82,158.93z"/>
		<path class="st15" d="M70.62,158.69c10.92,8.79,12.48,12.22,55.75-3.82L70.62,158.69z"/>
		<path class="st16" d="M73.51,160.31l3.65-32.87l37.82-2.35l5.01,31.93C97.99,164.17,82.77,171.27,73.51,160.31z"/>
		<path class="st9" d="M159.86,315.57c0,0-34.29-4.29-43.45-22.58c-9.16-18.29-35.83-116.34,4.81-136.81
			C200.63,116.19,186.6,298.71,159.86,315.57z"/>
		<path class="st17" d="M169.93,221.8c-56.44-0.81-67-54.72-43.03-66.84C171.83,132.24,188.26,207.26,169.93,221.8z"/>
		<path class="st8" d="M152.39,156.71c-16.91,1.59-40.32,71.6-5.84,87.46C181.03,260.02,169.89,155.07,152.39,156.71z"/>
		<path class="st7" d="M144.6,214.79c-15.04-17.37-6.83-57.76,10.48-58.7c3.67-0.2,89.32,35.69,69.73,65.27
			C215.24,235.8,144.6,214.79,144.6,214.79z"/>
		<path class="st8" d="M226.13,205.51c-4.74,7.16-81.09,0.58-83.48-39.28c-10.79,21.9-6.02,39.35,1.95,48.55
			c0,0,70.64,21.01,80.21,6.57c3.48-5.26,3.63-10.73,1.51-16.15C226.25,205.31,226.2,205.41,226.13,205.51z"/>
		<path class="st18" d="M155.08,330.31c-22.16-10.82-38.28-91.1-20.05-108.48c18.23-17.37,61.98-15.02,77.02-0.47
			c15.04,14.56,51.82,74.62,45.9,87.3C252.02,321.35,172.4,338.76,155.08,330.31z"/>
		<path class="st3" d="M130.91,266.18c2.78,20.5,9.8,53.42,23.33,61.21c13.53,7.79,69.22-15.99,69.22-15.99l-15.95-55.27
			L130.91,266.18z"/>
		<path class="st16" d="M221.56,215.47c-5.5,18.28-3.71,29.77,16.35,76.66c3.6,7.83,14.12,10.73,12.17,3.5
			c-5.26-19.48,14.47-71.71-15.31-82.03C227.53,212.29,221.56,215.47,221.56,215.47z"/>
		<path class="st19" d="M241.95,292.37c-15.4-48.72-16.06-60.34-8.82-77.96c0,0,0.78-0.31,2.09-0.63c-0.16-0.06-0.29-0.13-0.45-0.19
			c-7.24-1.3-13.21,1.88-13.21,1.88c-5.5,18.28-3.71,29.77,16.35,76.66c2.19,4.77,6.94,7.69,9.88,7.63
			C245.47,298.31,243.1,295.69,241.95,292.37z"/>
		<path class="st20" d="M212.5,232.16c-0.46-18.78,8.66-42.73,19.14-31.46C242.12,211.97,232.55,229.35,212.5,232.16z"/>
		<path class="st16" d="M-24.51,256.65c-31.75-1.82-9.99-64.87-9.84-84.12l7.87-1.25C-20.37,203.52-1.36,257.97-24.51,256.65z"/>
		<path class="st19" d="M-14.99,238.67c-25.13-1.44-16.74-41.23-12.08-67.31l-7.29,1.16c-0.14,19.25-21.9,82.31,9.84,84.12
			c8.7,0.5,11.45-6.89,11.16-18.01C-13.88,238.67-14.41,238.7-14.99,238.67z"/>
		<path class="st20" d="M-11,222.15c4.08,8.65,12.32,45.81-5.62,42.78C-34.55,261.9-17.19,230.77-11,222.15z"/>
		<path class="st16" d="M233.41,315.87c5.62,4.37,22.6-13.78,15.13-22.13C241.81,286.2,224.21,308.72,233.41,315.87z"/>
		<path class="st19" d="M240.92,293.63c-7.03,4.28-14.05,17.15-7.5,22.24c1.16,0.91,2.82,0.83,4.65,0.09
			C232.76,311.59,235.87,299.3,240.92,293.63z"/>
		<path class="st21" d="M77.42,545.39c-3.38-3.54-20.12-3.54-22.79,0c-2.67,3.54-2.09,9.28,1.29,12.82c3.38,3.54,20.12,3.54,22.78,0
			C81.38,554.67,80.8,548.92,77.42,545.39z"/>
		<path class="st21" d="M202.98,544.06c-3.05-3.05-18.2-3.05-20.61,0c-2.41,3.06-1.89,8,1.17,11.06c3.05,3.06,18.2,3.06,20.61,0
			C206.56,552.07,206.04,547.12,202.98,544.06z"/>
		<path class="st19" d="M-26.3,179c0.99-4.35,10.5-23.29,0.14-28.3c-3.24-1.57-8.52-0.42-13.43-1.34
			c-7.79-1.46-11.93,5.45-4.24,7.82c0,0-3.01,0-3.46,2.76c-0.2,1.22,0.85,2.84,4.13,3.45c0,0-2.12,0.57-2.23,2.99
			c-0.09,1.86,2.85,4.16,6.25,4.6c5.36,0.69,4.56,9.35,4.56,9.35L-26.3,179z"/>
		<path class="st16" d="M-23.65,168.01c1.7-4.2,2.91-12.96,0.54-18.14c-2.36-5.18-3.8-9.76-1.16-13.93
			c2.65-4.17-8.31-2.69-6.97,5.01c1.34,7.7-1.34,14.72-1.34,14.72C-33.03,164.98-30.95,168.15-23.65,168.01z"/>
		<path class="st16" d="M218.15,302.15c-0.2,4.62,4.78,5.47,9.38,3.93c2.43-0.81,5.7,3.72,7.11,3.62
			c4.29-0.31,8.21-17.54,8.21-17.54s-12.69,8.39-14.06,8.81C222.29,302.96,218.23,300.31,218.15,302.15z"/>
		<path class="st16" d="M224.26,317.65c0.09,3.89,8.81,1.71,10.94,0.72c2.04-0.95,6.11-6.39,7-8.37c0.81-1.81-5.62-1.46-5.62-1.46
			s-4.74,5.27-5.38,5.92C230.55,315.12,224.18,314.07,224.26,317.65z"/>
		<path class="st16" d="M231.92,316.83c0.96,2.77,9.55-2.6,11.63-3.59c1.3-0.61,2.79-4.2,4.08-6.66c0.07-1.53-7.37-0.04-7.37-0.04
			s-2.8,4.92-3.23,5.58C236.57,312.83,231.1,313.15,231.92,316.83z"/>
		<path class="st16" d="M216.03,317.5c-0.62,3.84,9.14,1.73,11.41,1.17c2.18-0.54,7.3-3.25,8.54-5.02c2.82-4.33-2.4-5.23-2.4-5.23
			s-4.49,4.71-8.71,5.92C224.1,314.87,216.61,313.97,216.03,317.5z"/>
		<path class="st3" d="M128.78,257.29c-0.4-15.99,0.79-25.83,7.56-34.03c6.77-8.2,40.75-19.58,59.68-4.51
			c8.75,6.97,11.14,27.88,11.14,27.88L128.78,257.29z"/>
		<polygon class="st18" points="129.97,151.11 143.5,216.29 154.64,212.19 136.34,149.47 		"/>
		<path class="st22" d="M76.37,545.09c-2.65-2.63-15.77-2.63-17.86,0c-2.09,2.62-1.64,6.88,1.01,9.51c2.65,2.63,15.77,2.63,17.86,0
			C79.47,551.98,79.01,547.72,76.37,545.09z"/>
		<g>
			<path class="st23" d="M125.56,153.65l-6.02,0.54l-4.57-29.09l-37.82,2.35l-3.11,28.04c-4.12-0.85-8.83-0.91-14.21-0.01
				c-7.22,1.2-13.33,4.21-18.52,8.55C59.89,176.59,77.05,182.75,125.56,153.65z"/>
		</g>
		<path class="st24" d="M61.06,104.82c7.4,6.26,11.53,0.39,10.01-3.25c-1.52-3.64,0.01-10.82,2.95-11.59
			c2.95-0.76,6.16-38.86,2.66-40.37c-3.5-1.5-21.04-2.28-14.91,29.42C64.47,92.98,51.57,96.8,61.06,104.82z"/>
		<path class="st25" d="M60.44,128.54c2.88,5.94,25.88,22.56,62.28,1.57c7.6-4.38,4.46-24.66,5.47-28.18
			c3.34-11.59,9.11-31.31-1.52-38.51c9.52,6.45-68.9-51.18-61.37,13.77C68.13,101.53,56.8,121.03,60.44,128.54z"/>
		<path class="st16" d="M63.88,125.66c2.72,5.61,25.21,23.29,59.6,3.45c7.18-4.14,3.46-25.27,4.41-28.59
			c3.16-10.95,8.61-29.58-1.43-36.38c10.11,6.84-65.33-50.35-57.98,13.01C71.14,100.14,60.44,118.56,63.88,125.66z"/>
		<path class="st25" d="M87.93,140.4c1.13-17.22-5.76-35.18,1.84-66.18c6.38,22.85,27.07,6.37,28.54,4.16
			c10.94-16.43,3.42-34.02-15.62-32.06c-32.67-8.5-39.15,15.66-37.38,30.87c2.82,24.33-8.51,43.83-4.86,51.35
			C62.25,132.27,71.97,140.18,87.93,140.4z"/>
		<path class="st2" d="M115.89,100.91c0.91,4.15,8.19,10.21,7.14,1.8c-0.47-3.76,6.81-11.47,9.61-10.98
			c2.74,0.48,4.31-8.72,1.59-11.36c-2.78-2.69-16.3-20.34-10.14-1.06C128.51,93.15,114.4,94.15,115.89,100.91z"/>
		<path class="st16" d="M123.86,94.34c9.11-7.63,11.72,0.69,9.89,6.88c-1.83,6.17-4.59,8.99-8.68,7.85
			C121.22,107.99,123.86,94.34,123.86,94.34z"/>
		<path class="st26" d="M70.57,100.21l-1.31,15.18c0,0,18.81,6.57,42.2-0.88l1.88-15.24L70.57,100.21z"/>
		<path class="st16" d="M92.42,88.24c-6.83,4.7-13.67,5.4-15.27,0c0-3.29,12.99-14.32,12.99-14.32L92.42,88.24z"/>
		<polygon class="st2" points="122.71,70.8 97.06,68.99 96.72,73.92 118.5,77.84 		"/>
		<polygon class="st2" points="61.7,71.01 84.24,69.4 84.66,74.31 65.57,78.07 		"/>
		<path class="st16" d="M90.37,123.59c-10.03-0.71-22.56-7.28-0.91-5.17L90.37,123.59z"/>
		<path class="st16" d="M95.72,138.05c-9.83,2.42-25.78-4.51-4.18-8.71L95.72,138.05z"/>
		<path class="st27" d="M101.76,79.84c0.32,4.91,3.97,7.71,4.6-0.23C106.71,75.18,101.46,75.22,101.76,79.84z"/>
		<path class="st27" d="M72.56,80.46c-0.49,6.34,4.69,8.41,4.56-0.06C77.04,75.68,72.78,77.56,72.56,80.46z"/>
		<path class="st25" d="M124.88,95.89c6.01-5.04,7.72,0.46,6.52,4.53c-1.2,4.08-3.03,5.93-5.73,5.18
			C123.13,104.9,124.88,95.89,124.88,95.89z"/>
		<polygon class="st28" points="110.48,106.97 110.88,99.34 113.34,99.27 111.45,114.51 		"/>
		<polygon class="st28" points="71.23,111.35 72.14,100.06 70.57,100.21 69.26,115.39 		"/>
		<path class="st4" d="M155.97,215.59c11.6-4.95,40.6-8.17,46.31,23.53C202.29,239.13,146.77,219.52,155.97,215.59z"/>
		<path class="st4" d="M151.22,247.3c-4.43,3.91,45.04-0.98,49.17-4.58C204.51,239.13,155.66,243.38,151.22,247.3z"/>
		<polygon class="st29" points="84.82,329.16 75.04,328.11 74.55,332.98 84.33,334.03 		"/>
		<path class="st16" d="M-30.87,166.4c0-1.71-2.91-3.1-6.5-3.1s-6.5,1.39-6.5,3.1c0,1.72,2.91,3.11,6.5,3.11
			S-30.87,168.11-30.87,166.4z"/>
		<path class="st16" d="M-32.51,160.35c0.09-1.71-2.8-3.26-6.46-3.47c-3.66-0.2-6.7,1.02-6.79,2.74c-0.09,1.71,2.8,3.26,6.46,3.47
			C-35.64,163.28-32.6,162.06-32.51,160.35z"/>
		<path class="st16" d="M-33.51,155.14c0.32-1.68-2.3-3.64-5.87-4.37c-3.57-0.73-6.72,0.04-7.05,1.72c-0.32,1.68,2.3,3.64,5.87,4.37
			C-36.99,157.59-33.83,156.82-33.51,155.14z"/>
		<path class="st30" d="M-11.02,223.68c3.18,6.75,9.6,35.71-4.38,33.34C-29.38,254.66-15.84,230.4-11.02,223.68z"/>
		<polygon class="st20" points="201.23,250.63 139.97,258.52 140.06,262.11 201.32,254.22 		"/>
		<polygon class="st7" points="133.7,259.19 132.82,270.57 140.22,268.21 136.19,257.61 		"/>
		<path class="st4" d="M214.9,308.59c-1.89,4.29-17.13,10.79-22.84,8.82c-5.71-1.96,13.08-27.95,18.32-26.48
			C215.61,292.41,217.28,303.19,214.9,308.59z"/>
		<polygon class="st10" points="106.88,210.77 126.63,209.79 115.21,217.39 		"/>
		<path class="st5" d="M206.81,567.47c-5.95,2.45-15.23,8.33,5.71,4.66L206.81,567.47z"/>
		<path class="st5" d="M201.81,563.06c-5.95,2.45-15.23,8.33,5.71,4.66L201.81,563.06z"/>
		<path class="st5" d="M199.47,558.6c-6.29,1.27-16.47,5.26,4.77,5.67L199.47,558.6z"/>
		<rect x="15.29" y="580.96" class="st6" width="69.95" height="3.68"/>
		<path class="st6" d="M42.65,573.6c9.75,2.94,17.1-0.85,7.85-1.72C45.26,571.39,42.65,573.6,42.65,573.6z"/>
		<path class="st6" d="M49.31,570.17c9.75,2.94,17.1-0.85,7.85-1.72C51.93,567.96,49.31,570.17,49.31,570.17z"/>
		<path class="st6" d="M53.59,566.49c9.75,2.94,17.1-0.85,7.85-1.72C56.21,564.29,53.59,566.49,53.59,566.49z"/>
		<path class="st30" d="M216.89,225.62c-0.34-14.04,6.47-31.94,14.31-23.52S231.87,223.51,216.89,225.62z"/>
		<path class="st20" d="M214.18,224.75c0,0,10.23-13.48,11.18-12.26c0.95,1.23-9.04,16.67-9.04,16.67L214.18,224.75z"/>
		<path class="st20" d="M-12.79,226.34c-3.03,11.86-0.59,24.88,3.21,1.35C-9.57,227.69-11,219.35-12.79,226.34z"/>
		<path class="st16" d="M-29.56,185.77c0,0,0.12-9.44,5.91-17.76c0,0-0.44,15.92,0.87,20.7L-29.56,185.77z"/>
		<path class="st2" d="M124.26,74.77c-3.17-5.56-7.3-12.42-8.25-20.59c-1.8-15.41-41.54-0.38-43.46,0
			c-6.66,1.31-17.97-0.23-17.13-11.77c0.95-13.07,29.82-8.5,35.85-6.54c6.03,1.96,17.97,0.57,24.74,0.98
			c16.18,0.98,28.23,23.54,21.89,30.4s5.08,16.02-1.9,22.55C130.83,94.65,124.26,74.77,124.26,74.77z"/>
		<defs>
			<filter id="Adobe_OpacityMaskFilter" filterUnits="userSpaceOnUse" x="-47.92" y="33.48" width="308.55" height="551.16">
				<feFlood  style="flood-color:white;flood-opacity:1" result="back"/>
				<feBlend  in="SourceGraphic" in2="back" mode="normal"/>
			</filter>
		</defs>
		
			<mask maskUnits="userSpaceOnUse" x="-47.92" y="33.48" width="308.55" height="551.16" id="SVGID_00000021096682789505699130000004001445701586412986_">
			<g class="st31">
				<defs>
					
						<filter id="Adobe_OpacityMaskFilter_00000054254220909915157270000015505869019103632292_" filterUnits="userSpaceOnUse" x="-47.92" y="33.48" width="308.55" height="551.16">
						<feFlood  style="flood-color:white;flood-opacity:1" result="back"/>
						<feBlend  in="SourceGraphic" in2="back" mode="normal"/>
					</filter>
				</defs>
				
					<mask maskUnits="userSpaceOnUse" x="-47.92" y="33.48" width="308.55" height="551.16" id="SVGID_00000021096682789505699130000004001445701586412986_">
					<g style="filter:url(#Adobe_OpacityMaskFilter_00000054254220909915157270000015505869019103632292_);">
					</g>
				</mask>
				
					<linearGradient id="SVGID_00000151529276767728000160000017413169126247614641_" gradientUnits="userSpaceOnUse" x1="110.3502" y1="100.0673" x2="106.0281" y2="240.5517">
					<stop  offset="5.376340e-03" style="stop-color:#4D4D4D"/>
					<stop  offset="0.1468" style="stop-color:#6D6D6D"/>
					<stop  offset="0.4435" style="stop-color:#ABABAB"/>
					<stop  offset="0.6949" style="stop-color:#D9D9D9"/>
					<stop  offset="0.8881" style="stop-color:#F5F5F5"/>
					<stop  offset="1" style="stop-color:#FFFFFF"/>
				</linearGradient>
				
					<path style="mask:url(#SVGID_00000021096682789505699130000004001445701586412986_);fill:url(#SVGID_00000151529276767728000160000017413169126247614641_);" d="
					M251.68,248.45c0.18-15.38-2.72-29.32-16.01-34.49c0.86-4.58-0.34-9.29-4.03-13.26c-3.11-3.35-6.1-3.57-8.76-1.76
					c-12.77-18.35-47.44-35.15-61.68-40.82c-1.94-1.78-4.05-3.3-6.33-4.49c-5.13-2.75-11.14-3.79-18.11-2.71l-0.42-1.45l-6.36,1.64
					l0.28,1.36c-0.95,0.3-1.92,0.64-2.91,1.01l-7.8,0.7l-3-19.12c8.29,3.01,14.49-5.58,14.63-9.22c0.15-3.82,0.47-10.5,2.74-14.04
					c2.21-3.45,7.46-9.57,2.95-16.29c-1.36-2.03-1.57-3.74-1.42-5.3c0.19-0.11,0.37-0.24,0.55-0.41c6.98-6.54-4.44-15.69,1.9-22.55
					s-5.71-29.42-21.89-30.4c-6.77-0.41-18.72,0.98-24.74-0.98c-6.03-1.96-34.9-6.54-35.85,6.54c-0.52,7.08,3.55,10.38,8.3,11.59
					c-2.95,4.22-4.52,11.78-1.96,25.02c2.7,13.96-10.2,17.78-0.71,25.8c0.75,0.63,1.46,1.11,2.14,1.51
					c-2.21,10.25-4.77,18.06-2.75,22.21c0.1,0.21,0.24,0.44,0.39,0.68c0.05,0.07,0.1,0.14,0.15,0.22c0.12,0.18,0.26,0.36,0.4,0.54
					c0.07,0.09,0.14,0.17,0.21,0.26c0.17,0.2,0.35,0.4,0.54,0.6c0.07,0.07,0.13,0.15,0.21,0.22c0.56,0.57,1.22,1.16,1.98,1.77
					c0.08,0.07,0.17,0.13,0.25,0.19c0.31,0.24,0.64,0.48,0.99,0.73c0.1,0.07,0.21,0.14,0.31,0.21c0.38,0.26,0.78,0.52,1.2,0.78
					c0.07,0.04,0.13,0.08,0.2,0.13c1.01,0.61,2.13,1.21,3.35,1.78c0.08,0.04,0.16,0.07,0.24,0.11c0.53,0.24,1.08,0.48,1.65,0.7
					c0.11,0.05,0.22,0.09,0.34,0.13c0.61,0.23,1.24,0.46,1.89,0.68c0.05,0.02,0.09,0.03,0.14,0.05c0.34,0.11,0.68,0.21,1.03,0.31
					l-1.87,16.85c-0.01,0-0.02,0-0.03,0c-0.95-0.2-1.93-0.34-2.94-0.45c-0.2-0.02-0.4-0.03-0.6-0.05c-0.84-0.07-1.69-0.12-2.58-0.13
					c-0.29-0.01-0.58-0.01-0.88-0.01c-0.84,0.01-1.71,0.05-2.59,0.11c-0.31,0.02-0.62,0.03-0.93,0.06
					c-1.18,0.11-2.39,0.25-3.65,0.46c-0.88,0.15-1.74,0.32-2.59,0.52c-0.23,0.05-0.44,0.12-0.67,0.18
					c-0.62,0.16-1.25,0.32-1.85,0.51c-0.21,0.07-0.42,0.15-0.63,0.22c-0.61,0.2-1.22,0.4-1.81,0.63c-0.17,0.07-0.34,0.14-0.51,0.21
					c-0.63,0.25-1.25,0.51-1.86,0.79c-0.12,0.06-0.24,0.12-0.37,0.18c-0.65,0.31-1.3,0.64-1.93,0.98c-0.07,0.04-0.14,0.08-0.21,0.12
					c-0.68,0.38-1.35,0.78-2.01,1.2c-0.02,0.01-0.03,0.02-0.05,0.04c-3.37,2.16-6.39,4.84-9.1,7.94
					c-14.3,9.54-31.51,28.63-46.05,56.24c-0.42-1.23-0.84-2.28-1.22-3.08c-0.93,1.3-2.12,3.11-3.4,5.26
					c-1.82-12.63-5.63-27.55-8.8-41.03c-0.52-4.17-0.55-10.91-0.51-14.97c1.62-4.89,3.13-10.94,1.86-15.45
					c-0.11-2.23-0.47-4.36-1.26-6.09c-2.36-5.18-3.8-9.76-1.16-13.93c2.65-4.17-8.31-2.69-6.97,5.01c0.56,3.23,0.41,6.34,0.06,8.86
					c-2.62-0.08-5.58,0.08-8.42-0.46c-7.79-1.46-11.93,5.45-4.24,7.82c0,0-3.01,0-3.46,2.76c-0.2,1.22,0.85,2.84,4.13,3.45
					c0,0-2.12,0.57-2.23,2.99c-0.09,1.86,2.85,4.16,6.25,4.6c3.14,0.4,4.16,3.54,4.47,6.08c-2.55,23.05-19.43,77.9,10.16,79.6
					c0.03,0,0.06,0,0.09,0c0.45,4.26,2.68,7.42,7.8,8.28c6.2,1.05,9.27-2.71,10.47-8.43c4.82-1.45,12.31-4.05,20.71-8.28
					c-0.5,21.55,1.62,40.15,3.35,46.87c2.14,8.25,10.02,11.43,18.2,12.39c1.36,0.56,2.81,0.99,4.3,1.34
					c0.07,0.31,0.15,0.63,0.22,0.95c0.17,0.71,0.33,1.42,0.5,2.14c0.59,2.44,1.19,4.88,1.85,7.36c0.22,0.06,0.43,0.11,0.65,0.17
					c-2.73,31.21-2.48,88.02,14.01,224.27c-1.4,0.42-2.48,0.98-3,1.67c-2.67,3.54-2.09,9.28,1.29,12.82
					c0.6,0.63,1.65,1.15,2.95,1.55c-0.02,0.04-0.03,0.08-0.05,0.11c-1.02,2.5-2.66,4.55-4.7,6.26c-0.35,0.21-0.53,0.36-0.53,0.36
					c0.03,0.01,0.05,0.01,0.08,0.02c-10.66,8.45-31.52,8.38-36.51,14.44h-1.88v3.68h69.95v-3.68h-1.69
					c-1.52-5.73-3.76-14.53-6.11-21.78c0.54-0.29,1-0.61,1.27-0.97c2.67-3.54,2.09-9.28-1.29-12.82c-0.68-0.71-1.9-1.27-3.43-1.69
					c-4.52-41.58-16.97-181.87,19.49-191.47c2.3-0.61,4.62-0.54,6.95,0.06h0c33.4,8.6,69.33,133.98,81.65,180.8
					c0.01,0.04,0.02,0.07,0.03,0.11c0.22,0.82,0.43,1.62,0.63,2.39c0.03,0.1,0.05,0.21,0.08,0.31c0.19,0.74,0.38,1.45,0.56,2.15
					c0.03,0.09,0.05,0.19,0.07,0.28c0.17,0.67,0.34,1.31,0.5,1.93c0.03,0.12,0.06,0.23,0.09,0.35c0.15,0.6,0.3,1.18,0.44,1.73
					c0.03,0.11,0.05,0.21,0.08,0.32c0.01,0.04,0.02,0.09,0.03,0.13c-1.02,0.34-1.81,0.76-2.22,1.28c-2.41,3.06-1.89,8,1.17,11.06
					c0.47,0.47,1.24,0.86,2.19,1.18c-0.51,3.77-0.92,8.21-1.28,12.52c-0.47,3.95-0.87,7.81-1.23,10.95l-2.82-0.04v4.9h64l-0.24-3.92
					l-2.72-0.04c-4.78-7.74-32.92-5.94-39.39-21.04c-0.45-1.04-0.88-2-1.31-2.88c1.6-0.38,2.85-0.92,3.41-1.62
					c2.41-3.06,1.89-8-1.16-11.06c-1.03-1.03-3.46-1.71-6.29-2.04l-41.85-211.86c0.08,0.04,0.16,0.1,0.24,0.14
					c2.72,1.33,6.97,2.01,12.22,2.19c39.88,4.16,88.44-15.52,92.44-20.81C262.69,307.78,257.92,272.7,251.68,248.45z"/>
			</g>
		</mask>
		
			<linearGradient id="SVGID_00000048481467063893049480000004811736065636689797_" gradientUnits="userSpaceOnUse" x1="110.3502" y1="100.0673" x2="106.0281" y2="240.5517">
			<stop  offset="5.376340e-03" style="stop-color:#FFD27A"/>
			<stop  offset="0.2468" style="stop-color:#D7926E"/>
			<stop  offset="0.5085" style="stop-color:#B05463"/>
			<stop  offset="0.7305" style="stop-color:#94265A"/>
			<stop  offset="0.9012" style="stop-color:#830A55"/>
			<stop  offset="1" style="stop-color:#7C0053"/>
		</linearGradient>
		<path style="opacity:0.6;fill:url(#SVGID_00000048481467063893049480000004811736065636689797_);" d="M251.68,248.45
			c0.18-15.38-2.72-29.32-16.01-34.49c0.86-4.58-0.34-9.29-4.03-13.26c-3.11-3.35-6.1-3.57-8.76-1.76
			c-12.77-18.35-47.44-35.15-61.68-40.82c-1.94-1.78-4.05-3.3-6.33-4.49c-5.13-2.75-11.14-3.79-18.11-2.71l-0.42-1.45l-6.36,1.64
			l0.28,1.36c-0.95,0.3-1.92,0.64-2.91,1.01l-7.8,0.7l-3-19.12c8.29,3.01,14.49-5.58,14.63-9.22c0.15-3.82,0.47-10.5,2.74-14.04
			c2.21-3.45,7.46-9.57,2.95-16.29c-1.36-2.03-1.57-3.74-1.42-5.3c0.19-0.11,0.37-0.24,0.55-0.41c6.98-6.54-4.44-15.69,1.9-22.55
			s-5.71-29.42-21.89-30.4c-6.77-0.41-18.72,0.98-24.74-0.98c-6.03-1.96-34.9-6.54-35.85,6.54c-0.52,7.08,3.55,10.38,8.3,11.59
			c-2.95,4.22-4.52,11.78-1.96,25.02c2.7,13.96-10.2,17.78-0.71,25.8c0.75,0.63,1.46,1.11,2.14,1.51
			c-2.21,10.25-4.77,18.06-2.75,22.21c0.1,0.21,0.24,0.44,0.39,0.68c0.05,0.07,0.1,0.14,0.15,0.22c0.12,0.18,0.26,0.36,0.4,0.54
			c0.07,0.09,0.14,0.17,0.21,0.26c0.17,0.2,0.35,0.4,0.54,0.6c0.07,0.07,0.13,0.15,0.21,0.22c0.56,0.57,1.22,1.16,1.98,1.77
			c0.08,0.07,0.17,0.13,0.25,0.19c0.31,0.24,0.64,0.48,0.99,0.73c0.1,0.07,0.21,0.14,0.31,0.21c0.38,0.26,0.78,0.52,1.2,0.78
			c0.07,0.04,0.13,0.08,0.2,0.13c1.01,0.61,2.13,1.21,3.35,1.78c0.08,0.04,0.16,0.07,0.24,0.11c0.53,0.24,1.08,0.48,1.65,0.7
			c0.11,0.05,0.22,0.09,0.34,0.13c0.61,0.23,1.24,0.46,1.89,0.68c0.05,0.02,0.09,0.03,0.14,0.05c0.34,0.11,0.68,0.21,1.03,0.31
			l-1.87,16.85c-0.01,0-0.02,0-0.03,0c-0.95-0.2-1.93-0.34-2.94-0.45c-0.2-0.02-0.4-0.03-0.6-0.05c-0.84-0.07-1.69-0.12-2.58-0.13
			c-0.29-0.01-0.58-0.01-0.88-0.01c-0.84,0.01-1.71,0.05-2.59,0.11c-0.31,0.02-0.62,0.03-0.93,0.06c-1.18,0.11-2.39,0.25-3.65,0.46
			c-0.88,0.15-1.74,0.32-2.59,0.52c-0.23,0.05-0.44,0.12-0.67,0.18c-0.62,0.16-1.25,0.32-1.85,0.51c-0.21,0.07-0.42,0.15-0.63,0.22
			c-0.61,0.2-1.22,0.4-1.81,0.63c-0.17,0.07-0.34,0.14-0.51,0.21c-0.63,0.25-1.25,0.51-1.86,0.79c-0.12,0.06-0.24,0.12-0.37,0.18
			c-0.65,0.31-1.3,0.64-1.93,0.98c-0.07,0.04-0.14,0.08-0.21,0.12c-0.68,0.38-1.35,0.78-2.01,1.2c-0.02,0.01-0.03,0.02-0.05,0.04
			c-3.37,2.16-6.39,4.84-9.1,7.94c-14.3,9.54-31.51,28.63-46.05,56.24c-0.42-1.23-0.84-2.28-1.22-3.08c-0.93,1.3-2.12,3.11-3.4,5.26
			c-1.82-12.63-5.63-27.55-8.8-41.03c-0.52-4.17-0.55-10.91-0.51-14.97c1.62-4.89,3.13-10.94,1.86-15.45
			c-0.11-2.23-0.47-4.36-1.26-6.09c-2.36-5.18-3.8-9.76-1.16-13.93c2.65-4.17-8.31-2.69-6.97,5.01c0.56,3.23,0.41,6.34,0.06,8.86
			c-2.62-0.08-5.58,0.08-8.42-0.46c-7.79-1.46-11.93,5.45-4.24,7.82c0,0-3.01,0-3.46,2.76c-0.2,1.22,0.85,2.84,4.13,3.45
			c0,0-2.12,0.57-2.23,2.99c-0.09,1.86,2.85,4.16,6.25,4.6c3.14,0.4,4.16,3.54,4.47,6.08c-2.55,23.05-19.43,77.9,10.16,79.6
			c0.03,0,0.06,0,0.09,0c0.45,4.26,2.68,7.42,7.8,8.28c6.2,1.05,9.27-2.71,10.47-8.43c4.82-1.45,12.31-4.05,20.71-8.28
			c-0.5,21.55,1.62,40.15,3.35,46.87c2.14,8.25,10.02,11.43,18.2,12.39c1.36,0.56,2.81,0.99,4.3,1.34c0.07,0.31,0.15,0.63,0.22,0.95
			c0.17,0.71,0.33,1.42,0.5,2.14c0.59,2.44,1.19,4.88,1.85,7.36c0.22,0.06,0.43,0.11,0.65,0.17c-2.73,31.21-2.48,88.02,14.01,224.27
			c-1.4,0.42-2.48,0.98-3,1.67c-2.67,3.54-2.09,9.28,1.29,12.82c0.6,0.63,1.65,1.15,2.95,1.55c-0.02,0.04-0.03,0.08-0.05,0.11
			c-1.02,2.5-2.66,4.55-4.7,6.26c-0.35,0.21-0.53,0.36-0.53,0.36c0.03,0.01,0.05,0.01,0.08,0.02c-10.66,8.45-31.52,8.38-36.51,14.44
			h-1.88v3.68h69.95v-3.68h-1.69c-1.52-5.73-3.76-14.53-6.11-21.78c0.54-0.29,1-0.61,1.27-0.97c2.67-3.54,2.09-9.28-1.29-12.82
			c-0.68-0.71-1.9-1.27-3.43-1.69c-4.52-41.58-16.97-181.87,19.49-191.47c2.3-0.61,4.62-0.54,6.95,0.06h0
			c33.4,8.6,69.33,133.98,81.65,180.8c0.01,0.04,0.02,0.07,0.03,0.11c0.22,0.82,0.43,1.62,0.63,2.39c0.03,0.1,0.05,0.21,0.08,0.31
			c0.19,0.74,0.38,1.45,0.56,2.15c0.03,0.09,0.05,0.19,0.07,0.28c0.17,0.67,0.34,1.31,0.5,1.93c0.03,0.12,0.06,0.23,0.09,0.35
			c0.15,0.6,0.3,1.18,0.44,1.73c0.03,0.11,0.05,0.21,0.08,0.32c0.01,0.04,0.02,0.09,0.03,0.13c-1.02,0.34-1.81,0.76-2.22,1.28
			c-2.41,3.06-1.89,8,1.17,11.06c0.47,0.47,1.24,0.86,2.19,1.18c-0.51,3.77-0.92,8.21-1.28,12.52c-0.47,3.95-0.87,7.81-1.23,10.95
			l-2.82-0.04v4.9h64l-0.24-3.92l-2.72-0.04c-4.78-7.74-32.92-5.94-39.39-21.04c-0.45-1.04-0.88-2-1.31-2.88
			c1.6-0.38,2.85-0.92,3.41-1.62c2.41-3.06,1.89-8-1.16-11.06c-1.03-1.03-3.46-1.71-6.29-2.04l-41.85-211.86
			c0.08,0.04,0.16,0.1,0.24,0.14c2.72,1.33,6.97,2.01,12.22,2.19c39.88,4.16,88.44-15.52,92.44-20.81
			C262.69,307.78,257.92,272.7,251.68,248.45z"/>
	</g>
</g>
</svg>
