<svg width="877" height="273" viewBox="0 0 877 273" fill="none" xmlns="http://www.w3.org/2000/svg">
<path d="M220.217 229.217C202.176 247.258 179.19 259.544 154.167 264.521C129.143 269.499 103.206 266.944 79.6338 257.18C56.0622 247.417 35.9151 230.883 21.7404 209.669C7.56572 188.455 1.57136e-06 163.514 0 138C-1.57136e-06 112.486 7.56571 87.5454 21.7404 66.3314C35.9151 45.1175 56.0622 28.5833 79.6338 18.8195C103.205 9.05584 129.143 6.50121 154.167 11.4787C179.19 16.4562 202.176 28.7422 220.217 46.7832L192.47 74.5297C179.917 61.9764 163.923 53.4276 146.511 49.9641C129.1 46.5007 111.052 48.2783 94.6501 55.072C78.2485 61.8658 64.2298 73.3706 54.3668 88.1317C44.5038 102.893 39.2394 120.247 39.2394 138C39.2394 155.753 44.5038 173.107 54.3668 187.868C64.2298 202.629 78.2485 214.134 94.6501 220.928C111.052 227.722 129.1 229.499 146.511 226.036C163.923 222.572 179.917 214.024 192.47 201.47L220.217 229.217Z" fill="#D32E2F"/>
<path d="M367.471 253.004C352.76 261.843 335.986 266.663 318.827 266.983C301.668 267.303 284.725 263.111 269.695 254.827C254.665 246.543 242.074 234.457 233.181 219.778C224.289 205.099 219.407 188.343 219.024 171.185C218.642 154.027 222.772 137.07 231.001 122.009C239.23 106.949 251.27 94.3136 265.916 85.3675C280.562 76.4215 297.3 71.4785 314.456 71.033C331.613 70.5876 348.585 74.6553 363.676 82.8293L349.814 108.419C339.205 102.673 327.273 99.8128 315.212 100.126C303.15 100.439 291.383 103.914 281.086 110.204C270.789 116.493 262.325 125.376 256.54 135.964C250.754 146.552 247.851 158.474 248.12 170.536C248.389 182.599 251.821 194.379 258.073 204.699C264.324 215.018 273.176 223.515 283.743 229.339C294.31 235.163 306.221 238.11 318.284 237.885C330.348 237.66 342.14 234.271 352.483 228.058L367.471 253.004Z" fill="#FAEC3A"/>
<path d="M866.219 213.687C858.87 228.03 848.097 240.34 834.855 249.525C821.612 258.71 806.309 264.488 790.3 266.346C774.292 268.205 758.072 266.086 743.077 260.179C728.083 254.271 714.777 244.757 704.338 232.479C693.898 220.2 686.649 205.537 683.23 189.787C679.812 174.038 680.33 157.688 684.739 142.187C689.149 126.686 697.313 112.511 708.509 100.919C719.705 89.3267 733.587 80.6745 748.926 75.7287L757.857 103.427C747.073 106.904 737.314 112.987 729.442 121.137C721.571 129.287 715.832 139.252 712.732 150.15C709.632 161.048 709.267 172.542 711.671 183.614C714.074 194.687 719.171 204.995 726.51 213.627C733.849 222.26 743.203 228.948 753.745 233.102C764.287 237.255 775.69 238.744 786.944 237.438C798.199 236.131 808.958 232.069 818.268 225.612C827.577 219.154 835.151 210.5 840.318 200.416L866.219 213.687Z" fill="#EB592D"/>
<path d="M525.529 84.9959C540.24 76.1573 557.014 71.3369 574.173 71.017C591.332 70.6971 608.275 74.889 623.305 83.1732C638.335 91.4573 650.926 103.543 659.819 118.222C668.711 132.901 673.593 149.657 673.976 166.815C674.358 183.973 670.228 200.93 661.999 215.991C653.77 231.051 641.73 243.686 627.084 252.632C612.438 261.578 595.7 266.522 578.544 266.967C561.387 267.412 544.415 263.345 529.324 255.171L543.186 229.581C553.795 235.327 565.727 238.187 577.788 237.874C589.85 237.561 601.617 234.086 611.914 227.796C622.211 221.507 630.675 212.624 636.46 202.036C642.246 191.448 645.149 179.526 644.88 167.464C644.611 155.401 641.179 143.621 634.927 133.301C628.676 122.982 619.824 114.485 609.257 108.661C598.69 102.837 586.779 99.8898 574.716 100.115C562.652 100.34 550.86 103.729 540.517 109.942L525.529 84.9959Z" fill="#F49617"/>
<path d="M314.951 125.773C321.371 138.835 324.801 153.163 324.992 167.716C325.182 182.269 322.129 196.682 316.054 209.908L292.07 198.891C296.509 189.227 298.74 178.696 298.601 168.062C298.462 157.428 295.956 146.959 291.265 137.415L314.951 125.773Z" fill="#FAEC3A"/>
<path d="M578.049 212.227C571.629 199.165 568.199 184.837 568.008 170.284C567.818 155.731 570.871 141.318 576.946 128.092L600.93 139.109C596.491 148.773 594.26 159.304 594.399 169.938C594.538 180.572 597.044 191.041 601.735 200.585L578.049 212.227Z" fill="#F49617"/>
<path d="M410.525 265.552C389.575 256.882 372.28 241.216 361.586 221.224C350.892 201.231 347.461 178.149 351.877 155.911C356.294 133.672 368.284 113.653 385.806 99.2641C403.328 84.8753 425.297 77.007 447.97 77C470.643 76.993 492.616 84.8477 510.147 99.2258C527.678 113.604 539.681 133.616 544.111 155.852C548.541 178.087 545.124 201.171 534.443 221.17C523.761 241.169 506.475 256.846 485.531 265.529L474.385 238.645C489.11 232.54 501.262 221.519 508.772 207.459C516.282 193.399 518.684 177.171 515.569 161.538C512.455 145.906 504.016 131.837 491.692 121.728C479.367 111.62 463.919 106.098 447.979 106.103C432.039 106.108 416.594 111.639 404.276 121.755C391.957 131.871 383.527 145.945 380.422 161.58C377.318 177.214 379.73 193.441 387.248 207.497C394.766 221.552 406.926 232.566 421.654 238.661L410.525 265.552Z" fill="#49AF50"/>
<path d="M490.459 186.325C477.341 192.631 462.984 195.935 448.429 195.999C433.875 196.063 419.489 192.884 406.317 186.694L417.543 162.807C427.168 167.33 437.679 169.653 448.314 169.607C458.948 169.56 469.439 167.145 479.024 162.538L490.459 186.325Z" fill="#49AF50"/>
</svg>
