<svg width="999" height="371" viewBox="0 0 999 371" fill="none" xmlns="http://www.w3.org/2000/svg">
<g filter="url(#filter0_d_105_3493)">
<path d="M313.84 309.84C288.457 335.223 256.116 352.509 220.909 359.513C185.701 366.516 149.208 362.921 116.043 349.184C82.8782 335.447 54.5317 312.184 34.5883 282.336C14.6448 252.488 4 217.397 4 181.5C4 145.603 14.6448 110.512 34.5883 80.664C54.5317 50.8165 82.8782 27.5532 116.043 13.8159C149.208 0.0785637 185.701 -3.51575 220.909 3.48747C256.116 10.4907 288.457 27.7769 313.84 53.1601L271.38 95.6195C254.395 78.6339 232.754 67.0666 209.194 62.3803C185.635 57.694 161.214 60.0992 139.022 69.2917C116.829 78.4843 97.8607 94.0512 84.5152 114.024C71.1698 133.997 64.0466 157.479 64.0466 181.5C64.0466 205.521 71.1698 229.003 84.5152 248.976C97.8607 268.949 116.829 284.516 139.022 293.708C161.215 302.901 185.635 305.306 209.194 300.62C232.754 295.933 254.395 284.366 271.38 267.38L313.84 309.84Z" fill="black"/>
</g>
<g filter="url(#filter1_d_105_3493)">
<path fill-rule="evenodd" clip-rule="evenodd" d="M925.593 130.23L874.292 98.5443V220.761V266.027H925.593H995V220.761H925.593V130.23Z" fill="#49AF50"/>
</g>
<g clip-path="url(#clip0_105_3493)" filter="url(#filter2_d_105_3493)">
<path d="M193.855 173.968L193.759 174.334L193.567 174.372H193.125L193.49 174.7L193.586 174.892L193.567 175.162L193.355 175.046L193.125 174.969L192.914 174.989L192.703 175.162L192.971 175.374L193.202 175.624L193.375 175.932L193.471 176.279V176.472L193.375 176.683L193.355 176.78V177.357L193.432 177.685L193.72 178.108L193.797 178.359L193.72 178.609L193.605 178.898L193.547 179.206L193.682 179.534L193.547 179.88L193.567 180.169L193.605 180.458L193.567 180.785L193.221 181.228L193.202 181.421L193.567 181.44L193.279 181.922L193.24 182.076L193.279 182.21L193.432 182.403L193.471 182.576L193.432 182.807L192.952 183.944L192.914 184.04L192.837 184.483L192.683 184.637L192.319 184.887L192.184 185.061L192.05 185.292L191.935 185.561L191.896 185.831L191.954 186.062L192.088 186.197L192.338 186.312L192.395 186.466L192.338 186.582L191.781 187.526L191.704 187.892L191.512 188.219L191.493 188.411L191.57 188.566L191.8 188.854L191.896 189.008L191.935 189.163L191.973 189.471L192.319 190.799L192.53 191.185L194.008 192.802L194.392 192.995L194.738 193.13L194.891 193.207L195.045 193.322L196.043 194.381L196.274 194.574L197.195 195.113L197.618 195.248L197.771 195.325L198.29 195.749L199.634 197.289L200.344 197.886L200.517 198.117L200.651 198.541L200.786 198.792L200.863 199.119L200.767 199.427L200.651 199.735L200.114 199.793L199.941 199.735H199.807L199.461 199.831H199.307L199 199.793L198.847 199.812L198.674 199.87L198.079 200.274L197.963 200.39L197.887 200.583V200.756L197.906 201.141L197.81 201.449L195.314 205.185L194.987 205.59L193.701 206.899L193.355 207.188L193.125 207.458L193.029 207.92L193.106 208.228L193.202 208.401L193.912 209.152L194.123 209.48L194.642 210.481L194.93 211.29L195.16 211.54L195.295 211.675L195.487 211.81L195.736 212.118L195.947 212.522L196.274 212.946L196.523 213.37L196.677 214.044L196.927 214.467L197.215 214.699L197.253 214.795V214.987L197.195 215.296L197.215 215.392L197.407 215.546L197.445 215.661L197.426 215.912L197.483 216.181L197.675 216.49L197.81 216.586L198.098 216.682L198.271 216.759L198.501 216.952L198.751 217.221L198.904 217.337L199.269 217.51L199.442 217.684L199.48 217.895L199.442 218.55L199.48 218.839L199.576 219.109V219.205L199.519 219.32L199.115 219.802L198.847 220.303L198.693 220.149L198.597 220.014L198.463 219.609L198.367 219.494L198.04 219.378L197.675 219.513L196.619 220.38L196.427 220.457L196.178 220.495H195.371L195.16 220.457L195.026 220.38L194.776 220.033L194.642 219.898L194.335 219.648L194.2 219.494L193.97 219.012L193.951 218.935L193.739 218.878L193.605 218.723L193.432 218.358L193.144 218.165H192.376L192.069 218.049L191.973 217.915L191.781 217.626L191.666 217.51L191.378 217.433L191.013 217.472L189.88 217.799L189.035 218.204L188.44 218.627L188.095 218.955L187.941 219.147L187.826 219.378L187.711 219.86L187.615 220.091L187.423 220.264L187.211 220.283L187 220.206L186.29 219.706L186.002 219.571L185.733 219.552L185.119 219.667L184.85 219.629L184.639 219.378L184.6 219.032V218.589L184.543 218.184L184.37 218.03L184.197 217.953L184.024 217.799L183.871 217.607L183.775 217.452L183.679 216.894L183.506 216.836L183.333 216.894H183.179L183.122 216.721L183.083 216.413L183.026 216.258L182.968 216.201L182.815 216.162L182.277 215.854L182.123 215.681L181.951 215.604L181.72 215.546L181.624 215.527L181.144 215.007L180.472 213.813L179.896 213.351L179.647 213.216L179.359 213.004L179.128 212.773L178.955 212.291L178.763 212.002L178.399 211.54L177.842 211.194L177.554 210.963L177.439 210.674L176.459 209.826L175.519 209.287L175.231 208.863H174.904L173.848 209.133L173.714 209.075L173.618 208.671L173.503 208.517L173.349 208.401L173.176 208.363L173.003 208.209L172.773 207.843L172.562 207.438L172.485 207.111H172.159L171.813 207.034L171.275 206.976L170.642 207.015L170.219 207.111L170.027 207.188L168.76 208.093L168.415 208.363L167.512 209.114L167.339 209.21L167.186 209.229H167.013L166.207 209.095L165.266 209.133L164.651 209.056L164.383 209.017L164.037 209.037L162.962 209.249L162.079 207.13L160.888 205.262L160.082 204.222L159.794 203.953L157.221 201.969L159.256 200.871L159.429 200.737L159.544 200.583L159.506 200.371L159.41 200.217L159.275 200.063L159.179 199.889L159.103 199.716L159.41 199.1L159.179 198.214L159.064 198.06L158.949 197.848L158.872 197.675V197.463L158.911 196.943L158.68 195.749L158.584 195.498L158.488 195.287L158.277 194.978L158.047 194.728L157.874 194.458L157.144 194.17L156.914 193.939L156.837 193.63L156.875 193.303L157.01 192.956L157.087 192.822L157.355 192.456L157.413 192.263L157.432 192.109L157.375 191.801L157.413 191.454L157.528 191.165L157.816 190.607L158.143 190.145L158.507 189.971L159.448 189.837L159.832 189.721L160.235 189.49L160.6 189.201L160.811 188.874L160.869 188.604L160.85 188.334L160.735 187.564V187.352L160.754 186.101L160.6 185.638L160.139 184.791L159.947 184.348L159.928 183.944L160.139 183.116L160.216 181.074L160.12 180.843L159.794 180.4L159.659 180.188L159.602 180.131L159.103 179.957L159.083 179.842L159.122 179.591L159.083 179.225L158.911 178.956L158.45 178.455L158.2 178.031L157.931 177.666L157.874 177.531L157.855 177.377L158.008 176.163V175.759L157.951 175.374V175.181L157.989 174.989L158.104 174.777L158.239 174.623L158.315 174.449L158.354 174.199L158.335 174.084L158.143 173.93L158.104 173.872L158.584 173.352L159.141 172.62L160.447 171.503L164.863 175.971L165.035 176.279L165.266 176.992L165.458 177.473L165.535 177.646L166.437 178.84L169.01 181.633L169.355 181.902L170.891 182.942L171.679 183.327L172.907 183.732L174.559 184.078L175.346 184.117L175.845 184.078L181.317 182.48L182.834 181.748L183.045 181.459L183.275 180.997L184.139 178.34V177.839L184.197 177.608L184.677 176.549L185.426 175.239L185.906 174.912L191.896 174.18L193.432 173.852L193.663 173.968H193.855Z" fill="#E83B3B" stroke="white" stroke-width="0.5" stroke-linecap="round" stroke-linejoin="round"/>
<path d="M183.084 216.413L183.122 216.721L183.18 216.894H183.333L183.506 216.836L183.679 216.894L183.775 217.452L183.871 217.607L184.024 217.799L184.197 217.953L184.37 218.03L184.543 218.184L184.6 218.589V219.032L184.639 219.378L184.85 219.629L185.119 219.667L185.733 219.552L186.002 219.571L186.29 219.706L187 220.206L187.212 220.283L187.423 220.264L187.615 220.091L187.711 219.86L187.826 219.378L187.941 219.147L188.095 218.955L188.44 218.627L189.036 218.204L189.88 217.799L191.013 217.472L191.378 217.433L191.666 217.51L191.781 217.626L191.973 217.915L192.069 218.049L192.376 218.165H193.144L193.432 218.358L193.605 218.723L193.74 218.878L193.951 218.935L193.97 219.012L194.2 219.494L194.335 219.648L194.642 219.898L194.776 220.033L195.026 220.38L195.16 220.457L195.372 220.495H196.178L196.428 220.457L196.62 220.38L197.676 219.513L198.04 219.378L198.367 219.494L198.463 219.609L198.597 220.014L198.693 220.149L198.847 220.303L199 220.457L199.154 220.669L199.212 220.88V221.092L199.173 221.343V221.612L199.231 221.824L199.442 222.248L199.538 222.479L199.653 222.922L199.768 223.114L200.076 223.384L200.421 223.557L200.728 223.769L200.94 224.154L200.997 224.366L201.016 224.597L201.055 224.828L201.17 225.002L201.362 225.117L201.592 225.156L202.053 225.194L202.303 225.271L202.437 225.425L202.572 225.618L202.744 225.791L203.071 225.887L203.167 226.003L203.82 228.314L203.858 228.507L203.935 228.699L204.069 228.834L204.319 228.911L204.607 228.93L204.895 228.892L205.125 228.834L205.336 228.738L205.471 228.584L205.586 228.391L205.663 228.16L205.816 226.947L205.989 226.6L206.181 226.446H206.373L206.796 226.581L207.122 226.6L208.101 226.484L208.255 226.754L207.871 229.527L207.832 230.548L208.504 242.122L208.562 242.295L208.792 242.796L209.445 249.575L209.656 250.287L210.002 250.326L210.981 250.345L211.711 250.499H211.864L212.076 250.422L212.172 250.326L212.44 249.921L212.556 249.787L212.69 249.71L212.844 249.652L213.151 249.613L213.362 249.517L213.573 249.344L213.669 249.209L213.861 248.92L213.976 248.804L214.111 248.747L214.303 248.901L214.514 249.228L214.994 250.403L215.128 250.615L215.397 250.711L232.293 250.653L231.948 251.154L231.372 252.02L231.237 252.483L231.333 259.57L206.239 259.55L204.78 259.512H204.453V259.454L204.146 259.165L204.031 258.992L204.069 258.819L204.184 258.626L204.069 258.587L203.8 258.645H203.34L203.205 258.549L203.148 258.241L203.013 258.125L202.706 258.048H202.38L202.13 258.125L201.938 258.145L201.727 258.01L201.535 257.779L201.439 257.74L201.304 258.029L201.266 258.279L201.247 258.684L201.343 259.704L201.324 259.897L201.151 260.147L201.093 260.417L201.016 260.552L200.997 260.648L201.093 260.898V260.995L201.074 261.322L200.997 261.592L200.805 261.842L200.652 261.938L200.402 261.958L199.98 261.823L199.788 261.784L198.828 261.9L198.54 261.842L197.964 261.592L197.407 261.11L197.176 260.975L196.888 260.937L196.581 260.975L196.101 261.091H195.852L195.717 260.995L195.602 260.86L195.237 259.974L195.199 259.916L194.892 259.57L194.815 259.473L194.642 259.3L194.354 259.127L194.258 258.992L194.162 258.742L194.066 258.626L193.989 258.587L193.701 258.568L193.528 258.53L193.317 258.414L193.144 258.356L193.029 258.395L192.914 258.472L192.76 258.703L192.626 258.973L192.396 259.319L192.3 259.57L192.28 259.781V260.09L192.261 260.167L192.146 260.417L192.069 260.706L192.012 260.802L191.896 260.918L191.647 261.033L191.34 261.13L191.148 261.207L191.013 261.149L190.84 260.975L190.61 260.86L190.476 260.764L190.284 260.513L190.149 260.417L189.957 260.359L189.9 260.321L189.823 260.051L189.765 259.974L189.631 259.897H189.247L189.093 259.82L188.901 259.666L188.824 259.647L188.575 259.724L188.44 259.743L188.268 259.55L188.056 259.57L187.941 259.55L187.442 258.953L187.327 258.838L187.154 258.799L186.847 258.915H186.655L186.386 258.838L186.117 258.645H186.021L185.925 258.703L185.829 258.819L185.752 259.03L185.541 262.112L185.272 263.055L185.253 263.229V263.903L185.292 264.249L184.85 267.639L184.792 268.621L183.487 267.639L181.279 265.231L181.01 264.596L180.991 264.5L180.972 264.076L181.144 262.304L181.048 261.842L181.029 261.63L181.068 261.284L181.74 258.934L181.836 256.816L182.258 256.103L182.373 255.814L182.565 254.832L182.642 254.582L183.832 251.712L182.738 247.245L182.68 246.898V246.301V246.147L182.853 245.588L182.93 245.434L183.525 244.568L183.602 244.279L183.506 243.913V243.547L183.564 243.451L183.64 243.393L183.813 243.335L183.948 243.258L184.216 242.989L184.543 242.738L184.888 242.584L185.368 242.526L185.714 242.411L187.327 242.276L187.596 242.218L190.552 240.523L191.781 239.214L192.319 238.463L192.453 238.251L192.338 237.904L191.992 237.25L190.668 235.478L190.514 235.151L190.418 234.842L190.399 234.515L190.456 234.168L190.533 233.88L190.552 233.745V233.591L190.38 233.36L190.284 233.244L190.226 233.263L190.168 232.917L189.976 232.531L189.746 232.204L189.477 231.973L189.055 231.857L188.575 231.896L187.365 232.3H187L186.924 232.185L186.847 232.166L186.732 232.243L186.424 232.339L186.04 232.204L185.1 231.665L184.85 231.472L184.581 231.318L183.89 231.183L183.621 231.01L183.391 230.798L182.623 230.259L182.45 230.066L182.104 229.527L181.682 229.219L181.452 229.007L181.356 228.795L181.298 228.352L181.221 228.141L181.144 228.006L181.029 227.91L180.53 227.582L180.28 227.139L179.992 226.33L180.012 226.157L180.069 226.022L180.338 225.56L180.722 224.905L180.837 224.79L181.048 224.616L181.106 224.424L181.048 224.173L181.01 223.962L180.952 223.769L180.876 223.596L180.626 223.365L180.549 223.23L180.511 223.037L180.53 222.902L180.588 222.768L181.164 222.267L181.413 222.094L181.605 221.863L181.778 221.593L181.836 221.4L181.855 221.227L181.778 220.957L181.72 220.88L181.567 220.784L181.394 220.726H181.298L180.607 220.9L180.3 221.015L178.591 221.882L178.437 221.901L178.245 221.824L178.168 221.631L178.207 221.535L178.303 221.362L178.36 221.285L178.725 220.957L178.86 220.823L178.936 220.592L178.61 218.781L178.572 218.088L178.668 217.298V217.125L178.61 216.99L178.437 216.875L178.111 216.721L177.88 216.547L177.746 216.374L177.669 216.181V216.027L177.573 215.43L177.612 215.276L177.746 215.161L177.919 215.122L177.976 215.142L178.053 215.334L178.168 215.43L178.36 215.45L178.61 215.584L178.706 215.604L179.167 215.584L179.378 215.642L179.493 215.758L179.608 216.008L179.781 216.124L179.954 216.085L180.396 215.873L180.568 215.835L180.78 215.931L181.97 216.336L182.335 216.49L182.565 216.528L183.084 216.413Z" fill="#E83B3B" stroke="white" stroke-width="0.5" stroke-linecap="round" stroke-linejoin="round"/>
<path d="M241.989 135.779L241.97 135.799L233.58 140.69L219.698 148.759L210.924 153.843L205.509 155.442L204.76 155.789L205.125 157.329L205.144 159.216L205.221 160.064L205.202 160.526L205.144 160.834L205.048 161.065L204.972 161.47L205.144 162.24L205.26 162.51L205.759 163.299L206.335 164.936L207.986 167.517L208.14 167.671L208.293 167.786L208.677 167.921L208.888 168.056L209.08 168.325L209.176 168.537L209.253 169.327L209.368 169.558L210.098 170.328L210.271 170.444L210.444 170.482H210.636L210.789 170.579L211.269 170.983L211.442 171.079L211.941 171.31L212.056 171.387L212.191 171.522L212.364 171.734L212.556 172.139L212.882 172.562L212.959 172.716L212.997 172.89L213.016 173.294L213.055 173.544L213.132 173.852L213.285 174.064L213.688 174.526L213.842 174.642L214.034 174.719L214.591 174.873L214.898 175.008L214.86 175.066H214.533L193.855 173.968H193.663L193.432 173.852L191.896 174.18L185.906 174.912L185.426 175.239L184.677 176.549L184.197 177.608L184.14 177.839V178.34L183.276 180.997L183.045 181.459L182.834 181.748L181.317 182.48L175.845 184.078L175.346 184.117L174.559 184.078L172.908 183.732L171.679 183.327L170.892 182.942L169.356 181.902L169.01 181.633L166.437 178.84L165.535 177.646L165.458 177.473L165.266 176.992L165.036 176.279L164.863 175.971L160.447 171.503L159.813 170.848L156.664 167.863L156.338 167.266L156.088 167.054L155.762 166.9L155.551 166.785L155.378 166.611L155.263 166.419L155.205 166.246L155.186 166.072V165.918L155.301 165.225V165.032L155.263 164.801L154.264 162.76L153.842 162.124L153.458 161.681L153.247 161.489L153.112 161.258L152.824 160.661L152.652 160.449L152.479 160.314L152.287 160.276L152.095 160.295L151.73 160.333L151.519 160.314L151.346 160.256L151.212 160.179L150.981 159.987L150.751 159.852L150.52 159.563L150.309 158.966L150.271 158.619L150.252 158.369L150.309 158.022L150.386 157.695L150.444 157.079L150.424 156.405L150.348 156.058L150.213 155.789L149.464 155.095L149.157 154.672L148.735 153.651L148.658 153.516L148.792 153.227L148.888 153.112L149.138 152.881L149.253 152.746L149.388 152.418L149.407 152.11L149.311 151.802L149.119 151.494L148.773 151.147L148.716 150.993L148.696 150.685L148.677 150.589L148.485 150.377L148.274 149.78L148.178 149.472L148.14 149.164L148.197 148.856L148.389 148.702L148.888 148.47L149.1 148.259L149.157 147.989L149.138 147.719L148.984 147.18L149.042 146.198L148.869 144.946L148.85 144.754L148.658 144.022V143.752L149.08 141.846L149.196 141.595L149.349 141.384L149.484 141.133L149.541 140.806L149.311 140.382L149.33 140.074L149.522 139.419L149.656 139.092L149.868 138.88L150.117 138.726L150.309 138.514L150.616 137.994L151.269 137.147L151.404 136.877V136.55L151.135 136.126L150.866 134.663V134.085L151.096 133.546L151.788 132.506L152.018 132.236L152.556 131.812L153.842 130.291L153.9 130.137L153.957 129.829L154.034 129.675L154.149 129.559L154.437 129.424L154.572 129.309L155.186 128.173L155.455 127.922L155.762 127.864L156.031 127.903L156.242 127.826L157.01 125.977L157.874 122.26L157.912 121.837L157.836 121.509L157.586 120.816L158.008 120.238L158.2 119.911L158.22 119.641L158.085 119.391L158.066 119.198L158.047 118.197L158.085 117.889L158.2 117.6L158.431 117.253L158.565 116.945L158.508 116.676L158.392 116.406L158.335 116.079L158.45 115.732L158.661 115.385L158.815 115.019L158.776 114.634L158.661 114.23L158.68 113.883L158.93 113.151L158.988 112.477L158.911 111.669L158.68 110.879L158.354 110.282L158.124 110.012L158.028 109.916L157.778 110.032L157.682 109.993L157.548 109.723L157.471 109.319L157.528 108.992L157.797 108.934L158.085 108.972L158.373 108.876L158.623 108.722L158.815 108.51L159.007 108.144L158.93 107.913L158.738 107.74L158.565 107.47V107.162L158.776 107.027H159.084L159.352 107.066L159.66 107.047L159.852 106.854L160.044 106.584L160.255 106.373L160.524 106.296H161.061L161.33 106.199L161.541 105.891L161.56 105.506L161.445 104.716L161.541 104.428L161.925 103.985L161.983 103.677L161.925 103.272L161.944 102.887L162.117 102.56L162.463 102.425L163.903 102.328L164.978 102.444L165.381 102.309L166.226 101.789L167.32 101.674L167.8 101.539L167.877 101.211L167.916 100.884L168.78 100.672L168.952 100.364L168.856 100.152L168.684 99.9982L168.568 99.8057L168.626 99.4205L168.76 99.1701L169.336 98.4383L169.452 98.1495L169.432 97.8799L169.317 97.2829L169.356 96.917L169.548 96.8592L169.836 96.9362L170.085 96.9555L170.469 96.6473L170.546 96.1081V95.5304L170.719 95.0489L170.872 94.8371L171.103 94.9912L171.352 94.8564L171.544 94.5675L171.736 93.9127L171.928 93.5468L172.063 93.2194L171.948 92.9691L171.775 92.9306L171.448 93.0654H171.295L171.18 93.0076L171.084 92.892V92.7958L171.583 92.6224L172.236 92.1025L172.6 91.9677L173.196 92.064L173.868 92.2951L174.424 92.3143L174.636 91.8714L174.559 91.5632L174.367 91.2744L174.117 91.0625L173.829 90.9855L173.676 90.8507L173.791 90.5426L174.002 90.2537L174.194 90.1189L174.367 90.2152L174.597 90.427L174.77 90.6581L174.847 90.8314L175.039 90.9085L175.461 90.8122L176.133 90.5426L176.498 90.273L176.652 90.0034L176.671 89.6952V89.2908L176.594 88.9442L176.479 88.5975L176.517 88.3472L176.882 88.2316L177.208 88.2894L177.554 88.4242L177.9 88.4627L178.245 88.2894L178.552 88.0005L178.86 87.7887L180.223 87.1147L180.338 86.9799L180.434 86.6525L180.684 86.3058L180.972 85.9977L181.183 85.8244L181.452 85.7281L182.277 85.5933L182.316 85.7281L182.392 85.8244L182.028 86.5177L181.797 86.7295L181.413 86.8065V86.9221L181.605 87.211L181.644 87.3072L181.548 87.5383L181.528 87.6346L181.586 87.9428L181.644 88.0776L181.701 88.1353L181.74 88.3087L181.644 89.0982V89.3486L181.912 89.6375L182.181 89.8108L182.412 90.0419L182.488 90.5041L182.469 90.7737L182.354 91.3899L182.124 92.1217L182.2 92.3336L182.815 92.5069L183.103 92.6995L183.352 92.9498L183.468 93.1809L183.564 94.5675L183.602 94.6445L183.775 94.8564V95.0489L183.717 95.203L183.352 95.4919L183.103 95.877V96.1659L183.18 96.4355L183.237 96.7629L183.122 97.0518L182.527 97.5332L182.277 97.8028L182.22 98.2072L182.431 98.4576L182.7 98.6502L182.834 98.862L182.738 99.1124L182.527 99.2279L182.373 99.4205L182.392 99.8057L182.604 100.095L182.93 100.345L183.218 100.499L183.352 100.614L183.295 100.807L183.026 101.134L182.93 101.327L182.911 101.481L182.93 101.616L183.468 103.002L183.89 103.465L184.428 103.311L184.812 103.522L184.984 103.657L185.08 103.869V104.023L184.965 104.312V104.524L185.042 104.736L185.119 104.793H185.215L185.407 104.87L185.752 105.102L185.848 105.236L185.484 105.371L185.445 105.506L185.503 105.91L185.484 106.064L185.33 106.315L185.311 106.469V107.047L185.407 107.278L185.618 107.509L185.906 107.721L186.098 107.778L186.232 107.624L186.309 106.854L186.367 106.642L186.482 106.507L186.693 106.45L186.751 106.604L186.693 106.97L186.924 107.181L187.212 107.297L187.442 107.451L187.596 107.971L187.807 108.337L187.884 108.51V108.664L187.864 108.992L187.884 109.146L187.96 109.492L188.037 109.646L188.402 109.801L188.517 109.955L188.536 110.166L188.46 110.32L188.248 110.629L188.229 110.917L188.325 111.187L188.517 111.38L188.748 111.495L188.997 111.553L189.65 111.592L189.976 111.649L190.303 111.784L190.648 111.823L190.994 111.707L191.186 111.784L191.474 111.842L191.743 111.957L191.858 112.189L191.935 112.516L192.108 112.824L192.607 113.363L192.492 113.594L192.568 113.768L192.741 113.845L192.933 113.787L192.972 113.671L193.029 113.228L193.087 113.132L193.356 113.113L193.413 113.209L193.49 113.479V113.614L193.375 113.806L193.356 113.902L193.413 113.999L193.586 114.191L193.74 114.345L194.124 114.576L194.872 114.904L195.064 114.942H195.468L195.564 114.962L195.832 115.173L196.159 115.347L196.197 115.231L196.504 115.289L196.754 115.52L196.812 115.636L196.831 115.828L196.812 116.194L196.735 116.541L196.447 117.176L196.485 117.465L196.581 117.523L196.927 117.639L197.08 117.735L197.215 117.87L197.388 118.216L197.522 118.39L197.733 118.601L197.964 118.813L198.271 118.948L198.636 119.006L199.269 118.871L199.519 118.948L199.672 119.449L199.807 119.487L199.96 119.449L200.152 119.352L200.325 119.16L200.479 119.102L200.805 119.064L201.074 119.16L201.304 119.295L201.746 119.776L201.919 119.834L202.072 119.68L202.303 119.333L202.552 119.603L203.493 119.641L203.82 120.104L204.127 120.065L204.626 119.872L204.818 119.949L204.972 120.084L205.144 120.2L205.413 120.219L205.605 120.046L205.797 119.757L206.335 119.083V119.006L206.604 118.967L207.084 118.813L207.314 118.775L209.56 119.102L209.599 119.141L210.463 119.603L211.116 120.142L211.384 120.277L211.73 120.315L211.922 120.335L212.095 120.354L212.268 120.431L212.421 120.546L212.536 120.72L212.575 121.028L212.632 121.201L212.748 121.298L212.901 121.355L213.016 121.413L213.055 121.606L213.112 121.702L213.708 122.145L214.053 122.241L214.245 122.318L214.706 122.684L214.898 122.761L216.012 122.742L216.184 122.703L216.242 122.588L216.396 122.453L216.722 122.203L216.799 122.183L217.048 122.203L217.125 122.145L217.202 121.952L217.26 121.875L217.701 121.683L217.74 121.663L217.932 121.683L218.239 121.837L218.719 121.952L218.872 122.183L218.988 122.761L219.045 122.857L219.16 122.954L219.199 123.031L219.084 123.223V123.416L219.141 123.474L219.487 123.782L219.66 123.974L219.736 124.148L219.775 124.494L219.909 124.822L220.082 125.053L220.274 125.188L220.447 125.265H220.6L220.735 125.226L220.869 125.149L221.004 125.091L221.08 125.188L221.138 125.342L221.964 126.42L222.002 126.536L222.079 126.613L222.424 126.651L222.54 126.69L222.616 126.767L222.636 126.902L222.712 127.171L222.924 127.402L223.192 127.595L223.5 127.749L223.519 127.422L223.692 127.345H223.96L224.248 127.287L224.46 127.171L224.613 127.036L224.805 127.017L225.112 127.19L225.266 127.325L225.362 127.46L225.42 127.595L225.458 127.98L225.516 128.057L226.879 128.654L227.858 128.635L228.184 128.693L228.396 128.847L228.837 129.347L228.876 129.598L228.933 129.617H229.202L229.471 129.79L229.605 129.848L230.335 129.925L230.546 129.906L230.719 129.752L231.045 129.867L231.295 129.81L231.525 129.694L232.12 129.54L232.274 129.521L232.447 129.559L232.869 129.848L232.888 129.482L233.042 129.521L233.407 129.964L233.56 130.021L233.695 129.983L233.791 130.002L233.829 130.233V131.331L233.887 131.601L234.04 131.832L234.367 132.082L235.077 132.852L235.288 132.968L235.308 133.026L235.538 133.411L235.634 133.469L235.98 133.642L236.248 133.815L237.016 134.566L237.17 134.682L237.477 134.855L237.592 134.971L237.65 135.086L237.976 136.165L238.168 136.338L238.514 136.396L238.821 136.319L239.148 136.222L239.455 136.165L239.762 136.28L240.069 136.107L240.415 135.972L240.818 135.876L241.932 135.779H241.989Z" fill="#E83B3B" stroke="white" stroke-width="0.5" stroke-linecap="round" stroke-linejoin="round"/>
<path d="M126.252 180.054L125.944 179.88L125.503 180.015L124.984 179.861L124.812 179.842L124.639 179.899L124.351 180.15L124.159 180.227H123.909L124.044 179.996L124.082 179.765L123.89 179.649L123.544 179.611L123.602 179.495L124.044 179.206L124.216 178.994L124.255 178.782L124.274 178.59L124.37 178.417L124.274 178.205L123.66 177.723L123.468 177.434L123.775 177.3L123.794 177.338L124.159 177.627L124.696 177.858L125.407 178.263L125.733 178.571L125.887 178.937L126.002 179.148L126.271 179.283L126.847 179.437L127.845 180.304L128.076 180.439L128.133 180.496L128.037 180.612L127.884 180.728L127.692 180.785L127.5 180.766L127.404 180.728L127.365 180.651L126.77 180.092L126.444 179.861L126.29 179.938L126.252 180.054ZM158.2 117.6L158.085 117.889L158.047 118.197L158.066 119.198L158.085 119.391L158.22 119.641L158.2 119.911L158.008 120.238L157.586 120.816L157.836 121.509L157.912 121.837L157.874 122.26L157.01 125.977L156.242 127.826L156.031 127.903L155.762 127.864L155.455 127.922L155.186 128.173L154.572 129.309L154.437 129.424L154.149 129.559L154.034 129.675L153.957 129.829L153.9 130.137L153.842 130.291L152.556 131.812L152.018 132.236L151.788 132.506L151.096 133.546L150.866 134.085V134.663L151.135 136.126L151.404 136.55V136.877L151.269 137.147L150.616 137.994L150.309 138.514L150.117 138.726L149.868 138.88L149.656 139.092L149.522 139.419L149.33 140.074L149.311 140.382L149.541 140.806L149.484 141.133L149.349 141.384L149.196 141.595L149.08 141.846L148.658 143.752V144.022L148.85 144.754L148.869 144.946L149.042 146.198L148.984 147.18L149.138 147.719L149.157 147.989L149.1 148.259L148.888 148.47L148.389 148.702L148.197 148.856L148.14 149.164L148.178 149.472L148.274 149.78L148.485 150.377L148.677 150.589L148.696 150.685L148.716 150.993L148.773 151.147L149.119 151.494L149.311 151.802L149.407 152.11L149.388 152.418L149.253 152.746L149.138 152.881L148.888 153.112L148.792 153.227L148.658 153.516L148.735 153.651L149.157 154.672L149.464 155.095L150.213 155.789L150.348 156.058L150.424 156.405L150.444 157.079L150.386 157.695L150.309 158.022L150.252 158.369L150.271 158.619L150.309 158.966L150.52 159.563L150.751 159.852L150.981 159.987L151.212 160.179L151.346 160.256L151.519 160.314L151.73 160.333L152.095 160.295L152.287 160.276L152.479 160.314L152.652 160.449L152.824 160.661L153.112 161.258L153.247 161.489L153.458 161.681L153.842 162.124L154.264 162.76L155.263 164.801L155.301 165.032V165.225L155.186 165.918V166.072L155.205 166.246L155.263 166.419L155.378 166.611L155.551 166.785L155.762 166.9L156.088 167.054L156.338 167.266L156.664 167.863L159.813 170.848L160.447 171.503L159.141 172.62L158.584 173.352L158.104 173.872L158.143 173.93L158.335 174.084L158.354 174.199L158.316 174.449L158.239 174.623L158.104 174.777L157.989 174.989L157.951 175.181V175.374L158.008 175.759V176.163L157.855 177.377L157.874 177.531L157.932 177.666L158.2 178.031L158.45 178.455L158.911 178.956L159.084 179.225L159.122 179.591L159.084 179.842L159.103 179.957L159.602 180.131L159.66 180.188L159.794 180.4L160.12 180.843L160.216 181.074L160.14 183.116L159.928 183.944L159.948 184.348L160.14 184.791L160.6 185.638L160.754 186.101L160.735 187.352V187.564L160.85 188.334L160.869 188.604L160.812 188.874L160.6 189.201L160.236 189.49L159.832 189.721L159.448 189.837L158.508 189.971L158.143 190.145L157.816 190.607L157.528 191.165L157.413 191.454L157.375 191.801L157.432 192.109L157.413 192.263L157.356 192.456L157.087 192.822L157.01 192.956L156.876 193.303L156.837 193.63L156.914 193.939L157.144 194.17L157.874 194.458L158.047 194.728L158.277 194.978L158.488 195.287L158.584 195.498L158.68 195.749L158.911 196.943L158.872 197.463V197.675L158.949 197.848L159.064 198.06L159.18 198.214L159.41 199.1L159.103 199.716L159.18 199.889L159.276 200.063L159.41 200.217L159.506 200.371L159.544 200.582L159.429 200.737L159.256 200.871L157.221 201.969L156.856 201.622L156.818 201.545L156.434 201.102L156.165 200.717L155.973 200.274L155.762 199.947L155.628 199.812L155.397 199.62L155.186 199.523L154.994 199.485H154.706L152.652 200.082L152.325 200.217L150.463 201.314L148.543 202.701L148.178 202.99L145.567 204.646L145.279 204.858L145.221 204.954L145.202 205.07L145.221 205.301L145.317 205.551L145.452 205.801L145.548 206.032L145.567 206.206V206.321L145.471 206.61L145.394 206.764L145.279 206.899L144.952 207.111L144.722 207.149L144.53 207.13L144.357 207.072L141.266 204.723L140.92 204.569L140.402 204.376L139.154 203.741L138.693 203.606L136.236 203.49L134.354 203.645L133.836 203.779L132.856 204.242L132.703 204.338L131.82 205.089L130.437 206.861L129.88 207.381L128.536 208.401L127.73 208.844L125.676 209.403L124.524 209.98L124.37 210.038L124.216 209.788H124.024L123.775 209.884L123.448 209.903L123.18 209.826L122.93 209.711L122.45 209.403L122.085 209.326L121.97 209.268L121.855 209.172L121.548 208.786L121.298 208.863L121.106 208.998H120.914L120.664 208.594L120.53 207.978L120.511 206.764L120.415 206.167L120.012 205.416L119.455 204.781L118.188 203.645L117.861 203.125L117.708 202.528L117.65 201.199L117.669 200.024L117.631 199.446L117.458 198.946L117.228 198.657L116.92 198.329L116.287 197.829L116.037 197.732L115.192 197.617L115.461 197.193L115.711 196.288L115.884 195.922L116.306 195.826L117.17 195.036L117.65 194.709L118.072 194.536L118.533 194.458L118.956 194.304L119.282 193.9L119.359 193.65L119.282 193.534L119.167 193.496L119.109 193.399L119.167 193.226L119.263 193.13L119.935 192.725L120.127 192.494L120.549 191.589L122.143 189.875L122.354 189.528L122.642 188.623L122.796 188.392L123.045 188.238L123.602 188.18L123.909 188.103L124.812 187.641L125.08 187.429L125.522 186.832L125.1 186.255L125.023 185.966L125.061 185.484L125.138 185.504L125.56 185.619L125.829 185.792L126.29 186.023L127.346 186.12L127.807 186.293L127.922 185.889L127.96 185.157L127.922 184.464L127.749 184.155L127.173 184.098L126.578 183.944L126.348 183.713L126.847 183.366L127.423 183.212L127.98 183.116L128.287 183.154L128.786 183.327L129.055 183.366L129.362 183.25L129.592 182.981L129.784 182.692L129.957 182.461L130.053 182.422L130.399 182.345L130.706 182.133L130.572 181.999L130.437 181.96L130.303 181.999L130.168 182.133L129.861 181.902V181.787L130.495 181.556L130.725 181.536L131.34 181.845L131.532 181.864L132.223 181.787L132.012 181.575L131.935 181.44L131.896 181.286L131.935 181.074L132.108 181.036L132.223 180.901L132.3 180.573L132.261 180.4L131.896 180.208L131.8 180.111L131.666 179.919L131.532 179.88L131.359 179.899L130.936 179.996H130.456L130.168 179.957L129.861 179.88L129.074 179.457L128.786 179.437L128.556 179.611L128.383 179.88L128.21 180.034L128.018 179.88L127.999 179.726L128.018 179.399L127.98 179.264L127.768 178.956L127.058 177.511L127.308 177.434L127.903 177.396L128.018 177.357L128.095 177.107L128.248 176.857L128.46 176.645L128.671 176.51L129.036 176.433L129.228 176.337L129.324 176.221L129.266 176.048L129.055 175.759L129.016 175.663L128.844 175.547L127.807 175.489L127.327 175.297L127.116 175.258L126.962 175.316L126.847 175.432L126.732 175.509L126.29 175.316L125.541 175.278L125.349 175.162V175.027L125.522 174.604L125.56 174.43L125.541 174.238L125.464 173.91L125.445 173.756L125.368 173.39L125.176 173.159L124.696 172.793L124.428 172.466L124.255 172.177L124.024 171.984L123.679 171.907L123.372 171.888L123.084 171.811L122.834 171.715L122.642 171.561L122.757 171.349L123.026 171.407L123.18 171.291V171.099L123.026 171.002L122.431 170.983L121.989 171.041L121.413 171.002L121.202 170.425L121.087 170.328L120.933 170.232V170.001L121.01 169.731L121.029 169.539L121.087 169.442L121.048 169.365L120.78 169.308L120.549 169.231L120.338 168.903L119.858 168.557L120.069 168.268L120.146 167.94L120.184 167.613L120.261 167.286L120.472 166.997L120.626 166.9L121.068 166.766L121.164 166.689L121.183 166.554L120.991 166.053L121.087 165.803L121.336 165.456L121.644 165.186L122.162 164.994L122.373 164.378L122.68 164.358L123.045 164.378L123.295 164.185L123.333 163.877L122.968 163.511L122.565 162.952L122.316 162.702L121.394 161.99L121.125 161.739L120.223 160.333L119.628 159.775L119.532 159.486L119.589 159.178L119.858 158.581L119.877 158.446L119.82 157.117L119.839 156.828L119.992 156.617L120.338 156.386L121.202 156.154L121.452 156L121.682 155.538L121.778 153.439L121.97 153.131L122.277 153.092L122.642 153.169L122.988 153.189L123.084 152.996L123.026 152.245L123.084 151.975L123.18 151.898L123.448 151.821L123.564 151.764L124.178 151.051L124.485 150.82L125.503 150.242L125.81 149.953L125.752 149.626L125.522 149.299L125.407 149.01L125.388 148.374L125.407 148.066L125.503 147.777L125.906 147.488L126.424 147.354L127.48 147.219L127.788 146.891L127.711 146.333L127.327 145.235L127.231 144.677L127.135 144.426L126.981 144.195L126.136 143.637L125.925 143.329L125.829 142.809V142.231L125.772 141.672L125.503 141.268L125.292 140.633L125.272 140.421L125.33 140.151L125.407 139.958V139.785L125.234 139.535L124.389 138.842L124.063 138.379L124.293 138.013L124.485 137.994L124.965 138.071L125.138 138.033L125.292 137.859V137.667L125.253 137.474L125.292 137.243L125.426 137.051L125.752 136.704L125.887 136.492L126.021 136.107L126.117 135.702L126.06 135.337L126.252 132.159L126.021 130.888L125.983 130.233L126.098 128.327L125.868 126.497V125.804L125.964 125.438L126.463 125.053L126.616 124.668L126.808 124.36L127.154 124.398L127.365 123.955L127.596 123.608L127.922 123.397L129.208 123.031L129.324 122.896L129.688 122.164L129.535 121.991L129.036 121.856L128.882 121.702L128.901 121.432L129.055 121.201L129.266 121.028L129.746 120.758L129.957 120.566L130.149 120.315L130.264 120.084L130.36 119.757L130.456 119.603L130.61 119.545L130.533 119.391L130.706 119.41L131.224 119.449L131.378 119.41L131.474 119.352L131.666 119.141L131.743 119.102L132.05 118.216L132.223 117.985L132.607 117.927L132.876 118.043L133.106 118.236L133.356 118.332L133.682 118.274L133.874 118.158L134.162 117.677L134.892 115.828L135.237 115.347L137.1 114.345L137.503 113.902L137.618 113.363L137.733 112.208L137.983 111.746L138.463 111.514L139.653 111.36L140.076 111.149L140.402 111.168L140.786 111.091L141.17 110.956L141.439 110.763L141.65 110.398L141.784 109.974V109.897L142.072 109.974L158.2 117.6Z" fill="#E83B3B" stroke="white" stroke-width="0.5" stroke-linecap="round" stroke-linejoin="round"/>
<path d="M157.221 201.969L159.794 203.953L160.082 204.222L160.888 205.262L162.079 207.13L162.962 209.249L162.827 209.576L162.674 209.711L162.501 209.846L162.309 209.942L161.234 210.289L161.119 210.558L161.023 212.099L161.042 212.465L161.119 212.676L161.215 212.85L161.33 212.985L161.483 213.1L162.021 213.331L162.213 213.37H162.405L162.827 213.293L163.231 213.274L163.403 213.312L163.73 213.447L163.883 213.485L164.229 213.466L164.575 213.582L164.229 213.986L163.768 214.294L163.058 214.641L162.674 214.891L162.328 215.064L162.155 215.219L162.098 215.334V215.43L162.117 215.97V216.258L162.079 216.451L161.925 217.202V217.375V217.587L161.963 217.684L162.155 217.992L162.712 219.205L162.827 219.398L162.923 219.513L163.096 219.648L164.421 220.707L164.882 220.996L166.264 221.497L167.263 221.593L168.069 221.92L168.299 222.113L168.491 222.305L168.568 222.479L169.279 224.693L169.317 224.79L169.912 225.945L170.699 227.004L171.851 228.372L172.139 228.892L172.12 229.065L172.043 229.2L171.89 229.335L171.717 229.412L171.256 229.508L169.336 229.662L166.015 229.893L165.65 230.047L164.997 230.413L163.096 232.146L161.963 233.032L161.349 233.379L158.066 234.881L153.285 236.961L148.408 239.079L146.277 239.811L145.451 239.792L144.011 239.522L136.831 237.096L132.376 235.478L132.299 235.439L133.01 234.38L133.355 233.88L133.567 233.668L134.2 233.379L134.335 233.263L134.219 232.955L133.951 232.608L133.624 232.3L131.935 231.068L131.378 230.856L130.955 230.586L130.399 229.604L130.034 229.219L128.555 227.91L128.056 227.544L127.307 227.293L127.096 227.139L126.923 226.908L126.559 226.042L126.271 225.502L126.059 225.29L125.829 225.117L126.29 224.482L126.424 224.173V223.808L126.367 223.634L125.503 221.766V221.728L125.618 221.516L125.637 221.285L125.599 221.054L125.503 220.842L125.119 220.168L124.984 219.359L125.003 218.512L125.119 217.703V217.337L125.003 216.99L124.447 216.008L124.37 215.739L124.408 214.833L124.389 214.679L124.159 213.986L124.139 213.659L124.082 213.274L123.928 213.004L123.448 212.484L123.218 211.714L123.679 211.232L124.255 210.77L124.37 210.057V210.038L124.523 209.98L125.675 209.403L127.73 208.844L128.536 208.401L129.88 207.381L130.437 206.861L131.819 205.089L132.703 204.338L132.856 204.242L133.835 203.779L134.354 203.645L136.235 203.49L138.693 203.606L139.154 203.741L140.402 204.376L140.92 204.569L141.266 204.723L144.357 207.072L144.53 207.13L144.722 207.149L144.952 207.111L145.279 206.899L145.394 206.764L145.471 206.61L145.567 206.321V206.206L145.547 206.033L145.451 205.801L145.317 205.551L145.221 205.301L145.202 205.07L145.221 204.954L145.279 204.858L145.567 204.646L148.178 202.99L148.543 202.701L150.463 201.314L152.325 200.217L152.651 200.082L154.706 199.485H154.994L155.186 199.523L155.397 199.62L155.627 199.812L155.762 199.947L155.973 200.274L156.165 200.717L156.434 201.102L156.818 201.545L156.856 201.622L157.221 201.969Z" fill="#E83B3B" stroke="white" stroke-width="0.5" stroke-linecap="round" stroke-linejoin="round"/>
<path d="M182.277 85.5933L181.451 85.7281L181.183 85.8244L180.971 85.9977L180.683 86.3058L180.434 86.6525L180.338 86.9799L180.223 87.1147L178.859 87.7887L178.552 88.0005L178.245 88.2894L177.899 88.4627L177.554 88.4242L177.208 88.2894L176.882 88.2316L176.517 88.3472L176.479 88.5975L176.594 88.9442L176.671 89.2908V89.6952L176.651 90.0034L176.498 90.273L176.133 90.5426L175.461 90.8122L175.039 90.9085L174.847 90.8314L174.77 90.6581L174.597 90.427L174.367 90.2152L174.194 90.1189L174.002 90.2537L173.791 90.5426L173.675 90.8507L173.829 90.9855L174.117 91.0625L174.367 91.2744L174.559 91.5633L174.635 91.8714L174.424 92.3143L173.867 92.2951L173.195 92.064L172.6 91.9677L172.235 92.1025L171.583 92.6224L171.083 92.7958V92.892L171.179 93.0076L171.295 93.0654H171.448L171.775 92.9306L171.947 92.9691L172.063 93.2194L171.928 93.5468L171.736 93.9127L171.544 94.5675L171.352 94.8564L171.103 94.9912L170.872 94.8371L170.719 95.0489L170.546 95.5304V96.1081L170.469 96.6473L170.085 96.9555L169.835 96.9362L169.547 96.8592L169.355 96.917L169.317 97.2829L169.432 97.8799L169.451 98.1495L169.336 98.4383L168.76 99.1701L168.626 99.4205L168.568 99.8057L168.683 99.9982L168.856 100.152L168.952 100.364L168.779 100.672L167.915 100.884L167.877 101.211L167.8 101.539L167.32 101.674L166.226 101.789L165.381 102.309L164.978 102.444L163.903 102.328L162.463 102.425L162.117 102.56L161.944 102.887L161.925 103.272L161.983 103.677L161.925 103.985L161.541 104.428L161.445 104.716L161.56 105.506L161.541 105.891L161.33 106.199L161.061 106.296H160.523L160.255 106.373L160.043 106.584L159.851 106.854L159.659 107.047L159.352 107.066L159.083 107.027H158.776L158.565 107.162V107.47L158.738 107.74L158.93 107.913L159.007 108.144L158.815 108.51L158.623 108.722L158.373 108.876L158.085 108.972L157.797 108.934L157.528 108.992L157.471 109.319L157.547 109.723L157.682 109.993L157.778 110.032L158.027 109.916L158.123 110.012L158.354 110.282L158.68 110.879L158.911 111.669L158.987 112.477L158.93 113.151L158.68 113.883L158.661 114.23L158.776 114.634L158.815 115.019L158.661 115.385L158.45 115.732L158.335 116.079L158.392 116.406L158.507 116.676L158.565 116.945L158.431 117.253L158.2 117.6L142.072 109.974L141.784 109.897V109.974L141.65 110.398L141.439 110.763L141.17 110.956L140.786 111.091L140.402 111.168L140.075 111.149L139.653 111.36L138.463 111.514L137.983 111.746L137.733 112.208L137.618 113.363L137.503 113.902L137.099 114.345L135.237 115.347L134.891 115.828L134.162 117.677L133.874 118.158L133.682 118.274L133.355 118.332L133.106 118.236L132.875 118.043L132.607 117.927L132.223 117.985L132.05 118.216L131.743 119.102L131.666 119.141L131.474 119.352L131.378 119.41L131.224 119.449L130.706 119.41L130.533 119.391L130.149 118.698L126.866 112.843L123.602 107.027L118.687 98.2843L116.767 94.8756L116.594 94.5867L117.765 94.6253L118.379 94.5675L119.435 94.2979L119.954 94.3749L120.491 94.529L121.048 94.6253L121.931 94.5867L123.179 94.7408L123.755 94.8756L124.293 94.8178L124.543 94.8564L125.714 95.3763H125.771L126.367 95.3571L127.096 95.5689L127.48 95.6074L127.883 95.5111L128.306 95.3571L128.728 95.2608L129.208 95.3956L129.458 95.5304L129.208 95.9155L129.035 96.3007L128.939 96.7051L128.997 97.3792L129.055 97.514L129.17 97.6102H129.458L131.685 97.1481L132.127 96.9362L132.952 96.3392L133.624 96.1081L133.874 96.0696H134.143L134.411 96.1081L134.642 96.0504L135.141 95.5689L135.429 95.4341L136.159 95.3571L136.427 95.2415L136.754 95.0104L137.061 94.7023L137.33 94.3557L137.541 94.009L137.944 93.0654L138.175 92.7572L139.058 91.8136L139.595 90.7544L139.826 90.5041L140.191 90.2345L140.671 90.0034L140.939 89.9263L141.208 89.8878L141.65 89.9648L143.531 89.8686L143.762 89.9071L143.973 89.9648L144.28 90.1382L144.895 90.6389L145.202 90.7544L145.739 90.6196L145.989 90.1574L146.143 89.5797L146.315 89.0982L146.488 88.9249L146.968 88.5205L147.16 88.2701L147.467 87.7887L147.64 87.5769L147.89 87.3458L148.197 87.2495L148.754 86.9799L149.407 86.768L149.714 86.5562L150.002 86.3058L150.213 85.9977L150.29 85.8244V85.6896L150.328 85.574L150.501 85.42L150.635 85.3814L151.346 85.3622L151.519 85.3429L151.691 85.2852L151.807 85.1889L151.826 85.0348L151.73 84.6689L151.768 84.5341L151.999 84.4186L152.344 84.3608L152.997 84.3415L153.285 84.38L153.899 84.5534H154.168L154.36 84.4378L154.475 84.2645L154.571 84.0719L154.687 83.9371L154.84 83.8793H155.167L155.339 83.8408L156.069 83.4364L158.603 80.7981L160.677 79.1996L160.965 79.0456L162.251 78.5449L162.405 78.4486L162.482 78.3138L162.578 77.9671L162.674 77.8323L162.847 77.7746L164.709 77.4664L165.669 77.5242L165.976 77.4857L166.283 77.3894L166.936 77.0042L167.205 76.908L168.741 76.6769L169.029 76.5613L169.509 76.2532L169.778 76.1376L170.642 76.0413L170.834 76.1954L170.911 76.2147L171.007 76.1569L171.103 75.9643L171.179 75.9065L171.41 75.868L171.679 75.9643L172.101 76.1954L172.312 76.2532L172.619 76.1761L173.311 75.7525L173.599 75.6562L173.887 75.6369L174.098 75.6562L174.751 75.8102L174.943 75.8295L175.115 75.714L175.384 75.4443L175.48 75.6947L175.576 75.8295L175.653 75.8873L175.807 75.868L175.864 75.714L175.883 75.4251L175.999 75.117L176.095 75.0399L176.191 75.2518L176.267 75.5214L176.344 75.6177L176.498 75.6754L177.093 75.4251L177.323 75.4058L177.266 75.7717L177.208 75.9836L177.285 76.0221H177.535L177.823 75.9451L177.919 76.0028L178.13 76.2339L178.61 76.542L178.84 76.6576L179.109 76.7154H179.301L179.378 76.6383L179.416 76.542L179.512 76.3687L179.531 76.2147L179.647 76.0991L179.896 76.0413L180.069 75.8295L180.223 75.5984L180.299 75.4443L180.357 75.2133L180.453 75.0592L181.183 74.4622L181.375 74.2118L181.528 74.1926H181.951L182.239 74.3081L182.661 74.6933L182.891 75.1747L182.93 75.2325L183.141 75.9451L183.295 76.1184L183.506 76.311L183.698 76.5228L183.775 76.7731L183.717 77.139L183.371 77.7938L183.237 78.1405L183.199 78.7952L183.256 79.45L183.391 80.0663L183.679 80.8943L183.736 81.2217L183.775 81.915L183.813 82.0883L183.967 82.4542L184.005 82.6276L183.947 82.7816L183.679 83.186L183.525 83.9756L183.333 84.3415L182.757 84.6304L182.527 84.9385L182.354 85.3044L182.277 85.5933Z" fill="#E83B3B" stroke="white" stroke-width="0.5" stroke-linecap="round" stroke-linejoin="round"/>
<path d="M183.083 216.413L182.565 216.528L182.334 216.49L181.97 216.336L180.779 215.931L180.568 215.835L180.395 215.873L179.954 216.085L179.781 216.124L179.608 216.008L179.493 215.758L179.378 215.642L179.166 215.584L178.706 215.604L178.61 215.584L178.36 215.45L178.168 215.43L178.053 215.334L177.976 215.142L177.918 215.122L177.746 215.161L177.611 215.276L177.573 215.43L177.669 216.027V216.181L177.746 216.374L177.88 216.547L178.11 216.721L178.437 216.875L178.61 216.99L178.667 217.125V217.298L178.571 218.088L178.61 218.781L178.936 220.592L178.859 220.823L178.725 220.957L178.36 221.285L178.302 221.362L178.206 221.535L178.168 221.631L178.245 221.824L178.437 221.901L178.59 221.882L180.299 221.015L180.606 220.9L181.298 220.726H181.394L181.566 220.784L181.72 220.88L181.778 220.957L181.854 221.227L181.835 221.4L181.778 221.593L181.605 221.863L181.413 222.094L181.163 222.267L180.587 222.768L180.53 222.902L180.51 223.037L180.549 223.23L180.626 223.365L180.875 223.596L180.952 223.769L181.01 223.962L181.048 224.173L181.106 224.424L181.048 224.616L180.837 224.79L180.722 224.905L180.338 225.56L180.069 226.022L180.011 226.157L179.992 226.33L180.28 227.139L180.53 227.582L181.029 227.91L181.144 228.006L181.221 228.141L181.298 228.352L181.355 228.795L181.451 229.007L181.682 229.219L182.104 229.527L182.45 230.066L182.622 230.259L183.39 230.798L183.621 231.01L183.89 231.183L184.581 231.318L184.85 231.472L185.099 231.665L186.04 232.204L186.424 232.339L186.731 232.243L186.846 232.166L186.923 232.185L187 232.3H187.365L188.574 231.896L189.054 231.857L189.477 231.973L189.746 232.204L189.976 232.531L190.168 232.917L190.226 233.263L190.283 233.244L190.379 233.36L190.552 233.591V233.745L190.533 233.88L190.456 234.168L190.398 234.515L190.418 234.842L190.514 235.151L190.667 235.478L191.992 237.25L192.338 237.904L192.453 238.251L192.318 238.463L191.781 239.214L190.552 240.524L187.595 242.218L187.326 242.276L185.714 242.411L185.368 242.526L184.888 242.584L184.542 242.738L184.216 242.989L183.947 243.258L183.813 243.335L183.64 243.393L183.563 243.451L183.506 243.547V243.913L183.602 244.279L183.525 244.568L182.93 245.434L182.853 245.588L182.68 246.147V246.301V246.898L182.738 247.245L183.832 251.712L182.642 254.582L182.565 254.832L182.373 255.814L182.258 256.103L181.835 256.816L181.739 258.934L181.067 261.284L181.029 261.63L181.048 261.842L181.144 262.304L180.971 264.076L180.99 264.5L181.01 264.596L181.278 265.231L183.486 267.639L184.792 268.621V269.16L184.734 269.526L184.466 270.258L184.254 270.643L184.043 270.874L183.986 270.932L183.89 271.201L183.851 271.702L183.813 271.837L183.563 272.107L183.467 272.376L183.314 273.166L183.486 273.243L183.678 273.435L183.851 273.686L184.024 273.84L184.139 273.975L184.389 274.36L184.792 275.149L184.984 275.419L185.157 275.592L185.33 276.112L185.733 278.134L185.771 278.173H185.483L181.298 278.231L180.472 278.134L179.378 277.98H179.243L179.09 278.134L178.974 278.192L176.786 278.442L176.306 278.288L175.845 277.961L173.829 275.554L173.483 275.361L172.043 275.111L171.966 275.015L171.774 274.186L171.294 273.666L170.603 273.32L169.278 272.877L169.01 272.973L168.261 275.766L168.107 277.364L168.03 277.614L167.934 277.807L167.838 277.788L167.646 277.826L167.512 277.903L167.397 278.038L167.282 278.211L167.224 278.365L166.84 278.674L164.766 279.271L162.923 279.79L162.866 279.867L162.789 280.099L162.693 280.118L162.443 280.041L162.136 280.002L161.963 279.945L161.79 279.925L161.579 280.022L161.214 280.33L161.022 280.676L160.907 281.061L160.715 282.333L160.6 282.718L160.408 282.968L160.35 283.122L160.446 283.604V283.777L160.274 283.912L158.507 284.47L158.085 284.682L157.758 285.029L157.624 285.26L157.413 285.395L157.163 285.452L156.818 285.433H156.549L156.683 287.031L156.645 287.397L156.472 287.667L155.301 288.611L154.821 289.169L154.034 290.517L149.061 291.615L148.485 291.73L147.39 291.807L144.952 291.653L144.453 291.48L144.338 291.364L143.992 290.825L143.915 290.845L143.301 290.71L143.147 290.459L143.07 290.016V288.707L143.589 286.165L143.57 285.818L143.09 284.875L142.955 284.027L142.821 283.661L142.226 282.525L142.13 282.198L142.11 281.851L142.379 280.792V280.464L142.226 280.041L141.784 279.405L141.726 279.232L141.784 279.059L141.976 278.77L142.034 278.616L141.976 278.25L141.803 277.845L141.515 277.48L141.208 277.268L140.44 276.517L140.056 276.17L139.922 275.977L139.845 275.727L139.672 272.935L139.346 271.625L138.366 269.815L138.251 269.237L138.328 265.116L138.098 264.365L134.834 258.876L134.584 258.626L134.238 258.549L133.566 258.568L133.355 258.549L132.645 258.106L132.376 257.413V255.217L132.491 254.832L132.722 254.486L133.797 253.542L133.816 253.234L133.355 252.849L132.933 252.675L132.203 252.194L130.59 251.423L130.245 251.154L129.899 250.788L129.573 250.326L129.342 249.806L129.285 249.286L129.458 248.862L129.822 248.573L130.706 248.246L130.091 247.129L129.899 246.57L129.918 245.916L130.014 245.434L129.957 245.261L129.438 245.145L128.958 244.857L128.92 244.529L129.189 244.24L131.109 243.643L131.589 243.605L131.819 243.643L131.992 243.682L132.126 243.663L132.261 243.489L132.338 243.335L132.472 242.757L132.491 242.43L132.818 241.64L132.856 241.409L132.837 241.294L132.779 241.198L132.702 240.966L132.683 240.466L132.664 240.35L132.549 240.119L132.395 240.004L131.915 239.811L131.646 239.599L131.147 239.079L130.398 238.482L130.283 238.27L130.322 237.962L130.533 237.635L131.186 237.038L131.454 236.73L132.299 235.439L132.376 235.478L136.83 237.096L144.011 239.522L145.451 239.792L146.277 239.811L148.408 239.079L153.285 236.961L158.066 234.881L161.349 233.379L161.963 233.032L163.096 232.146L164.997 230.413L165.65 230.047L166.014 229.893L169.336 229.662L171.256 229.508L171.717 229.412L171.89 229.335L172.043 229.2L172.12 229.065L172.139 228.892L171.851 228.372L170.699 227.004L169.912 225.945L169.317 224.79L169.278 224.693L168.568 222.479L168.491 222.305L168.299 222.113L168.069 221.92L167.262 221.593L166.264 221.497L164.882 220.996L164.421 220.707L163.096 219.648L162.923 219.513L162.827 219.398L162.712 219.205L162.155 217.992L161.963 217.684L161.925 217.587V217.375V217.202L162.078 216.451L162.117 216.258V215.97L162.098 215.43V215.334L162.155 215.219L162.328 215.064L162.674 214.891L163.058 214.641L163.768 214.294L164.229 213.986L164.574 213.582L164.229 213.466L163.883 213.485L163.73 213.447L163.403 213.312L163.23 213.274L162.827 213.293L162.405 213.37H162.213L162.021 213.331L161.483 213.1L161.33 212.985L161.214 212.85L161.118 212.676L161.042 212.465L161.022 212.099L161.118 210.558L161.234 210.289L162.309 209.942L162.501 209.846L162.674 209.711L162.827 209.576L162.962 209.249L164.037 209.037L164.382 209.017L164.651 209.056L165.266 209.133L166.206 209.095L167.013 209.229H167.186L167.339 209.21L167.512 209.114L168.414 208.363L168.76 208.093L170.027 207.188L170.219 207.111L170.642 207.015L171.275 206.976L171.813 207.034L172.158 207.111H172.485L172.562 207.438L172.773 207.843L173.003 208.209L173.176 208.363L173.349 208.401L173.502 208.517L173.618 208.671L173.714 209.075L173.848 209.133L174.904 208.863H175.23L175.518 209.287L176.459 209.826L177.438 210.674L177.554 210.963L177.842 211.194L178.398 211.54L178.763 212.002L178.955 212.291L179.128 212.773L179.358 213.004L179.646 213.216L179.896 213.351L180.472 213.813L181.144 215.007L181.624 215.527L181.72 215.546L181.95 215.604L182.123 215.681L182.277 215.854L182.814 216.162L182.968 216.201L183.026 216.258L183.083 216.413Z" fill="#E83B3B" stroke="white" stroke-width="0.5" stroke-linecap="round" stroke-linejoin="round"/>
<path d="M232.293 250.653L215.397 250.711L215.128 250.615L214.994 250.403L214.514 249.228L214.303 248.901L214.111 248.747L213.976 248.804L213.861 248.92L213.669 249.209L213.573 249.344L213.362 249.517L213.151 249.613L212.844 249.652L212.69 249.71L212.556 249.787L212.44 249.921L212.172 250.326L212.076 250.422L211.864 250.499H211.711L210.981 250.345L210.002 250.326L209.656 250.287L209.445 249.575L208.792 242.796L208.562 242.295L208.504 242.122L207.832 230.548L207.871 229.527L208.255 226.754L208.101 226.484L207.122 226.6L206.796 226.581L206.373 226.446H206.181L205.989 226.6L205.816 226.947L205.663 228.16L205.586 228.391L205.471 228.584L205.336 228.738L205.125 228.834L204.895 228.892L204.607 228.93L204.319 228.911L204.069 228.834L203.935 228.699L203.858 228.507L203.82 228.314L203.167 226.003L203.071 225.887L202.744 225.791L202.572 225.618L202.437 225.425L202.303 225.271L202.053 225.194L201.592 225.156L201.362 225.117L201.17 225.002L201.055 224.828L201.016 224.597L200.997 224.366L200.94 224.154L200.728 223.769L200.421 223.557L200.076 223.384L199.768 223.114L199.653 222.922L199.538 222.479L199.442 222.248L199.231 221.824L199.173 221.612V221.343L199.212 221.092V220.88L199.154 220.669L199 220.457L198.847 220.303L199.116 219.802L199.519 219.32L199.576 219.205V219.109L199.48 218.839L199.442 218.55L199.48 217.895L199.442 217.684L199.269 217.51L198.904 217.337L198.751 217.221L198.501 216.952L198.271 216.759L198.098 216.682L197.81 216.586L197.676 216.49L197.484 216.181L197.426 215.912L197.445 215.661L197.407 215.546L197.215 215.392L197.196 215.296L197.253 214.987V214.795L197.215 214.699L196.927 214.467L196.677 214.044L196.524 213.37L196.274 212.946L195.948 212.522L195.736 212.118L195.487 211.81L195.295 211.675L195.16 211.54L194.93 211.29L194.642 210.481L194.124 209.48L193.912 209.152L193.202 208.401L193.106 208.228L193.029 207.92L193.125 207.458L193.356 207.188L193.701 206.899L194.988 205.59L195.314 205.185L197.81 201.449L197.906 201.141L197.887 200.756V200.583L197.964 200.39L198.079 200.274L198.674 199.87L198.847 199.812L199 199.793L199.308 199.831H199.461L199.807 199.735H199.941L200.114 199.793L200.652 199.735L200.767 199.427L200.863 199.119L200.786 198.792L200.652 198.541L200.517 198.117L200.344 197.886L199.634 197.289L198.29 195.749L197.772 195.325L197.618 195.248L197.196 195.113L196.274 194.574L196.044 194.381L195.045 193.322L194.892 193.207L194.738 193.13L194.392 192.995L194.008 192.802L192.53 191.185L192.319 190.799L191.973 189.471L191.935 189.163L191.896 189.008L191.8 188.854L191.57 188.566L191.493 188.411L191.512 188.219L191.704 187.892L191.781 187.526L192.338 186.582L192.396 186.466L192.338 186.312L192.088 186.197L191.954 186.062L191.896 185.831L191.935 185.561L192.05 185.292L192.184 185.061L192.319 184.887L192.684 184.637L192.837 184.483L192.914 184.04L192.952 183.944L193.432 182.807L193.471 182.576L193.432 182.403L193.279 182.21L193.24 182.076L193.279 181.922L193.567 181.44L193.202 181.421L193.221 181.228L193.567 180.785L193.605 180.458L193.567 180.169L193.548 179.88L193.682 179.534L193.548 179.206L193.605 178.898L193.72 178.609L193.797 178.359L193.72 178.108L193.432 177.685L193.356 177.357V176.78L193.375 176.683L193.471 176.472V176.279L193.375 175.932L193.202 175.624L192.972 175.374L192.703 175.162L192.914 174.989L193.125 174.969L193.356 175.046L193.567 175.162L193.586 174.892L193.49 174.7L193.125 174.372H193.567L193.759 174.334L193.855 173.968L214.533 175.066H214.86L214.898 175.008L214.591 174.873L214.034 174.719L213.842 174.642L213.688 174.527L213.285 174.064L213.132 173.852L213.055 173.544L213.016 173.294L212.997 172.89L212.959 172.716L212.882 172.562L212.556 172.139L212.364 171.734L212.191 171.522L212.056 171.387L211.941 171.31L211.442 171.079L211.269 170.983L210.789 170.579L210.636 170.482H210.444L210.271 170.444L210.098 170.328L209.368 169.558L209.253 169.327L209.176 168.537L209.08 168.325L208.888 168.056L208.677 167.921L208.293 167.786L208.14 167.671L207.986 167.517L206.335 164.936L205.759 163.299L205.26 162.51L205.144 162.24L204.972 161.47L205.048 161.065L205.144 160.834L205.202 160.526L205.221 160.064L205.144 159.216L205.125 157.329L204.76 155.789L205.509 155.442L210.924 153.843L219.698 148.759L233.58 140.69L241.97 135.799L241.989 135.78L242.066 135.799L242.488 136.203L242.642 136.28L243.391 136.454L244.101 136.377L244.773 136.126L245.848 135.568L246.079 135.587L246.328 135.683L246.885 135.799L247.212 135.991L247.404 136.068H247.557L247.922 135.953L248.959 135.991L249.112 135.895L249.208 135.568L249.439 135.414L250.111 135.317L250.168 135.26L250.36 135.144L250.552 135.105L250.648 135.26V135.914L250.956 136.242L251.647 136.377L252.415 136.415L252.914 136.531L253.221 136.819L253.336 136.896L254.412 137.359L256.754 139.227L257.292 139.516L257.656 139.593L257.752 139.631L257.829 139.708L257.906 139.901L257.983 139.978L258.117 140.055L259.308 140.344L259.576 140.498L259.692 140.806L259.73 141.249L259.826 141.692L259.96 142.115L260.114 142.462L260.248 142.597L260.594 142.886L260.613 142.982L260.536 143.155L260.632 143.252L260.882 143.386L260.92 143.521V143.617L260.786 143.926L260.575 144.677L260.421 145.043L260.133 145.274L259.768 145.389L259.653 145.466L259.576 145.697L259.5 146.063L259.48 146.429L259.538 146.641L259.749 147.007V147.431L259.692 147.874L259.711 148.316L259.864 148.605L260.728 149.318L260.863 149.587L261.093 150.608L261.612 151.764L261.688 152.457L261.208 152.611L261.458 153.15L262.226 153.67L262.418 154.036L262.764 161.431L262.687 161.624L257.868 161.681L258.693 162.413L261.477 165.783L262.917 167.517L263.128 167.883L263.263 168.287L263.762 174.026L263.954 176.452L264.184 180.073L264.492 180.766L264.972 180.901L269.042 181.055L275.032 181.267L278.028 181.382L281.004 181.498L286.994 181.71L291.122 181.864L291.468 181.806L291.794 181.652L291.909 181.498L292.12 181.093L292.255 181.016L292.927 181.036L293.08 181.17L293.157 182.769L293.1 183L292.735 183.308L292.716 183.597L293.042 184.194L292.831 184.791L291.256 186.601L290.988 187.102L290.872 187.66L290.93 188.373L291.256 189.605L291.295 190.241L291.276 190.357L291.122 190.665L291.084 190.819L291.103 191.011L291.256 191.82L291.525 192.321L291.621 192.629L291.717 193.784L291.794 194.035L291.967 194.324L292.044 194.69L292.063 196.153L292.14 196.789L292.428 197.27L293.023 197.598L293.522 197.655L293.676 197.713L293.829 197.809L294.098 198.04L294.271 198.137L294.386 198.195L294.655 198.233L294.789 198.31L294.962 198.541L295.212 199.1L295.461 199.273L295.672 199.331L295.845 199.35L296.018 199.408L296.229 199.543L296.652 200.024L296.824 200.14L297.381 200.39L297.573 200.486L298.264 201.064L298.706 201.257L299.301 201.411L299.896 201.449L300.357 201.314L300.703 201.257L300.972 201.295L301.336 201.449L301.548 201.661L301.701 202.046L301.74 202.451L301.72 202.836L301.759 203.105L301.74 203.741L301.778 204.049L301.912 204.357L302.066 204.569L302.258 204.761L302.488 204.916L302.738 205.031L302.604 205.551L302.661 205.744L302.949 206.09L303.18 206.495L303.141 206.784L302.661 206.841L304.12 209.403L304.927 211.425L305.464 212.445L306.098 212.792H306.405L306.674 212.85L306.808 213.004L306.789 213.37L305.714 213.389L305.426 213.447L305.215 213.639L302.757 221.574L301.836 224.52L302.469 224.578L302.623 224.713L302.7 225.04L302.796 226.042L302.872 226.754L302.008 226.831L301.74 227.004L299.8 231.068L298.245 234.38L296.46 238.213L296.575 238.675L299.032 240.947L300.626 242.411L300.453 242.623L300.28 242.892L300.05 243.143L299.704 243.316L299.301 243.2L299.052 243.181L298.936 243.258L298.898 243.393L298.802 243.528L298.648 243.624L298.456 243.663L298.072 243.817L297.573 244.548L297.17 244.702L297.055 244.76L296.882 245.049L296.786 245.145L296.594 245.261L295.922 245.511L295.903 245.068L296.152 244.183L296.172 243.836L296.152 243.123L296.191 242.757L296.133 242.218L295.864 241.255L295.845 240.735L295.884 240.177L295.826 239.926L295.672 239.734L292.12 237.519L289.183 235.69L286.264 233.86L282.54 231.53L281.618 230.875L281.311 230.798L277.068 230.856L274.111 230.895L271.154 230.933L266.911 230.991L259.231 232.666L253.912 233.822L248.594 234.996L243.276 236.152L239.724 236.691L239.474 236.807L239.34 236.999L238.61 239.06L237.285 242.757L236.479 244.491L235.423 246.089L232.293 250.653Z" fill="#E83B3B" stroke="white" stroke-width="0.5" stroke-linecap="round" stroke-linejoin="round"/>
<path d="M231.333 259.57L231.256 260.687L229.701 266.06L229.125 268.043L228.587 269.834L227.281 274.206L226.59 276.517L225.745 279.636L225.381 280.503L225.246 280.445L225.208 280.33L225.189 280.176L225.112 280.022L224.92 279.81L224.248 279.328L223.518 278.962L223.288 278.731L223.173 278.423V277.884L223.057 277.691L223.115 277.537V277.383L223.019 276.728L222.961 276.574L222.731 276.517L222.059 276.382L219.717 276.517L209.848 276.459L209.253 276.574L208.984 276.709L208.254 277.364L208.081 277.287L207.429 276.709L207.121 276.555L205.662 276.459L205.24 276.536L205.009 276.632L204.952 276.69V276.786L204.798 277.171L204.741 277.499L204.683 277.634L204.568 277.768L204.337 277.845L204.261 277.922L204.107 278.192L203.877 279.155L203.377 280.407L203.262 280.599L202.955 280.773L202.84 280.888L201.669 283.969L201.285 284.528L200.478 285.298L200.248 285.722L199.576 288.283L199.557 289.516L199.422 289.843L199.057 291.153L199.077 291.364L198.789 291.23L198.731 290.44L198.539 290.19L198.654 289.785L198.597 289.323L198.385 288.938L198.04 288.784L197.867 288.649L197.464 287.744L197.31 287.609L197.157 287.551L197.061 287.455L197.022 287.205L197.041 287.012L197.118 286.685V286.511L197.195 286.319L197.31 286.165L197.425 285.992L197.464 285.741L196.581 284.875L196.369 284.547L196.273 284.162L196.216 284.066L195.928 283.873L195.832 283.758L195.851 283.584L195.966 283.257L195.947 283.064L195.736 282.872L195.409 282.641L195.198 282.352L195.352 281.947L195.563 281.697L195.678 281.466L195.659 281.196L195.525 280.85L195.39 280.638L194.968 280.118L194.814 280.022L194.507 279.945L194.161 279.771L193.854 279.54L193.528 279.482L193.393 279.444L193.259 279.463L192.971 279.598L192.837 279.617L192.203 279.463L191.109 278.847L188.152 278.154L185.771 278.173L185.733 278.134L185.329 276.112L185.157 275.592L184.984 275.419L184.792 275.149L184.389 274.36L184.139 273.975L184.024 273.84L183.851 273.686L183.678 273.435L183.486 273.243L183.313 273.166L183.467 272.376L183.563 272.107L183.813 271.837L183.851 271.702L183.889 271.201L183.985 270.932L184.043 270.874L184.254 270.643L184.465 270.258L184.734 269.526L184.792 269.16V268.621L184.849 267.639L185.291 264.249L185.253 263.903V263.229L185.272 263.055L185.541 262.112L185.752 259.03L185.829 258.819L185.925 258.703L186.021 258.645H186.117L186.385 258.838L186.654 258.915H186.846L187.153 258.799L187.326 258.838L187.441 258.953L187.941 259.55L188.056 259.57L188.267 259.55L188.44 259.743L188.574 259.724L188.824 259.647L188.901 259.666L189.093 259.82L189.246 259.897H189.63L189.765 259.974L189.822 260.051L189.899 260.321L189.957 260.359L190.149 260.417L190.283 260.513L190.475 260.764L190.609 260.86L190.84 260.975L191.013 261.149L191.147 261.207L191.339 261.13L191.646 261.033L191.896 260.918L192.011 260.802L192.069 260.706L192.145 260.417L192.261 260.167L192.28 260.09V259.781L192.299 259.57L192.395 259.319L192.625 258.973L192.76 258.703L192.913 258.472L193.029 258.395L193.144 258.356L193.317 258.414L193.528 258.53L193.701 258.568L193.989 258.587L194.065 258.626L194.161 258.742L194.257 258.992L194.353 259.127L194.641 259.3L194.814 259.473L194.891 259.57L195.198 259.916L195.237 259.974L195.601 260.86L195.717 260.995L195.851 261.091H196.101L196.581 260.975L196.888 260.937L197.176 260.975L197.406 261.11L197.963 261.592L198.539 261.842L198.827 261.9L199.787 261.784L199.979 261.823L200.401 261.958L200.651 261.938L200.805 261.842L200.997 261.592L201.073 261.322L201.093 260.995V260.898L200.997 260.648L201.016 260.552L201.093 260.417L201.15 260.147L201.323 259.897L201.342 259.704L201.246 258.684L201.265 258.279L201.304 258.029L201.438 257.74L201.534 257.779L201.726 258.01L201.937 258.145L202.129 258.125L202.379 258.048H202.705L203.013 258.125L203.147 258.241L203.205 258.549L203.339 258.645H203.8L204.069 258.587L204.184 258.626L204.069 258.819L204.03 258.992L204.145 259.165L204.453 259.454V259.512H204.779L206.238 259.55L231.333 259.57Z" fill="#E83B3B" stroke="white" stroke-width="0.5" stroke-linecap="round" stroke-linejoin="round"/>
</g>
<g filter="url(#filter3_d_105_3493)">
<path fill-rule="evenodd" clip-rule="evenodd" d="M492.798 213.674C496.32 231.382 505.014 247.647 517.781 260.414L549.889 228.305H614.77L646.878 260.414C659.644 247.647 668.339 231.382 671.861 213.674C675.383 195.966 673.575 177.612 666.666 160.932C659.757 144.251 648.057 129.995 633.045 119.964C618.033 109.933 600.384 104.58 582.329 104.58C564.275 104.58 546.626 109.933 531.614 119.964C516.602 129.995 504.902 144.251 497.993 160.932C491.083 177.612 489.276 195.966 492.798 213.674ZM625.433 186.058C624.882 183.639 624.127 181.261 623.169 178.949C619.824 170.871 614.158 163.967 606.888 159.11C599.619 154.253 591.072 151.66 582.329 151.66C573.586 151.66 565.04 154.253 557.77 159.11C550.501 163.967 544.835 170.871 541.489 178.949C540.532 181.261 539.777 183.639 539.226 186.058H625.433Z" fill="#FAEC3A"/>
</g>
<g filter="url(#filter4_d_105_3493)">
<path fill-rule="evenodd" clip-rule="evenodd" d="M735.021 92.7541C717.313 96.2763 701.048 104.97 688.281 117.737L721.572 151.028C721.68 150.92 721.789 150.812 721.898 150.705L721.898 213.866C721.789 213.759 721.68 213.651 721.572 213.543L688.281 246.834C701.048 259.6 717.313 268.295 735.021 271.817C752.729 275.339 771.083 273.531 787.763 266.622C804.443 259.713 818.7 248.013 828.731 233.001C838.761 217.989 844.115 200.34 844.115 182.285C844.115 164.231 838.761 146.582 828.731 131.57C818.7 116.558 804.443 104.858 787.763 97.9487C771.083 91.0396 752.729 89.2318 735.021 92.7541ZM764.146 225.017C766.046 224.514 767.917 223.883 769.746 223.125C777.824 219.78 784.727 214.114 789.585 206.844C794.442 199.575 797.035 191.028 797.035 182.285C797.035 173.543 794.442 164.996 789.585 157.727C784.727 150.457 777.824 144.791 769.746 141.446C767.917 140.688 766.046 140.057 764.146 139.554L764.146 225.017Z" fill="#49AF50"/>
</g>
<g filter="url(#filter5_d_105_3493)">
<path fill-rule="evenodd" clip-rule="evenodd" d="M419.62 272.274C438.264 269.096 455.461 260.207 468.834 246.834L435.543 213.543C429.067 220.019 420.74 224.324 411.711 225.862C404.812 227.038 397.764 226.554 391.139 224.49L482.73 134.546L480.953 132.737C474.205 122.296 465.432 113.396 455.216 106.528L453.128 104.402L452.654 104.868C448.306 102.151 443.718 99.7935 438.929 97.8294C421.432 90.6519 402.137 89.0862 383.711 93.3489C365.285 97.6115 348.638 107.492 336.07 121.625C323.503 135.758 315.635 153.445 313.554 172.243C311.474 191.04 315.283 210.02 324.455 226.559C333.628 243.099 347.711 256.38 364.759 264.57C381.806 272.759 400.977 275.451 419.62 272.274ZM361.71 194.178L416.947 139.933C409.62 137.742 401.822 137.483 394.322 139.218C385.4 141.282 377.338 146.067 371.252 152.911C365.167 159.754 361.357 168.319 360.349 177.422C359.723 183.075 360.197 188.761 361.71 194.178Z" fill="#FAEC3A"/>
</g>
<defs>
<filter id="filter0_d_105_3493" x="0" y="-8.39233e-05" width="317.84" height="371" filterUnits="userSpaceOnUse" color-interpolation-filters="sRGB">
<feFlood flood-opacity="0" result="BackgroundImageFix"/>
<feColorMatrix in="SourceAlpha" type="matrix" values="0 0 0 0 0 0 0 0 0 0 0 0 0 0 0 0 0 0 127 0" result="hardAlpha"/>
<feOffset dy="4"/>
<feGaussianBlur stdDeviation="2"/>
<feComposite in2="hardAlpha" operator="out"/>
<feColorMatrix type="matrix" values="0 0 0 0 0 0 0 0 0 0 0 0 0 0 0 0 0 0 0.3 0"/>
<feBlend mode="normal" in2="BackgroundImageFix" result="effect1_dropShadow_105_3493"/>
<feBlend mode="normal" in="SourceGraphic" in2="effect1_dropShadow_105_3493" result="shape"/>
</filter>
<filter id="filter1_d_105_3493" x="870.292" y="98.5443" width="128.708" height="175.482" filterUnits="userSpaceOnUse" color-interpolation-filters="sRGB">
<feFlood flood-opacity="0" result="BackgroundImageFix"/>
<feColorMatrix in="SourceAlpha" type="matrix" values="0 0 0 0 0 0 0 0 0 0 0 0 0 0 0 0 0 0 127 0" result="hardAlpha"/>
<feOffset dy="4"/>
<feGaussianBlur stdDeviation="2"/>
<feComposite in2="hardAlpha" operator="out"/>
<feColorMatrix type="matrix" values="0 0 0 0 0 0 0 0 0 0 0 0 0 0 0 0 0 0 0.3 0"/>
<feBlend mode="normal" in2="BackgroundImageFix" result="effect1_dropShadow_105_3493"/>
<feBlend mode="normal" in="SourceGraphic" in2="effect1_dropShadow_105_3493" result="shape"/>
</filter>
<filter id="filter2_d_105_3493" x="111" y="74" width="200" height="226" filterUnits="userSpaceOnUse" color-interpolation-filters="sRGB">
<feFlood flood-opacity="0" result="BackgroundImageFix"/>
<feColorMatrix in="SourceAlpha" type="matrix" values="0 0 0 0 0 0 0 0 0 0 0 0 0 0 0 0 0 0 127 0" result="hardAlpha"/>
<feOffset dy="4"/>
<feGaussianBlur stdDeviation="2"/>
<feComposite in2="hardAlpha" operator="out"/>
<feColorMatrix type="matrix" values="0 0 0 0 0 0 0 0 0 0 0 0 0 0 0 0 0 0 0.3 0"/>
<feBlend mode="normal" in2="BackgroundImageFix" result="effect1_dropShadow_105_3493"/>
<feBlend mode="normal" in="SourceGraphic" in2="effect1_dropShadow_105_3493" result="shape"/>
</filter>
<filter id="filter3_d_105_3493" x="487.044" y="104.58" width="190.571" height="163.834" filterUnits="userSpaceOnUse" color-interpolation-filters="sRGB">
<feFlood flood-opacity="0" result="BackgroundImageFix"/>
<feColorMatrix in="SourceAlpha" type="matrix" values="0 0 0 0 0 0 0 0 0 0 0 0 0 0 0 0 0 0 127 0" result="hardAlpha"/>
<feOffset dy="4"/>
<feGaussianBlur stdDeviation="2"/>
<feComposite in2="hardAlpha" operator="out"/>
<feColorMatrix type="matrix" values="0 0 0 0 0 0 0 0 0 0 0 0 0 0 0 0 0 0 0.3 0"/>
<feBlend mode="normal" in2="BackgroundImageFix" result="effect1_dropShadow_105_3493"/>
<feBlend mode="normal" in="SourceGraphic" in2="effect1_dropShadow_105_3493" result="shape"/>
</filter>
<filter id="filter4_d_105_3493" x="684.281" y="91" width="163.834" height="190.571" filterUnits="userSpaceOnUse" color-interpolation-filters="sRGB">
<feFlood flood-opacity="0" result="BackgroundImageFix"/>
<feColorMatrix in="SourceAlpha" type="matrix" values="0 0 0 0 0 0 0 0 0 0 0 0 0 0 0 0 0 0 127 0" result="hardAlpha"/>
<feOffset dy="4"/>
<feGaussianBlur stdDeviation="2"/>
<feComposite in2="hardAlpha" operator="out"/>
<feColorMatrix type="matrix" values="0 0 0 0 0 0 0 0 0 0 0 0 0 0 0 0 0 0 0.3 0"/>
<feBlend mode="normal" in2="BackgroundImageFix" result="effect1_dropShadow_105_3493"/>
<feBlend mode="normal" in="SourceGraphic" in2="effect1_dropShadow_105_3493" result="shape"/>
</filter>
<filter id="filter5_d_105_3493" x="309" y="91" width="177.729" height="190.571" filterUnits="userSpaceOnUse" color-interpolation-filters="sRGB">
<feFlood flood-opacity="0" result="BackgroundImageFix"/>
<feColorMatrix in="SourceAlpha" type="matrix" values="0 0 0 0 0 0 0 0 0 0 0 0 0 0 0 0 0 0 127 0" result="hardAlpha"/>
<feOffset dy="4"/>
<feGaussianBlur stdDeviation="2"/>
<feComposite in2="hardAlpha" operator="out"/>
<feColorMatrix type="matrix" values="0 0 0 0 0 0 0 0 0 0 0 0 0 0 0 0 0 0 0.3 0"/>
<feBlend mode="normal" in2="BackgroundImageFix" result="effect1_dropShadow_105_3493"/>
<feBlend mode="normal" in="SourceGraphic" in2="effect1_dropShadow_105_3493" result="shape"/>
</filter>
<clipPath id="clip0_105_3493">
<rect width="192" height="218" fill="white" transform="translate(115 74)"/>
</clipPath>
</defs>
</svg>
