<?xml version="1.0" encoding="utf-8"?>
<!-- Generator: Adobe Illustrator 28.0.0, SVG Export Plug-In . SVG Version: 6.00 Build 0)  -->
<svg version="1.1" id="Capa_1" xmlns="http://www.w3.org/2000/svg" xmlns:xlink="http://www.w3.org/1999/xlink" x="0px" y="0px"
	 viewBox="0 0 200 200" style="enable-background:new 0 0 200 200;" xml:space="preserve">
<style type="text/css">
	.st0{clip-path:url(#SVGID_00000080897048583251438170000001365430160650853024_);fill:#FFE7B0;}
	.st1{clip-path:url(#SVGID_00000080897048583251438170000001365430160650853024_);}
	.st2{fill:#84411C;}
	.st3{fill:#FFB878;}
	.st4{opacity:0.4;fill:#D18C54;}
	.st5{fill:#70482C;}
	.st6{fill:#699E9D;}
	.st7{fill:#9BDDDD;}
	.st8{filter:url(#Adobe_OpacityMaskFilter);}
	.st9{filter:url(#Adobe_OpacityMaskFilter_00000094606307884403201820000012117909705780918699_);}
	
		.st10{mask:url(#SVGID_00000021808249245569151480000016371246456961491848_);fill:url(#SVGID_00000072982804682934889960000017012718217984884870_);}
	.st11{opacity:0.4;fill:url(#SVGID_00000089574453166036373190000006651965112057224093_);}
	.st12{filter:url(#Adobe_OpacityMaskFilter_00000072990114702481799850000011711676515923880836_);}
	.st13{filter:url(#Adobe_OpacityMaskFilter_00000074434133720289798330000000841944957861581758_);}
	
		.st14{mask:url(#SVGID_00000036215402443616559350000014426466129423413666_);fill:url(#SVGID_00000114755996322138710250000004241757060657075103_);}
	.st15{opacity:0.4;fill:url(#SVGID_00000081640148358627147530000018226160532488906144_);}
	.st16{filter:url(#Adobe_OpacityMaskFilter_00000134956311796026982570000016190271444577295781_);}
	.st17{filter:url(#Adobe_OpacityMaskFilter_00000071532553345321031250000000708095642515934861_);}
	
		.st18{mask:url(#SVGID_00000044136744172436520840000014721557320464559790_);fill:url(#SVGID_00000036954889927795044020000003564687369150166409_);}
	.st19{opacity:0.4;fill:url(#SVGID_00000122000089243854353170000000236888909800889781_);}
	.st20{fill:#A5704C;}
	.st21{fill:#D38563;}
	.st22{fill:#B75F41;}
	.st23{fill:#8AC4C2;}
	.st24{fill:#FFFFC0;}
	.st25{fill:#6A929E;}
	.st26{fill:#EAE8A4;}
	.st27{fill:#DFF7A4;}
	.st28{fill:#5E9E7F;}
	.st29{fill:#A4F7D1;}
	.st30{fill:#E85D42;}
	.st31{fill:#A3D6D3;}
	.st32{fill:#99806B;}
	.st33{fill:#D2E0A0;}
	.st34{fill:#FFF89C;}
	.st35{opacity:0.3;fill:#844820;}
	.st36{filter:url(#Adobe_OpacityMaskFilter_00000173842128171871293020000000562287806312097425_);}
	.st37{filter:url(#Adobe_OpacityMaskFilter_00000091730979280837634920000006815962891209350056_);}
	
		.st38{mask:url(#SVGID_00000145039220641967529980000016262246109885824641_);fill:url(#SVGID_00000163764114699365505730000015536116209713524144_);}
	.st39{opacity:0.5;fill:url(#SVGID_00000153700434829096392820000014227772288767686831_);}
	.st40{fill:#D18C54;}
	.st41{fill:#FFDB95;}
	.st42{fill:#A87654;}
	.st43{fill:#B5C64F;}
	.st44{fill:#593217;}
	.st45{fill:#DDC887;}
	.st46{fill:#513D30;}
	.st47{fill:#633118;}
	.st48{filter:url(#Adobe_OpacityMaskFilter_00000171696076083441583290000009955935282355870909_);}
	.st49{filter:url(#Adobe_OpacityMaskFilter_00000164480889067852444820000000885085299076011455_);}
	
		.st50{mask:url(#SVGID_00000010283977109452734280000005100765549483980212_);fill:url(#SVGID_00000002344544306249878950000005486891379788815518_);}
	.st51{opacity:0.6;fill:url(#SVGID_00000019677141452100413820000003764131747425180822_);}
</style>
<g>
	<defs>
		<circle id="SVGID_1_" cx="100.17" cy="102.24" r="95.83"/>
	</defs>
	<clipPath id="SVGID_00000034799282405491323910000011023720516088619964_">
		<use xlink:href="#SVGID_1_"  style="overflow:visible;"/>
	</clipPath>
	<path style="clip-path:url(#SVGID_00000034799282405491323910000011023720516088619964_);fill:#FFE7B0;" d="M207.51,104.13
		C206.95,44.34,159.09-3.7,100.6-3.15C42.12-2.61-4.85,46.31-4.29,106.11c0.56,59.8,48.43,107.83,106.91,107.29
		C161.11,212.86,208.07,163.93,207.51,104.13z"/>
	<g style="clip-path:url(#SVGID_00000034799282405491323910000011023720516088619964_);">
		<g>
			<path class="st2" d="M85.05,95.96c-0.24-12.53-5.31-22.6-11.32-22.48c-6.01,0.12-10.69,10.37-10.45,22.9
				c0.24,12.53,5.31,22.59,11.33,22.48C80.62,118.75,85.29,108.49,85.05,95.96z"/>
			<path class="st2" d="M87.92,72.09c8.66-9.06,12.15-19.78,7.8-23.93c-4.35-4.15-14.89-0.17-23.55,8.89
				c-8.66,9.06-12.15,19.78-7.8,23.93C68.73,85.13,79.27,81.16,87.92,72.09z"/>
			<path class="st2" d="M97.26,65.49c12.14,3.09,23.19,0.87,24.68-4.96c1.48-5.83-7.16-13.06-19.31-16.14
				c-12.15-3.09-23.19-0.87-24.68,4.96C76.46,55.17,85.11,62.4,97.26,65.49z"/>
			<path class="st2" d="M111.14,68.7c4.83,11.56,13.25,19.06,18.8,16.74c5.55-2.32,6.12-13.57,1.29-25.14
				c-4.83-11.56-13.25-19.06-18.8-16.74C106.88,45.88,106.3,57.13,111.14,68.7z"/>
			<path class="st2" d="M118.36,80.33c-0.02,15.29,4.83,27.69,10.84,27.7c6.01,0.01,10.91-12.37,10.94-27.66
				c0.03-15.29-4.83-27.69-10.84-27.7C123.29,52.66,118.39,65.04,118.36,80.33z"/>
			<path class="st3" d="M256.07,150.96c3.94-3.45,6.11-5.77,5.19-6.99c-0.92-1.21-3.03-0.04-6.91,2.59
				c-3.89,2.63-7.08,5.22-6.16,6.44C249.11,154.21,252.57,154.03,256.07,150.96z"/>
			<path class="st4" d="M256.07,150.96c3.94-3.45,6.11-5.77,5.19-6.99c-0.92-1.21-3.03-0.04-6.91,2.59
				c-3.89,2.63-7.08,5.22-6.16,6.44C249.11,154.21,252.57,154.03,256.07,150.96z"/>
			<path class="st3" d="M255.8,144.05c4.37-1.67,7.25-4.19,6.4-5.45c-0.85-1.26-3.87-1.46-7.89,0.96c-4.02,2.42-7.34,4.85-6.49,6.11
				C248.67,146.93,251.45,145.71,255.8,144.05z"/>
			<path class="st4" d="M255.8,144.05c4.37-1.67,7.25-4.19,6.4-5.45c-0.85-1.26-3.87-1.46-7.89,0.96c-4.02,2.42-7.34,4.85-6.49,6.11
				C248.67,146.93,251.45,145.71,255.8,144.05z"/>
			<path class="st3" d="M15.9,161.7c0.3,3.37,0.8,4.56,2.23,4.43c1.44-0.13,2.45-1.33,2.16-4.7c-0.3-3.37-1.5-4.79-2.94-4.66
				C15.91,156.9,15.6,158.33,15.9,161.7z"/>
			<path class="st3" d="M1.65,137c-3.98,0.45-6.21,1.07-7.76,4.25l0.59,6.54c3.21,0.18,9.98-1.7,12.35-5.6L1.65,137z"/>
			<path class="st4" d="M-5.52,147.79c3.21,0.18,9.98-1.7,12.35-5.6C1.19,138.91-4.41,141.19-5.52,147.79z"/>
			<path class="st5" d="M3.56,142.83c-3.18-1.8-5.37,0.95-6.83,2.67l0.91,6.41L7,147.59L3.56,142.83z"/>
			<path class="st3" d="M15.49,181.33c-0.22-11.46-14.89-17.45-20.27-17.35c-5.39,0.1-8.3,11.99-1.05,16.8
				c9.55,6.34,17.81,10.34,20.57,18.58C20.13,199.25,15.71,192.79,15.49,181.33z"/>
			<path class="st4" d="M6.34,185.72c6.99-2.45,15.98-12.81-8.22-21.38c-1.11-0.24-2.11-0.37-2.9-0.36
				c-5.39,0.1-8.3,11.99-1.05,16.8c9.55,6.34,17.81,10.34,20.57,18.58c0.96-0.02,1.6-0.25,2.01-0.66
				C13.75,191.41,10.8,188.09,6.34,185.72z"/>
			<path class="st3" d="M16.9,174.1c2.28-4.24,2.26-9.17,0.99-9.86c-1.27-0.68-3.56-1.11-5.84,3.13
				c-2.28,4.24,1.55,12.56,2.83,13.25C16.14,181.3,14.62,178.34,16.9,174.1z"/>
			<path class="st4" d="M14.5,172.24c1.3-2.42,2.84-4.86,4.16-6.38c-0.13-0.83-0.39-1.42-0.77-1.62c-1.27-0.68-3.56-1.11-5.84,3.13
				c-2.17,4.04,1.19,11.76,2.62,13.08C13.78,177.7,13.32,174.43,14.5,172.24z"/>
			<path class="st3" d="M222.23,159.25c5.89-12.72,13.21-21.15,21.06-19.77c8.94,1.58,13.01,15.34,3.61,22.28
				c-12.4,9.14-25.81,11.75-28.55,23.78C210.54,187.11,217.41,169.65,222.23,159.25z"/>
			<path class="st4" d="M243.3,139.48c-1.2-0.21-2.39-0.17-3.56,0.06c-33.71,34.03,7.73,18.48-1.58,25.35
				c-12.4,9.14-19.63,7.68-22.37,19.72c-0.12,0.02-0.22,0.03-0.34,0.04c0.55,0.82,1.48,1.18,2.91,0.89
				c2.74-12.03,16.15-14.64,28.55-23.78C256.31,154.82,252.24,141.06,243.3,139.48z"/>
			<polygon class="st6" points="115.43,150.84 83.78,154.38 81.95,164.5 118.72,160.13 			"/>
			<polygon class="st7" points="145.22,160.1 94.47,157.66 59.93,172.63 58.5,345.57 159.12,343.62 			"/>
			<defs>
				<filter id="Adobe_OpacityMaskFilter" filterUnits="userSpaceOnUse" x="58.5" y="187.84" width="100.62" height="157.73">
					<feFlood  style="flood-color:white;flood-opacity:1" result="back"/>
					<feBlend  in="SourceGraphic" in2="back" mode="normal"/>
				</filter>
			</defs>
			
				<mask maskUnits="userSpaceOnUse" x="58.5" y="187.84" width="100.62" height="157.73" id="SVGID_00000000930858831528518990000013125937120024203396_">
				<g class="st8">
					<defs>
						
							<filter id="Adobe_OpacityMaskFilter_00000015328414632976785770000007341216617420940719_" filterUnits="userSpaceOnUse" x="58.5" y="187.84" width="100.62" height="157.73">
							<feFlood  style="flood-color:white;flood-opacity:1" result="back"/>
							<feBlend  in="SourceGraphic" in2="back" mode="normal"/>
						</filter>
					</defs>
					
						<mask maskUnits="userSpaceOnUse" x="58.5" y="187.84" width="100.62" height="157.73" id="SVGID_00000000930858831528518990000013125937120024203396_">
						<g style="filter:url(#Adobe_OpacityMaskFilter_00000015328414632976785770000007341216617420940719_);">
						</g>
					</mask>
					
						<linearGradient id="SVGID_00000140729115552713872660000009025078849508484022_" gradientUnits="userSpaceOnUse" x1="96.7816" y1="361.7155" x2="113.3969" y2="172.6615" gradientTransform="matrix(0.9998 -0.0193 0.0193 0.9998 -0.8789 3.8173)">
						<stop  offset="0" style="stop-color:#B3B3B3"/>
						<stop  offset="1" style="stop-color:#FFFFFF"/>
					</linearGradient>
					
						<polygon style="mask:url(#SVGID_00000000930858831528518990000013125937120024203396_);fill:url(#SVGID_00000140729115552713872660000009025078849508484022_);" points="
						147.32,187.84 144.2,339.09 70.23,340.52 59.77,191.26 58.5,345.57 159.12,343.62 					"/>
				</g>
			</mask>
			
				<linearGradient id="SVGID_00000156578293129852203690000013800377328286585994_" gradientUnits="userSpaceOnUse" x1="96.7816" y1="361.7155" x2="113.3969" y2="172.6615" gradientTransform="matrix(0.9998 -0.0193 0.0193 0.9998 -0.8789 3.8173)">
				<stop  offset="0" style="stop-color:#FFD24D"/>
				<stop  offset="1" style="stop-color:#2D0049"/>
			</linearGradient>
			<polygon style="opacity:0.4;fill:url(#SVGID_00000156578293129852203690000013800377328286585994_);" points="147.32,187.84 
				144.2,339.09 70.23,340.52 59.77,191.26 58.5,345.57 159.12,343.62 			"/>
			<path class="st7" d="M23.7,195.42L9.61,206.61c6.99,76.87,51.59,122.22,51.31-5.94l-1-28.03
				C40.81,298.42,38.92,271.31,23.7,195.42z"/>
			<defs>
				
					<filter id="Adobe_OpacityMaskFilter_00000016786036970844892650000005641077008321881745_" filterUnits="userSpaceOnUse" x="9.59" y="194.24" width="51.31" height="87.23">
					<feFlood  style="flood-color:white;flood-opacity:1" result="back"/>
					<feBlend  in="SourceGraphic" in2="back" mode="normal"/>
				</filter>
			</defs>
			
				<mask maskUnits="userSpaceOnUse" x="9.59" y="194.24" width="51.31" height="87.23" id="SVGID_00000178172818554077261010000012557903178853183119_">
				<g style="filter:url(#Adobe_OpacityMaskFilter_00000016786036970844892650000005641077008321881745_);">
					<defs>
						
							<filter id="Adobe_OpacityMaskFilter_00000163039535179401919600000009395947069955432097_" filterUnits="userSpaceOnUse" x="9.59" y="194.24" width="51.31" height="87.23">
							<feFlood  style="flood-color:white;flood-opacity:1" result="back"/>
							<feBlend  in="SourceGraphic" in2="back" mode="normal"/>
						</filter>
					</defs>
					
						<mask maskUnits="userSpaceOnUse" x="9.59" y="194.24" width="51.31" height="87.23" id="SVGID_00000178172818554077261010000012557903178853183119_">
						<g style="filter:url(#Adobe_OpacityMaskFilter_00000163039535179401919600000009395947069955432097_);">
						</g>
					</mask>
					
						<linearGradient id="SVGID_00000127750144725730909440000010917100660449172140_" gradientUnits="userSpaceOnUse" x1="28.27" y1="289.404" x2="32.3382" y2="201.1546" gradientTransform="matrix(0.9998 -0.0193 0.0193 0.9998 -0.8789 3.8173)">
						<stop  offset="0" style="stop-color:#B3B3B3"/>
						<stop  offset="1" style="stop-color:#FFFFFF"/>
					</linearGradient>
					
						<path style="mask:url(#SVGID_00000178172818554077261010000012557903178853183119_);fill:url(#SVGID_00000127750144725730909440000010917100660449172140_);" d="
						M59.14,215.79c-4.99,91.2-34.83,54.73-40.86,3.16l9.35-4.67c-1.22-6.19-2.53-12.89-3.96-20.03L9.59,205.43
						c6.99,76.87,51.59,124.71,51.31-3.44C60.9,201.98,59.36,211.71,59.14,215.79z"/>
				</g>
			</mask>
			
				<linearGradient id="SVGID_00000159428174820744444570000005577702342605940656_" gradientUnits="userSpaceOnUse" x1="28.27" y1="289.404" x2="32.3382" y2="201.1546" gradientTransform="matrix(0.9998 -0.0193 0.0193 0.9998 -0.8789 3.8173)">
				<stop  offset="0" style="stop-color:#FFD24D"/>
				<stop  offset="1" style="stop-color:#2D0049"/>
			</linearGradient>
			<path style="opacity:0.4;fill:url(#SVGID_00000159428174820744444570000005577702342605940656_);" d="M59.14,215.79
				c-4.99,91.2-34.83,54.73-40.86,3.16l9.35-4.67c-1.22-6.19-2.53-12.89-3.96-20.03L9.59,205.43c6.99,76.87,51.59,124.71,51.31-3.44
				C60.9,201.98,59.36,211.71,59.14,215.79z"/>
			<path class="st7" d="M28.07,199.1c-0.41-2.49-2.04-4.61-4.34-5.64c-2.3-1.03-4.97-0.83-7.1,0.52l-9.3,5.93
				c-2.78,1.77-4.09,5.14-3.22,8.32l1.55,5.72c0.15,0.55,0.69,0.91,1.26,0.82l23.14-3.61L28.07,199.1z"/>
			<path class="st7" d="M206.28,177.7l14.95,13.81c-6.65,77.14-70.47,124.57-76.21-3.48l0.14-28.05
				C179.46,284.73,186.99,248.28,206.28,177.7z"/>
			<defs>
				
					<filter id="Adobe_OpacityMaskFilter_00000111885745514550177810000018232164942595579305_" filterUnits="userSpaceOnUse" x="146.29" y="177.7" width="74.93" height="89.88">
					<feFlood  style="flood-color:white;flood-opacity:1" result="back"/>
					<feBlend  in="SourceGraphic" in2="back" mode="normal"/>
				</filter>
			</defs>
			
				<mask maskUnits="userSpaceOnUse" x="146.29" y="177.7" width="74.93" height="89.88" id="SVGID_00000080906333469432329030000010163521239900984484_">
				<g style="filter:url(#Adobe_OpacityMaskFilter_00000111885745514550177810000018232164942595579305_);">
					<defs>
						
							<filter id="Adobe_OpacityMaskFilter_00000055665111503648253940000010083946337121744797_" filterUnits="userSpaceOnUse" x="146.29" y="177.7" width="74.93" height="89.88">
							<feFlood  style="flood-color:white;flood-opacity:1" result="back"/>
							<feBlend  in="SourceGraphic" in2="back" mode="normal"/>
						</filter>
					</defs>
					
						<mask maskUnits="userSpaceOnUse" x="146.29" y="177.7" width="74.93" height="89.88" id="SVGID_00000080906333469432329030000010163521239900984484_">
						<g style="filter:url(#Adobe_OpacityMaskFilter_00000055665111503648253940000010083946337121744797_);">
						</g>
					</mask>
					
						<linearGradient id="SVGID_00000085245924224056241660000008247008878970650258_" gradientUnits="userSpaceOnUse" x1="179.0874" y1="280.8762" x2="181.0454" y2="188.8504" gradientTransform="matrix(0.9998 -0.0193 0.0193 0.9998 -0.8789 3.8173)">
						<stop  offset="0" style="stop-color:#B3B3B3"/>
						<stop  offset="1" style="stop-color:#FFFFFF"/>
					</linearGradient>
					
						<path style="mask:url(#SVGID_00000080906333469432329030000010163521239900984484_);fill:url(#SVGID_00000085245924224056241660000008247008878970650258_);" d="
						M206.28,177.7c-1.8,6.61-3.51,12.91-5.14,18.82c2.71,4.29,6.2,11.7,10.86,15.84c-16.85,43.06-51.47,57.92-63.5-6.48
						c-1.54-8.24-2.67-4.22-2.02,1.81c11.15,103.07,68.46,56.7,74.75-16.17L206.28,177.7z"/>
				</g>
			</mask>
			
				<linearGradient id="SVGID_00000044152913001720142930000015515477093986785948_" gradientUnits="userSpaceOnUse" x1="179.0874" y1="280.8762" x2="181.0454" y2="188.8504" gradientTransform="matrix(0.9998 -0.0193 0.0193 0.9998 -0.8789 3.8173)">
				<stop  offset="0" style="stop-color:#FFD24D"/>
				<stop  offset="1" style="stop-color:#2D0049"/>
			</linearGradient>
			<path style="opacity:0.4;fill:url(#SVGID_00000044152913001720142930000015515477093986785948_);" d="M206.28,177.7
				c-1.8,6.61-3.51,12.91-5.14,18.82c2.71,4.29,6.2,11.7,10.86,15.84c-16.85,43.06-51.47,57.92-63.5-6.48
				c-1.54-8.24-2.67-4.22-2.02,1.81c11.15,103.07,68.46,56.7,74.75-16.17L206.28,177.7z"/>
			<path class="st7" d="M200.53,179.27c0.45-2.46,2.19-4.5,4.56-5.31c2.37-0.81,4.99-0.29,6.86,1.38l14.64,13.06
				c1.91,1.7,2.33,4.53,1,6.71l-5.17,8.48l-23.17-9.99c-0.72-0.31-1.14-1.08-0.99-1.86L200.53,179.27z"/>
			<path class="st5" d="M11.24,147.62C0,144.9-1.85,147.63-5.84,155.07l7.14,20.16c8.36,1.21,16.49-2.33,19.48-9.11L11.24,147.62z"
				/>
			<path class="st20" d="M17.4,162.67c0,0-9.09,1.02-14.2,3.62l-5.85-13.81c0,0,9.93-4.18,13.49-2.86L17.4,162.67z"/>
			<polygon class="st21" points="84.65,161.88 100.16,186.52 117.22,158.5 97.74,155.95 			"/>
			<path class="st22" d="M108.67,161.15c-0.09-4.66-17.79-4.33-17.7,0.34C93.56,167.31,108,167.44,108.67,161.15z"/>
			<path class="st3" d="M106.6,140.19l-13.93,0.27l0.4,20.53c2.98,2.51,8.32,3.69,13.95,0.65L106.6,140.19z"/>
			<polygon class="st23" points="100.16,186.52 96.91,181.36 97.51,334.06 103.38,333.94 			"/>
			<polygon class="st23" points="140.28,216.16 117.73,216.32 117.29,221.47 140.41,222.76 			"/>
			<polygon class="st23" points="90.39,170.99 88.54,164.01 81.59,174.05 			"/>
			<polygon class="st7" points="83.78,154.38 77.3,161.11 81.59,174.05 88.54,164.01 			"/>
			<polygon class="st23" points="109.45,171.27 109.19,164.02 116.11,172.28 			"/>
			<polygon class="st7" points="115.43,150.84 120.36,159.18 116.11,172.28 109.19,164.02 			"/>
			<polygon class="st23" points="215.73,190.92 216.61,201.08 208.65,197.65 			"/>
			<path class="st3" d="M-5.06,159.81c0.3-4.81,0.01-6.57-1.43-6.66c-1.44-0.09-2.65,1.41-2.95,6.22c-0.3,4.81,0.63,8.78,2.07,8.87
				C-5.93,168.33-5.36,164.62-5.06,159.81z"/>
			<path class="st4" d="M-6.49,153.15c-0.48-0.03-0.93,0.14-1.33,0.52c-0.02,0.32-0.4,1.66-0.42,2.01c-0.24,3.9-0.29,6.04-1.21,7.05
				c0.2,3.17,1,5.43,2.08,5.5c1.44,0.09,2.01-3.62,2.31-8.43C-4.77,155-5.05,153.24-6.49,153.15z"/>
			<path class="st3" d="M-1.13,154.03c3.64-1.76,4.78-2.74,4.15-4.05c-0.63-1.3-2.3-1.73-5.94,0.03c-3.64,1.76-6.08,4.23-5.45,5.53
				C-7.74,156.85-4.77,155.79-1.13,154.03z"/>
			<path class="st4" d="M-2.52,153.62c-2.33,1.13-4.38,1.96-5.72,2.07c0.8,1.04,3.64,0.02,7.11-1.65c2.03-0.98,3.26-1.72,3.86-2.41
				C1.76,152.31-0.3,152.55-2.52,153.62z"/>
			<path class="st20" d="M-26.31,187.6c-0.33,0.01-0.66-0.02-0.98-0.07c-3.37-0.56-6.33-4.13-8.34-10.07l0.74-0.25
				c2.58,7.61,5.94,9.25,7.72,9.54c1.85,0.3,3.69-0.54,5.06-2.32c1.99-2.59,3.32-7.81,0.52-14c-1.91-4.22-2.82-13.92,0.03-20.14
				c1.27-2.77,3.12-4.53,5.5-5.24c4.48-1.32,9.77,1.35,13.64,3.29l0.37,0.19l-0.35,0.7l-0.37-0.19c-3.75-1.89-8.88-4.48-13.06-3.24
				c-2.15,0.64-3.84,2.25-5.01,4.81c-2.76,6.02-1.87,15.41-0.03,19.49c2.94,6.51,1.51,12.04-0.61,14.81
				C-22.79,186.62-24.51,187.56-26.31,187.6z"/>
			<polygon class="st23" points="15.39,204.96 14.25,213.63 21.58,212.48 			"/>
			
				<rect x="111.18" y="222.05" transform="matrix(0.9998 -0.0193 0.0193 0.9998 -4.3889 2.4063)" class="st6" width="22.49" height="12.88"/>
			
				<rect x="112" y="220.65" transform="matrix(0.9998 -0.0193 0.0193 0.9998 -4.3545 2.4179)" class="st24" width="22.49" height="12.88"/>
			
				<rect x="122.7" y="213.6" transform="matrix(0.9998 -0.0195 0.0195 0.9998 -4.21 2.4686)" class="st25" width="4.07" height="7.87"/>
			<polygon class="st26" points="127.72,212.89 123.66,212.97 123.46,216.51 127.53,216.43 			"/>
			
				<rect x="134.86" y="207.01" transform="matrix(0.9998 -0.019 0.019 0.9998 -3.9938 2.6256)" class="st27" width="3.35" height="10.03"/>
			
				<rect x="96.89" y="183.95" transform="matrix(0.9998 -0.0195 0.0195 0.9998 -3.6192 1.9709)" class="st28" width="4.92" height="5.6"/>
			
				<rect x="98.04" y="182.09" transform="matrix(0.9998 -0.0195 0.0195 0.9998 -3.5818 1.9923)" class="st29" width="4.92" height="5.6"/>
			<g>
				
					<rect x="114.19" y="225.5" transform="matrix(0.9998 -0.0194 0.0194 0.9998 -4.3767 2.3408)" class="st30" width="8.86" height="3.08"/>
				
					<rect x="117.07" y="222.61" transform="matrix(0.9998 -0.0196 0.0196 0.9998 -4.4306 2.3703)" class="st30" width="3.08" height="8.85"/>
			</g>
			
				<rect x="126.6" y="223.38" transform="matrix(0.9998 -0.0194 0.0194 0.9998 -4.3903 2.5544)" class="st31" width="5.9" height="8.66"/>
			<path class="st3" d="M235.03,149.69c1.97-6.02,1.48-11.59-1.1-12.43c-2.57-0.84-5.08,3.87-7.05,9.89
				c-1.97,6.02-3.69,10.3-1.11,11.14C228.35,159.14,233.06,155.72,235.03,149.69z"/>
			<path class="st4" d="M233.93,137.26c-0.96-0.31-1.92,0.15-2.84,1.17c2.05,1.46,2.32,6.59,0.51,12.12
				c-1.21,3.72-3.48,6.45-5.64,7.79c2.61,0.63,7.15-2.76,9.07-8.65C237,143.67,236.51,138.1,233.93,137.26z"/>
			<path class="st32" d="M228.42,154.86c10.37-14.31,14.25-23.97,16.14-40.46c1.64-6.72,18.86-11.78,23.39-1.63
				c0.26,13.57-16.11,42.62-25.24,48.31C234.89,160.82,230.88,159.05,228.42,154.86z"/>
			<path class="st33" d="M227.02,154.49c10.37-14.32,14.25-23.97,16.14-40.46c1.64-6.72,18.86-11.78,23.39-1.63
				c0.26,13.57-16.11,42.62-25.24,48.31C233.5,160.45,229.48,158.68,227.02,154.49z"/>
			<g>
				<path class="st32" d="M242.4,156.38c2.03-0.84,3.27-2.53,2.76-3.78c-0.51-1.25-2.58-1.59-4.62-0.75
					c-2.04,0.84-3.27,2.53-2.76,3.78C238.29,156.88,240.36,157.22,242.4,156.38z"/>
				<path class="st34" d="M242.12,155.62c2.04-0.84,3.27-2.53,2.76-3.78c-0.51-1.25-2.58-1.59-4.62-0.75
					c-2.04,0.84-3.27,2.53-2.75,3.78C238.02,156.12,240.09,156.45,242.12,155.62z"/>
				<path class="st35" d="M240.81,152.67c1.22-0.5,2.41-0.67,3.28-0.53l0,0c-0.41-1-2.07-1.27-3.7-0.6
					c-1.61,0.66-2.58,1.98-2.22,2.98C238.7,153.84,239.64,153.15,240.81,152.67z"/>
			</g>
			<g>
				<path class="st32" d="M239.19,148.38c2.04-0.84,3.27-2.53,2.76-3.78c-0.51-1.25-2.58-1.59-4.62-0.75
					c-2.04,0.84-3.27,2.53-2.76,3.78C235.09,148.88,237.15,149.21,239.19,148.38z"/>
				<path class="st34" d="M238.92,147.61c2.03-0.84,3.27-2.53,2.75-3.78c-0.51-1.25-2.58-1.58-4.62-0.75
					c-2.04,0.84-3.27,2.53-2.76,3.78C234.81,148.11,236.88,148.45,238.92,147.61z"/>
				<path class="st35" d="M237.6,144.66c1.22-0.5,2.41-0.67,3.28-0.53l0,0c-0.41-1-2.07-1.27-3.7-0.6
					c-1.61,0.66-2.58,1.98-2.22,2.98C235.5,145.83,236.43,145.15,237.6,144.66z"/>
			</g>
			<g>
				<path class="st32" d="M250.76,144.47c1.77-1.3,2.56-3.24,1.76-4.33c-0.8-1.09-2.89-0.91-4.66,0.39
					c-1.77,1.3-2.56,3.25-1.76,4.34C246.9,145.95,248.99,145.78,250.76,144.47z"/>
				<path class="st34" d="M250.31,143.8c1.77-1.3,2.56-3.25,1.76-4.33c-0.8-1.09-2.89-0.92-4.66,0.39c-1.77,1.3-2.56,3.24-1.76,4.33
					C246.45,145.28,248.54,145.1,250.31,143.8z"/>
				<path class="st35" d="M248.32,141.26c1.06-0.78,2.18-1.23,3.06-1.31l0,0c-0.64-0.87-2.32-0.73-3.74,0.31
					c-1.4,1.03-2.03,2.55-1.43,3.43C246.56,142.9,247.3,142.01,248.32,141.26z"/>
			</g>
			<g>
				<path class="st32" d="M247.32,134.41c1.77-1.3,2.56-3.24,1.76-4.33c-0.8-1.09-2.89-0.91-4.66,0.39
					c-1.77,1.3-2.56,3.24-1.76,4.33C243.45,135.89,245.54,135.71,247.32,134.41z"/>
				<path class="st34" d="M246.87,133.73c1.77-1.3,2.56-3.24,1.76-4.34c-0.8-1.09-2.89-0.91-4.66,0.39
					c-1.77,1.3-2.56,3.25-1.76,4.34C243.01,135.21,245.1,135.04,246.87,133.73z"/>
				<path class="st35" d="M244.88,131.19c1.07-0.78,2.18-1.23,3.06-1.31l0,0c-0.64-0.87-2.32-0.74-3.74,0.31
					c-1.4,1.03-2.03,2.55-1.43,3.43C243.12,132.83,243.86,131.94,244.88,131.19z"/>
			</g>
			<g>
				<path class="st32" d="M258.9,129.73c1.7-1.41,2.37-3.39,1.5-4.43c-0.86-1.04-2.94-0.74-4.63,0.66c-1.69,1.41-2.36,3.39-1.5,4.43
					C255.13,131.43,257.21,131.13,258.9,129.73z"/>
				<path class="st34" d="M258.41,129.08c1.69-1.4,2.36-3.39,1.5-4.43c-0.86-1.04-2.94-0.74-4.63,0.66
					c-1.69,1.41-2.36,3.39-1.5,4.43C254.65,130.78,256.72,130.48,258.41,129.08z"/>
				<path class="st35" d="M256.28,126.66c1.01-0.84,2.1-1.36,2.97-1.49l0,0c-0.69-0.84-2.35-0.6-3.71,0.53
					c-1.33,1.11-1.87,2.66-1.23,3.51C254.62,128.4,255.3,127.47,256.28,126.66z"/>
			</g>
			<g>
				<path class="st32" d="M262.17,117.11c1.42-1.68,1.73-3.75,0.69-4.62c-1.04-0.87-3.02-0.21-4.44,1.48
					c-1.41,1.68-1.73,3.75-0.69,4.62C258.77,119.46,260.76,118.8,262.17,117.11z"/>
				<path class="st34" d="M261.58,116.56c1.42-1.68,1.73-3.75,0.69-4.63c-1.03-0.87-3.02-0.21-4.44,1.47
					c-1.42,1.68-1.73,3.76-0.69,4.63C258.18,118.91,260.16,118.25,261.58,116.56z"/>
				<path class="st35" d="M259.05,114.56c0.85-1.01,1.83-1.71,2.67-1.99v0c-0.83-0.7-2.43-0.17-3.56,1.18
					c-1.12,1.33-1.37,2.95-0.59,3.67C257.72,116.57,258.23,115.53,259.05,114.56z"/>
			</g>
			<g>
				<path class="st32" d="M250.46,121.77c1.42-1.68,1.72-3.75,0.69-4.62c-1.04-0.87-3.02-0.21-4.44,1.48
					c-1.42,1.68-1.72,3.76-0.69,4.62C247.05,124.11,249.04,123.45,250.46,121.77z"/>
				<path class="st34" d="M249.86,121.22c1.42-1.68,1.73-3.76,0.69-4.63c-1.03-0.87-3.02-0.21-4.44,1.48
					c-1.42,1.69-1.73,3.76-0.69,4.62C246.46,123.56,248.44,122.9,249.86,121.22z"/>
				<path class="st35" d="M247.33,119.21c0.85-1.01,1.82-1.71,2.66-1.99l0,0c-0.83-0.7-2.43-0.17-3.56,1.18
					c-1.12,1.33-1.37,2.95-0.59,3.67C246.01,121.22,246.51,120.18,247.33,119.21z"/>
			</g>
			<path class="st3" d="M253.17,152.99c1.26-4.2,0.66-7.02-0.8-7.45c-1.46-0.44-2.3,1.65-3.56,5.84c-1.26,4.2-2.02,7.99-0.56,8.42
				C249.71,160.23,251.91,157.18,253.17,152.99z"/>
			<path class="st4" d="M253.17,152.99c1.26-4.2,0.66-7.02-0.8-7.45c-1.46-0.44-2.3,1.65-3.56,5.84c-1.26,4.2-2.02,7.99-0.56,8.42
				C249.71,160.23,251.91,157.18,253.17,152.99z"/>
			<path class="st3" d="M248.92,151.25c3.49-1.49,4.97-3.62,4.37-5.02c-0.6-1.4-2.46-0.84-5.95,0.65c-3.49,1.49-6.41,3.13-5.82,4.53
				C242.11,152.81,245.43,152.74,248.92,151.25z"/>
			<path class="st4" d="M253.28,146.23c-0.07-0.18-0.17-0.32-0.28-0.43c-0.21,1.35-1.87,3.05-5,4.39c-2.51,1.07-4.89,1.51-6.43,1.31
				c0.7,1.3,3.93,1.21,7.34-0.25C252.41,149.76,253.88,147.63,253.28,146.23z"/>
			<path class="st3" d="M255.35,145.89c3.71,0.81,6.14-0.08,6.46-1.57c0.32-1.49-1.53-2.1-5.24-2.91c-3.71-0.8-7.04-1.16-7.37,0.33
				C248.9,143.23,251.64,145.08,255.35,145.89z"/>
			<path class="st4" d="M261.3,142.99c0,0.03,0.01,0.06,0,0.1c-0.26,1.5-2.72,2.48-6.6,1.82c-1.99-0.34-3.72-0.97-4.92-1.7
				c0.96,1.09,3.02,2.13,5.57,2.69c3.71,0.81,6.14-0.08,6.46-1.57C261.94,143.78,261.75,143.35,261.3,142.99z"/>
			<path class="st3" d="M238.47,139.88c3.62-1.54,5.09-3.86,4.42-5.44c-0.67-1.57-2.61-1.01-6.22,0.53
				c-3.61,1.54-6.62,3.27-5.95,4.84C231.38,141.4,234.86,141.42,238.47,139.88z"/>
			<path class="st3" d="M264.57,134.19c1.31-4.02,0.66-5.89-0.86-6.06c-1.51-0.17-2.27,1.59-3.18,5.05
				c-1.09,4.11-1.34,7.26,0.17,7.43C262.21,140.77,263.26,138.2,264.57,134.19z"/>
			<path class="st4" d="M264.79,128.94c-1.3,4.01-2.36,6.58-3.87,6.41c-0.36-0.04-0.61-0.26-0.78-0.6
				c-0.74,3.31-0.76,5.71,0.55,5.85c1.51,0.17,2.56-2.4,3.87-6.41c0.9-2.77,0.86-4.5,0.26-5.37
				C264.81,128.87,264.8,128.9,264.79,128.94z"/>
			<defs>
				
					<filter id="Adobe_OpacityMaskFilter_00000014621926954188502880000003461942000842530205_" filterUnits="userSpaceOnUse" x="59.93" y="140.19" width="85.29" height="45.71">
					<feFlood  style="flood-color:white;flood-opacity:1" result="back"/>
					<feBlend  in="SourceGraphic" in2="back" mode="normal"/>
				</filter>
			</defs>
			
				<mask maskUnits="userSpaceOnUse" x="59.93" y="140.19" width="85.29" height="45.71" id="SVGID_00000086676682415772341960000011898258385792905357_">
				<g style="filter:url(#Adobe_OpacityMaskFilter_00000014621926954188502880000003461942000842530205_);">
					<defs>
						
							<filter id="Adobe_OpacityMaskFilter_00000173119546197544274860000009244089714038449052_" filterUnits="userSpaceOnUse" x="59.93" y="140.19" width="85.29" height="45.71">
							<feFlood  style="flood-color:white;flood-opacity:1" result="back"/>
							<feBlend  in="SourceGraphic" in2="back" mode="normal"/>
						</filter>
					</defs>
					
						<mask maskUnits="userSpaceOnUse" x="59.93" y="140.19" width="85.29" height="45.71" id="SVGID_00000086676682415772341960000011898258385792905357_">
						<g style="filter:url(#Adobe_OpacityMaskFilter_00000173119546197544274860000009244089714038449052_);">
						</g>
					</mask>
					
						<linearGradient id="SVGID_00000170993872389304352130000001602221943002566320_" gradientUnits="userSpaceOnUse" x1="97.2529" y1="204.107" x2="105.2767" y2="99.7974" gradientTransform="matrix(0.9998 -0.0193 0.0193 0.9998 -0.8789 3.8173)">
						<stop  offset="0" style="stop-color:#B3B3B3"/>
						<stop  offset="1" style="stop-color:#FFFFFF"/>
					</linearGradient>
					
						<path style="mask:url(#SVGID_00000086676682415772341960000011898258385792905357_);fill:url(#SVGID_00000170993872389304352130000001602221943002566320_);" d="
						M145.22,160.1l-0.03,0c-0.01-0.04-0.02-0.08-0.04-0.12l0,0.12l-24.97-1.2l-4.76-8.06l-8.6,0.97l-0.22-11.61l-13.93,0.27
						l0.25,12.9l-9.15,1.02l-6.47,6.73l1.16,3.49l-18.53,8.03C67.05,189.53,134.07,195.06,145.22,160.1z"/>
				</g>
			</mask>
			
				<linearGradient id="SVGID_00000054263809054415880840000015748769807774269841_" gradientUnits="userSpaceOnUse" x1="97.2529" y1="204.107" x2="105.2767" y2="99.7974" gradientTransform="matrix(0.9998 -0.0193 0.0193 0.9998 -0.8789 3.8173)">
				<stop  offset="0" style="stop-color:#FFD24D"/>
				<stop  offset="1" style="stop-color:#2D0049"/>
			</linearGradient>
			<path style="opacity:0.5;fill:url(#SVGID_00000054263809054415880840000015748769807774269841_);" d="M145.22,160.1l-0.03,0
				c-0.01-0.04-0.02-0.08-0.04-0.12l0,0.12l-24.97-1.2l-4.76-8.06l-8.6,0.97l-0.22-11.61l-13.93,0.27l0.25,12.9l-9.15,1.02
				l-6.47,6.73l1.16,3.49l-18.53,8.03C67.05,189.53,134.07,195.06,145.22,160.1z"/>
			<path class="st40" d="M134.02,108.12c-0.48-24.6-16.47-50.64-33.78-50.31c-17.31,0.33-33.88,30.32-33.41,54.92
				c0.48,24.6,16.85,35.77,34.15,35.43C118.3,147.82,134.49,132.72,134.02,108.12z"/>
			<path class="st3" d="M71.21,110.15c-1.49-3.56-4.38-5.74-6.45-4.87c-2.07,0.87-2.54,4.46-1.05,8.01
				c1.49,3.56,4.38,5.73,6.45,4.87C72.23,117.3,72.7,113.71,71.21,110.15z"/>
			<path class="st40" d="M71.03,110.42c-1.03-2.46-3.03-3.97-4.46-3.37c-1.43,0.6-1.76,3.08-0.73,5.54
				c1.04,2.46,3.03,3.97,4.46,3.36C71.74,115.36,72.06,112.88,71.03,110.42z"/>
			<path class="st3" d="M137.28,108.34c1.57-3.52,1.17-7.12-0.88-8.03c-2.05-0.91-4.98,1.21-6.55,4.73
				c-1.56,3.52-1.17,7.12,0.88,8.03C132.78,113.99,135.72,111.87,137.28,108.34z"/>
			<path class="st40" d="M135.57,107.17c0.8-2.55,0.25-4.99-1.23-5.45c-1.48-0.47-3.33,1.22-4.13,3.76
				c-0.8,2.54-0.25,4.98,1.23,5.45C132.92,111.4,134.77,109.71,135.57,107.17z"/>
			<path class="st3" d="M132.35,106.31c-0.48-24.6-15.84-50.66-32.44-50.34c-16.6,0.32-32.48,30.29-32.01,54.89
				c0.48,24.6,16.19,35.78,32.8,35.46C117.31,146.01,132.83,130.91,132.35,106.31z"/>
			<polygon class="st2" points="135.54,87.97 125.34,76.36 129.75,107.5 132,109.03 			"/>
			<polygon class="st2" points="64.58,92.49 74.45,80.49 71.2,111.78 68.99,113.4 			"/>
			<path class="st3" d="M-3.49,164.42c2.28-4.25,2.76-5.96,1.49-6.65c-1.27-0.69-3,0.17-5.28,4.42c-2.28,4.24-3.1,8.24-1.82,8.92
				C-7.83,171.79-5.76,168.66-3.49,164.42z"/>
			<path class="st4" d="M-2,157.77c-0.31-0.17-0.66-0.24-1.02-0.2c-0.13,0.25-0.24,0.47-0.39,0.74c-2.05,3.83-3.93,6.72-5.21,6.76
				c-1.2,3.04-1.46,5.51-0.49,6.03c1.27,0.68,3.34-2.45,5.62-6.69C-1.2,160.17-0.73,158.45-2,157.77z"/>
			<path class="st3" d="M1.29,161.78c3.59,0.75,4.97,0.63,5.26-0.78c0.29-1.41-0.65-2.75-4.24-3.5c-3.59-0.75-6.74-0.21-7.03,1.21
				C-5.01,160.13-2.3,161.03,1.29,161.78z"/>
			<path class="st3" d="M-2.51,170.96c2.28-4.25,2.76-5.97,1.49-6.65c-1.27-0.68-3,0.17-5.28,4.42c-2.28,4.25-3.1,8.24-1.82,8.92
				C-6.85,178.33-4.78,175.2-2.51,170.96z"/>
			<path class="st4" d="M-1.02,164.31c-0.15-0.08-0.32-0.14-0.48-0.17c-0.17,0.33-1.6,1.33-1.8,1.69c-2.28,4.25-3.07,6.7-4.34,6.01
				c-0.03-0.01-0.04-0.05-0.06-0.06c-1.15,2.97-1.38,5.36-0.42,5.88c1.27,0.69,3.34-2.45,5.62-6.69
				C-0.23,166.71,0.25,164.99-1.02,164.31z"/>
			<path class="st3" d="M1.23,169.17c3.01,1.56,4.28,1.77,4.94,0.49c0.66-1.28,0.19-2.78-2.82-4.34c-3.01-1.55-5.99-1.78-6.65-0.49
				C-3.96,166.11-1.78,167.62,1.23,169.17z"/>
			<path class="st4" d="M0.22,166.48c-1.79-0.77-2.84-1.13-3.52-0.66c0.47,1.04,2.26,2.18,4.52,3.35c2.71,1.4,4,1.7,4.71,0.82
				C3.02,170.02,2.23,167.35,0.22,166.48z"/>
			<path class="st4" d="M-0.57,159.41c-1.73-0.36-2.58-0.11-3.7,0.38c0.88,0.83,2.99,1.45,5.56,1.99c3.59,0.75,4.97,0.63,5.26-0.78
				c0.01-0.03,0-0.05,0.01-0.07C3.81,162.19,1.69,159.89-0.57,159.41z"/>
			<g>
				<polygon class="st41" points="1.81,146.86 6.37,146.72 4.89,144.66 1.37,144.88 				"/>
				<path class="st41" d="M3.81,148.51l7.42,16.39c5.69-1.62,8.72-1.31,9.16,2.01c0.14-0.26,0.28-0.52,0.4-0.8l-9.55-18.49
					c-0.94-0.22-1.81-0.41-2.62-0.56L3.81,148.51z"/>
			</g>
			<polygon class="st42" points="-27.84,185.33 -33.17,183.66 -38.1,172.04 -29.84,168.23 -25.39,179.76 			"/>
			<polygon class="st43" points="-27.16,186.75 -34.26,188.27 -47.24,178.29 -40.35,168.71 -27.95,178.9 			"/>
			<path class="st44" d="M77.85,124.1l44.6-0.99C111.89,147.37,84.37,144.68,77.85,124.1z"/>
			<polygon class="st45" points="82.22,125.8 85.08,131.45 115.57,130.86 118.8,124.9 			"/>
			<path class="st40" d="M107.54,112.42c-0.1-5.27-3.71-3.57-6.75-18.57c0.66,13.76,5.3,14.46,5.37,18.49
				c0.1,5.27-4.47,3.14-4.44,4.42C101.76,118.63,107.65,117.69,107.54,112.42z"/>
			<path class="st46" d="M90.34,97.11c-0.1-5.22-1.6-9.41-3.35-9.38c-1.74,0.03-3.08,4.29-2.98,9.5c0.1,5.22,1.6,9.42,3.34,9.38
				C89.1,106.58,90.44,102.32,90.34,97.11z"/>
			<path class="st46" d="M117.09,96.59c-0.1-5.21-1.6-9.42-3.34-9.38c-1.75,0.03-3.08,4.29-2.98,9.5c0.1,5.22,1.6,9.42,3.34,9.38
				C115.86,106.06,117.19,101.81,117.09,96.59z"/>
			
				<rect x="114" y="74.56" transform="matrix(0.3382 -0.9411 0.9411 0.3382 1.6777 162.3377)" class="st2" width="4.53" height="10.82"/>
			
				<rect x="78.6" y="78.93" transform="matrix(0.9642 -0.265 0.265 0.9642 -18.5141 25.17)" class="st2" width="10.82" height="4.53"/>
			<g>
				<path class="st47" d="M80.9,113.04l-1.15-10.5l20.65-1.13l-2.15,10.07L80.9,113.04z M81.06,103.66l0.89,8.1l15.34-1.37
					l1.64-7.71L81.06,103.66z"/>
				<path class="st47" d="M125.67,111.89l-17.19-2.01l-2.09-8.78l20.02,0.21L125.67,111.89z M109.44,108.8l15.14,1.77l0.57-8.09
					l-17.26-0.18L109.44,108.8z"/>
				<polygon class="st47" points="100.18,102.34 99.16,101.74 101.52,97.71 105.24,98.14 107.62,101.35 106.66,102.05 104.59,99.25 
					102.15,98.97 				"/>
				<polygon class="st47" points="63.46,109.15 62.53,108.43 65.62,104.37 80.33,102.51 80.48,103.69 66.26,105.48 				"/>
				<polygon class="st47" points="138.27,103.89 135.54,100.55 125.89,102.48 125.66,101.32 136,99.25 139.19,103.15 				"/>
			</g>
			<path class="st2" d="M101.98,61.86c7.38,1.87,14.09,0.53,14.99-3.01c0.9-3.54-4.35-7.93-11.73-9.81
				c-7.38-1.88-14.09-0.53-14.99,3.01C89.34,55.59,94.6,59.98,101.98,61.86z"/>
			<path class="st2" d="M110.32,53.5c1.64,1.01,2.64,2.28,2.7,3.71c0.15,3.65-5.88,6.87-13.49,7.19c-3.13,0.13-6.03-0.25-8.37-1
				c2.56,1.58,6.71,2.51,11.35,2.32c7.61-0.33,13.65-3.54,13.49-7.2C115.91,56.38,113.69,54.57,110.32,53.5z"/>
			<path class="st44" d="M78.89,124.48c0.54-1.06,0.66-2.1,0.25-2.3c-0.4-0.21-1.17,0.49-1.71,1.56c-0.54,1.07-0.65,2.1-0.25,2.3
				C77.58,126.25,78.34,125.55,78.89,124.48z"/>
			<path class="st44" d="M121.36,124.05c0.69,0.98,1.54,1.57,1.91,1.31c0.37-0.26,0.12-1.26-0.57-2.24
				c-0.68-0.98-1.54-1.57-1.91-1.31C120.42,122.06,120.68,123.06,121.36,124.05z"/>
			<path class="st3" d="M106.62,146.39c2.4-4.77-3.09-4.27-6.64-4.2c-3.55,0.07-8.78,0.56-6.21,4.45c0.78,1.18,2.93,2.5,6.47,2.43
				C103.8,149,105.99,147.65,106.62,146.39z"/>
			<path class="st40" d="M101.43,145.96c-0.01-0.74-0.52-1.33-1.14-1.32c-0.62,0.01-1.1,0.62-1.09,1.36
				c0.02,0.74,0.52,1.33,1.14,1.32C100.96,147.32,101.45,146.7,101.43,145.96z"/>
		</g>
		<defs>
			
				<filter id="Adobe_OpacityMaskFilter_00000098190780487732548610000002769496029400022158_" filterUnits="userSpaceOnUse" x="-47.24" y="42.99" width="315.2" height="302.58">
				<feFlood  style="flood-color:white;flood-opacity:1" result="back"/>
				<feBlend  in="SourceGraphic" in2="back" mode="normal"/>
			</filter>
		</defs>
		
			<mask maskUnits="userSpaceOnUse" x="-47.24" y="42.99" width="315.2" height="302.58" id="SVGID_00000075138450282886467570000003921311041941642114_">
			<g style="filter:url(#Adobe_OpacityMaskFilter_00000098190780487732548610000002769496029400022158_);">
				<defs>
					
						<filter id="Adobe_OpacityMaskFilter_00000144301676609046190450000009511588083936676004_" filterUnits="userSpaceOnUse" x="-47.24" y="42.99" width="315.2" height="302.58">
						<feFlood  style="flood-color:white;flood-opacity:1" result="back"/>
						<feBlend  in="SourceGraphic" in2="back" mode="normal"/>
					</filter>
				</defs>
				
					<mask maskUnits="userSpaceOnUse" x="-47.24" y="42.99" width="315.2" height="302.58" id="SVGID_00000075138450282886467570000003921311041941642114_">
					<g style="filter:url(#Adobe_OpacityMaskFilter_00000144301676609046190450000009511588083936676004_);">
					</g>
				</mask>
				
					<linearGradient id="SVGID_00000152248714889473648240000011231671640685584805_" gradientUnits="userSpaceOnUse" x1="106.4959" y1="84.9799" x2="111.1124" y2="221.933" gradientTransform="matrix(0.9998 -0.0193 0.0193 0.9998 -0.8789 3.8173)">
					<stop  offset="5.376340e-03" style="stop-color:#B3B3B3"/>
					<stop  offset="0.4154" style="stop-color:#D9D9D9"/>
					<stop  offset="0.7856" style="stop-color:#F5F5F5"/>
					<stop  offset="1" style="stop-color:#FFFFFF"/>
				</linearGradient>
				
					<path style="mask:url(#SVGID_00000075138450282886467570000003921311041941642114_);fill:url(#SVGID_00000152248714889473648240000011231671640685584805_);" d="
					M265.25,130.3c-0.01-0.09-0.01-0.17-0.02-0.25c-0.06-0.51-0.19-0.92-0.39-1.22c0,0,0,0,0,0l0,0c-0.16-0.23-0.34-0.41-0.56-0.53
					c2.31-5.87,3.77-11.41,3.69-15.53c-1.43-3.19-4.11-4.88-7.16-5.48c-6.81-2.23-16.42,1.8-17.62,6.74
					c-0.9,7.86-2.26,14.17-4.56,20.16c-0.59,0.22-1.23,0.48-1.95,0.78c-2.86,1.22-5.31,2.55-5.89,3.84
					c-1.42,1.78-2.74,4.83-3.89,8.34c-0.93,2.86-1.8,5.32-2.19,7.21c-0.84,1.54-1.66,3.17-2.46,4.88
					c-2.62,5.66-5.85,13.4-6.99,19.03l-3.29-2.94c-1.87-1.67-4.49-2.2-6.86-1.39c-2.37,0.82-4.12,2.85-4.56,5.31l-2.27,12.47
					c-0.14,0.78,0.27,1.55,1,1.86l2.4,1.04c-0.03,0.1-0.06,0.21-0.09,0.31c-16.05,58.33-25.02,79.1-56.34-34.67l-0.01-0.17l-0.03,0
					c-0.01-0.04-0.02-0.08-0.04-0.12l0,0.12l-24.97-1.2l-4.76-8.06l-8.6,0.97l-0.08-4.32c13.94-2.96,25.93-15.6,27.18-34.95
					c1.28-0.83,2.52-2.3,3.36-4.19c0.7-1.58,0.99-3.16,0.93-4.52l0.06,0.07l0.92-0.75l-2.39-2.93c2.05-5.03,3.33-12.05,3.35-19.85
					c0.03-15.29-4.83-27.69-10.84-27.7c-0.64,0-1.26,0.17-1.87,0.43c-4.73-7.26-10.72-11.33-15-9.54c-1.33,0.55-2.36,1.63-3.11,3.09
					c-2.07-0.88-4.31-1.65-6.7-2.26c-12.15-3.09-23.19-0.87-24.68,4.96c-0.22,0.85-0.19,1.72,0,2.61c-1.96,1.45-3.9,3.15-5.76,5.09
					c-8.66,9.06-12.15,19.78-7.8,23.93c0.34,0.33,0.74,0.59,1.15,0.82c-1.5,3.97-2.36,9.05-2.25,14.59
					c0.06,3.26,0.46,6.35,1.11,9.14c-0.7,0.46-1.16,1.26-1.38,2.28l-0.48,0.63l0.35,0.27c-0.1,1.37,0.16,2.98,0.83,4.6
					c0.84,2.01,2.13,3.55,3.46,4.38c2.02,17.5,12.84,27.13,25.64,29.75l0.12,5.94l-9.15,1.02l-6.47,6.73l1.16,3.49l-18.53,8.03
					C42.51,287.27,39.38,274.9,27.45,214.37l0.19-0.1c-0.17-0.87-0.35-1.76-0.52-2.65l2.93-0.46l-1.98-12.06
					c-0.41-2.49-2.04-4.61-4.34-5.64c-2.15-0.96-4.6-0.84-6.65,0.27c-0.52-3.02-1.48-7.19-1.58-12.41c-0.01-0.3-0.06-0.58-0.09-0.87
					c0.2-0.77-0.2-3.21,1.49-6.36c0.78-1.45,1.28-2.97,1.57-4.38c0.75-0.85,1.39-1.79,1.92-2.81c0,0,0,0,0,0
					c0.07-0.13,0.13-0.26,0.19-0.39c0.06-0.14,0.14-0.27,0.2-0.41l0,0v0l-0.77-1.5c0.28-0.73,0.4-1.76,0.27-3.19
					c-0.3-3.37-1.5-4.79-2.94-4.66c-0.48,0.04-0.83,0.25-1.07,0.61l-5.04-9.76c-0.58-0.14-1.12-0.26-1.64-0.37
					c-0.25-0.05-0.5-0.1-0.74-0.15c-0.07-0.01-0.16-0.03-0.24-0.05l-0.01,0c-0.79-0.15-1.54-0.26-2.22-0.33l-0.01-0.01h0l-1.25-1.72
					l-0.4-0.55c0.86-0.66,1.59-1.41,2.11-2.26L1.65,137c-3.98,0.45-6.21,1.07-7.76,4.25l0.5,5.54c-3.32-1.5-7.11-2.73-10.45-1.75
					c-2.38,0.7-4.23,2.46-5.5,5.24c-2.85,6.22-1.94,15.93-0.03,20.14c2.8,6.19,1.47,11.41-0.52,14c-1.37,1.78-3.2,2.62-5.06,2.32
					l-0.24-2.41l2.02-4.58l-4.45-11.53l-7.1,3.28l-3.4-2.8l-6.9,9.58l12.99,9.98l5.54-1.19c0.47,0.2,0.94,0.36,1.43,0.44
					c0.33,0.05,0.66,0.08,0.98,0.07c1.8-0.03,3.52-0.98,4.83-2.69c2.12-2.76,3.56-8.3,0.61-14.81c-1.85-4.08-2.73-13.47,0.03-19.49
					c1.17-2.56,2.85-4.17,5.01-4.81c3.23-0.95,7.02,0.37,10.31,1.9l0.01,0.09c0.06,0,0.13,0,0.19,0c0.9,0.42,1.76,0.85,2.56,1.26
					l0.01,0l0.11,0.8c-0.02,0.02-0.04,0.04-0.05,0.07c-0.07,0.03-0.14,0.06-0.21,0.09c-2.33,1.12-4.15,2.54-5.01,3.75
					c-0.76,0.82-1.33,2.53-1.51,5.6c-0.1,1.6-0.06,3.11,0.08,4.41c0.01,0.07,0.02,0.13,0.02,0.2c0.08,0.66,0.19,1.25,0.32,1.79
					c0.01,0.06,0.03,0.11,0.04,0.16c0.01,0.02,0.01,0.04,0.02,0.05c-0.04,0.12-0.08,0.23-0.11,0.34c-0.08,0.24-0.15,0.48-0.22,0.71
					c-0.04,0.17-0.09,0.33-0.13,0.5c-0.05,0.2-0.1,0.4-0.13,0.59c-0.05,0.27-0.09,0.52-0.11,0.76c-1.16,3.88-0.4,9.08,3.82,11.89
					c8.21,5.45,15.46,9.18,19.09,15.36l-5.93,3.78c-2.78,1.77-4.09,5.14-3.22,8.33l1.55,5.72c0.15,0.55,0.69,0.9,1.26,0.82
					l3.53-0.55c4.18,33.1,15.21,59.04,25.91,65.45c9.86,6.4,19.41-3.81,23.03-40.67L58.5,345.57l100.62-1.94l-8.4-110.93
					c0.16,0.63,0.32,1.23,0.48,1.84c0.13,0.5,0.26,1.01,0.39,1.49c0.2,0.71,0.4,1.4,0.61,2.09c0.13,0.43,0.25,0.88,0.38,1.3
					c0.24,0.76,0.49,1.49,0.73,2.22c0.11,0.31,0.21,0.64,0.32,0.95c0.36,1.02,0.72,2.01,1.1,2.97c0.07,0.19,0.15,0.36,0.23,0.55
					c0.3,0.76,0.6,1.5,0.92,2.21c0.14,0.33,0.29,0.63,0.44,0.95c0.25,0.54,0.5,1.09,0.75,1.61c0.17,0.34,0.34,0.66,0.51,1
					c0.24,0.46,0.48,0.93,0.72,1.37c0.18,0.33,0.38,0.65,0.56,0.97c0.24,0.41,0.47,0.82,0.71,1.21c0.2,0.31,0.4,0.61,0.59,0.91
					c0.24,0.36,0.48,0.73,0.72,1.07c0.2,0.29,0.41,0.57,0.62,0.84c0.24,0.33,0.49,0.65,0.73,0.96c0.21,0.26,0.42,0.51,0.64,0.76
					c0.25,0.29,0.49,0.58,0.75,0.85c0.22,0.24,0.43,0.46,0.65,0.69c0.25,0.26,0.5,0.51,0.76,0.75c0.22,0.21,0.44,0.41,0.67,0.61
					c0.26,0.22,0.52,0.44,0.77,0.65c0.23,0.18,0.45,0.36,0.68,0.53c0.26,0.19,0.52,0.37,0.79,0.55c0.23,0.16,0.46,0.31,0.7,0.45
					c0.26,0.16,0.53,0.31,0.8,0.46c0.23,0.13,0.46,0.26,0.7,0.37c0.27,0.13,0.54,0.25,0.82,0.37c0.24,0.1,0.47,0.21,0.71,0.3
					c0.28,0.11,0.56,0.19,0.83,0.28c0.24,0.07,0.47,0.16,0.71,0.22c0.28,0.08,0.57,0.14,0.86,0.2c0.23,0.05,0.46,0.11,0.69,0.14
					c0.3,0.05,0.6,0.08,0.9,0.11c0.22,0.02,0.44,0.06,0.67,0.07c0.33,0.02,0.67,0.02,1,0.02c0.19,0,0.39,0.02,0.58,0.01
					c0.52-0.02,1.05-0.06,1.57-0.12c0.14-0.02,0.27-0.05,0.4-0.07c0.4-0.06,0.79-0.12,1.19-0.21c0.21-0.05,0.43-0.11,0.64-0.17
					c0.32-0.08,0.64-0.16,0.96-0.26c0.23-0.07,0.47-0.16,0.7-0.24c0.3-0.1,0.6-0.2,0.89-0.32c0.24-0.1,0.48-0.21,0.73-0.31
					c0.29-0.13,0.58-0.25,0.87-0.39c0.25-0.12,0.49-0.25,0.74-0.38c0.28-0.15,0.57-0.3,0.85-0.46c0.25-0.14,0.5-0.3,0.75-0.45
					c0.28-0.17,0.56-0.34,0.84-0.53c0.25-0.16,0.5-0.33,0.74-0.51c0.28-0.19,0.55-0.39,0.83-0.59c0.25-0.18,0.5-0.38,0.75-0.57
					c0.27-0.22,0.55-0.44,0.82-0.66c0.25-0.21,0.49-0.42,0.73-0.63c0.27-0.24,0.55-0.48,0.82-0.73c0.25-0.23,0.49-0.45,0.73-0.68
					c0.27-0.26,0.54-0.53,0.81-0.8c0.24-0.24,0.48-0.48,0.72-0.73c0.27-0.28,0.54-0.57,0.8-0.86c0.24-0.26,0.47-0.52,0.71-0.78
					c0.26-0.3,0.53-0.62,0.79-0.93c0.23-0.27,0.46-0.54,0.69-0.82c0.27-0.33,0.53-0.67,0.8-1.01c0.22-0.28,0.44-0.57,0.67-0.86
					c0.27-0.36,0.53-0.73,0.8-1.1c0.21-0.29,0.42-0.58,0.63-0.88c0.27-0.39,0.55-0.8,0.82-1.21c0.2-0.29,0.39-0.58,0.59-0.88
					c0.29-0.46,0.58-0.93,0.88-1.39c0.16-0.27,0.33-0.52,0.49-0.79c0.45-0.74,0.89-1.5,1.33-2.27c0.05-0.1,0.11-0.2,0.16-0.29
					c0.38-0.68,0.77-1.38,1.14-2.09c0.15-0.29,0.3-0.6,0.46-0.9c0.27-0.52,0.54-1.04,0.8-1.57c0.17-0.34,0.34-0.7,0.5-1.05
					c0.24-0.5,0.48-0.99,0.71-1.5c0.17-0.38,0.34-0.76,0.52-1.15c0.22-0.5,0.44-0.99,0.66-1.5c0.17-0.4,0.34-0.8,0.5-1.21
					c0.21-0.5,0.42-1.01,0.62-1.52c0.16-0.42,0.33-0.84,0.49-1.27c0.2-0.51,0.39-1.02,0.59-1.54c0.16-0.43,0.32-0.87,0.47-1.31
					c0.19-0.52,0.37-1.04,0.55-1.57c0.15-0.45,0.3-0.9,0.45-1.35c0.18-0.53,0.35-1.07,0.52-1.61c0.15-0.46,0.29-0.92,0.43-1.38
					c0.17-0.55,0.33-1.1,0.49-1.65c0.13-0.47,0.27-0.94,0.4-1.41c0.16-0.56,0.31-1.13,0.45-1.69c0.13-0.48,0.26-0.96,0.38-1.44
					c0.14-0.57,0.28-1.15,0.42-1.73c0.11-0.48,0.23-0.97,0.34-1.46c0.14-0.59,0.26-1.18,0.39-1.78c0.11-0.49,0.21-0.98,0.31-1.47
					c0.13-0.61,0.24-1.22,0.36-1.83c0.09-0.49,0.19-0.98,0.28-1.48c0.12-0.63,0.22-1.27,0.33-1.91c0.05-0.27,0.1-0.55,0.14-0.82
					l2.56,1.1l5.17-8.48c1.33-2.18,0.91-5-1-6.71l-7.04-6.28c4.32-9.21,16.23-12.17,27.35-20.37c0.87-0.64,1.59-1.36,2.24-2.11
					c1.36-0.64,3-3.26,4.02-6.67c0.01-0.04,0.02-0.07,0.03-0.11c0.92-0.44,1.89-1.05,2.87-1.91c2.96-2.59,4.92-4.55,5.32-5.88
					c0.21-0.23,0.36-0.48,0.42-0.76c0.04-0.16,0.03-0.31,0.02-0.46c-0.01-0.05-0.02-0.1-0.03-0.15c-0.03-0.09-0.06-0.18-0.11-0.26
					c-0.03-0.05-0.05-0.1-0.09-0.15c-0.07-0.1-0.17-0.2-0.27-0.29c-0.37-0.32-0.97-0.59-1.75-0.84c1.26-0.81,2.15-1.63,2.54-2.35
					c0.84-1.03,1.59-3.02,2.44-5.64c0.14-0.44,0.25-0.84,0.35-1.23c0.03-0.13,0.06-0.25,0.09-0.37c0.06-0.27,0.11-0.52,0.15-0.77
					c0.02-0.13,0.04-0.25,0.05-0.37c0.03-0.25,0.05-0.49,0.05-0.72C265.26,130.58,265.25,130.44,265.25,130.3z M-2.61,164.19
					c-0.24-0.04-0.48-0.08-0.71-0.11c0.14-0.26,0.27-0.52,0.4-0.76L-2.61,164.19z M-4.97,157.52l0.33,0.94
					c-0.13,0.12-0.25,0.22-0.38,0.36C-4.99,158.36-4.98,157.92-4.97,157.52z M-3.69,147.71c0.23-0.03,0.47-0.06,0.72-0.1l0.07,0.5
					C-3.16,147.97-3.42,147.84-3.69,147.71z"/>
			</g>
		</mask>
		
			<linearGradient id="SVGID_00000153706662651698208760000008954967138058591160_" gradientUnits="userSpaceOnUse" x1="106.4959" y1="84.9799" x2="111.1124" y2="221.933" gradientTransform="matrix(0.9998 -0.0193 0.0193 0.9998 -0.8789 3.8173)">
			<stop  offset="5.376340e-03" style="stop-color:#FFD27A"/>
			<stop  offset="0.2468" style="stop-color:#D7926E"/>
			<stop  offset="0.5085" style="stop-color:#B05463"/>
			<stop  offset="0.7305" style="stop-color:#94265A"/>
			<stop  offset="0.9012" style="stop-color:#830A55"/>
			<stop  offset="1" style="stop-color:#7C0053"/>
		</linearGradient>
		<path style="opacity:0.6;fill:url(#SVGID_00000153706662651698208760000008954967138058591160_);" d="M265.25,130.3
			c-0.01-0.09-0.01-0.17-0.02-0.25c-0.06-0.51-0.19-0.92-0.39-1.22c0,0,0,0,0,0l0,0c-0.16-0.23-0.34-0.41-0.56-0.53
			c2.31-5.87,3.77-11.41,3.69-15.53c-1.43-3.19-4.11-4.88-7.16-5.48c-6.81-2.23-16.42,1.8-17.62,6.74
			c-0.9,7.86-2.26,14.17-4.56,20.16c-0.59,0.22-1.23,0.48-1.95,0.78c-2.86,1.22-5.31,2.55-5.89,3.84c-1.42,1.78-2.74,4.83-3.89,8.34
			c-0.93,2.86-1.8,5.32-2.19,7.21c-0.84,1.54-1.66,3.17-2.46,4.88c-2.62,5.66-5.85,13.4-6.99,19.03l-3.29-2.94
			c-1.87-1.67-4.49-2.2-6.86-1.39c-2.37,0.82-4.12,2.85-4.56,5.31l-2.27,12.47c-0.14,0.78,0.27,1.55,1,1.86l2.4,1.04
			c-0.03,0.1-0.06,0.21-0.09,0.31c-16.05,58.33-25.02,79.1-56.34-34.67l-0.01-0.17l-0.03,0c-0.01-0.04-0.02-0.08-0.04-0.12l0,0.12
			l-24.97-1.2l-4.76-8.06l-8.6,0.97l-0.08-4.32c13.94-2.96,25.93-15.6,27.18-34.95c1.28-0.83,2.52-2.3,3.36-4.19
			c0.7-1.58,0.99-3.16,0.93-4.52l0.06,0.07l0.92-0.75l-2.39-2.93c2.05-5.03,3.33-12.05,3.35-19.85c0.03-15.29-4.83-27.69-10.84-27.7
			c-0.64,0-1.26,0.17-1.87,0.43c-4.73-7.26-10.72-11.33-15-9.54c-1.33,0.55-2.36,1.63-3.11,3.09c-2.07-0.88-4.31-1.65-6.7-2.26
			c-12.15-3.09-23.19-0.87-24.68,4.96c-0.22,0.85-0.19,1.72,0,2.61c-1.96,1.45-3.9,3.15-5.76,5.09c-8.66,9.06-12.15,19.78-7.8,23.93
			c0.34,0.33,0.74,0.59,1.15,0.82c-1.5,3.97-2.36,9.05-2.25,14.59c0.06,3.26,0.46,6.35,1.11,9.14c-0.7,0.46-1.16,1.26-1.38,2.28
			l-0.48,0.63l0.35,0.27c-0.1,1.37,0.16,2.98,0.83,4.6c0.84,2.01,2.13,3.55,3.46,4.38c2.02,17.5,12.84,27.13,25.64,29.75l0.12,5.94
			l-9.15,1.02l-6.47,6.73l1.16,3.49l-18.53,8.03C42.51,287.27,39.38,274.9,27.45,214.37l0.19-0.1c-0.17-0.87-0.35-1.76-0.52-2.65
			l2.93-0.46l-1.98-12.06c-0.41-2.49-2.04-4.61-4.34-5.64c-2.15-0.96-4.6-0.84-6.65,0.27c-0.52-3.02-1.48-7.19-1.58-12.41
			c-0.01-0.3-0.06-0.58-0.09-0.87c0.2-0.77-0.2-3.21,1.49-6.36c0.78-1.45,1.28-2.97,1.57-4.38c0.75-0.85,1.39-1.79,1.92-2.81
			c0,0,0,0,0,0c0.07-0.13,0.13-0.26,0.19-0.39c0.06-0.14,0.14-0.27,0.2-0.41l0,0v0l-0.77-1.5c0.28-0.73,0.4-1.76,0.27-3.19
			c-0.3-3.37-1.5-4.79-2.94-4.66c-0.48,0.04-0.83,0.25-1.07,0.61l-5.04-9.76c-0.58-0.14-1.12-0.26-1.64-0.37
			c-0.25-0.05-0.5-0.1-0.74-0.15c-0.07-0.01-0.16-0.03-0.24-0.05l-0.01,0c-0.79-0.15-1.54-0.26-2.22-0.33l-0.01-0.01h0l-1.25-1.72
			l-0.4-0.55c0.86-0.66,1.59-1.41,2.11-2.26L1.65,137c-3.98,0.45-6.21,1.07-7.76,4.25l0.5,5.54c-3.32-1.5-7.11-2.73-10.45-1.75
			c-2.38,0.7-4.23,2.46-5.5,5.24c-2.85,6.22-1.94,15.93-0.03,20.14c2.8,6.19,1.47,11.41-0.52,14c-1.37,1.78-3.2,2.62-5.06,2.32
			l-0.24-2.41l2.02-4.58l-4.45-11.53l-7.1,3.28l-3.4-2.8l-6.9,9.58l12.99,9.98l5.54-1.19c0.47,0.2,0.94,0.36,1.43,0.44
			c0.33,0.05,0.66,0.08,0.98,0.07c1.8-0.03,3.52-0.98,4.83-2.69c2.12-2.76,3.56-8.3,0.61-14.81c-1.85-4.08-2.73-13.47,0.03-19.49
			c1.17-2.56,2.85-4.17,5.01-4.81c3.23-0.95,7.02,0.37,10.31,1.9l0.01,0.09c0.06,0,0.13,0,0.19,0c0.9,0.42,1.76,0.85,2.56,1.26
			l0.01,0l0.11,0.8c-0.02,0.02-0.04,0.04-0.05,0.07c-0.07,0.03-0.14,0.06-0.21,0.09c-2.33,1.12-4.15,2.54-5.01,3.75
			c-0.76,0.82-1.33,2.53-1.51,5.6c-0.1,1.6-0.06,3.11,0.08,4.41c0.01,0.07,0.02,0.13,0.02,0.2c0.08,0.66,0.19,1.25,0.32,1.79
			c0.01,0.06,0.03,0.11,0.04,0.16c0.01,0.02,0.01,0.04,0.02,0.05c-0.04,0.12-0.08,0.23-0.11,0.34c-0.08,0.24-0.15,0.48-0.22,0.71
			c-0.04,0.17-0.09,0.33-0.13,0.5c-0.05,0.2-0.1,0.4-0.13,0.59c-0.05,0.27-0.09,0.52-0.11,0.76c-1.16,3.88-0.4,9.08,3.82,11.89
			c8.21,5.45,15.46,9.18,19.09,15.36l-5.93,3.78c-2.78,1.77-4.09,5.14-3.22,8.33l1.55,5.72c0.15,0.55,0.69,0.9,1.26,0.82l3.53-0.55
			c4.18,33.1,15.21,59.04,25.91,65.45c9.86,6.4,19.41-3.81,23.03-40.67L58.5,345.57l100.62-1.94l-8.4-110.93
			c0.16,0.63,0.32,1.23,0.48,1.84c0.13,0.5,0.26,1.01,0.39,1.49c0.2,0.71,0.4,1.4,0.61,2.09c0.13,0.43,0.25,0.88,0.38,1.3
			c0.24,0.76,0.49,1.49,0.73,2.22c0.11,0.31,0.21,0.64,0.32,0.95c0.36,1.02,0.72,2.01,1.1,2.97c0.07,0.19,0.15,0.36,0.23,0.55
			c0.3,0.76,0.6,1.5,0.92,2.21c0.14,0.33,0.29,0.63,0.44,0.95c0.25,0.54,0.5,1.09,0.75,1.61c0.17,0.34,0.34,0.66,0.51,1
			c0.24,0.46,0.48,0.93,0.72,1.37c0.18,0.33,0.38,0.65,0.56,0.97c0.24,0.41,0.47,0.82,0.71,1.21c0.2,0.31,0.4,0.61,0.59,0.91
			c0.24,0.36,0.48,0.73,0.72,1.07c0.2,0.29,0.41,0.57,0.62,0.84c0.24,0.33,0.49,0.65,0.73,0.96c0.21,0.26,0.42,0.51,0.64,0.76
			c0.25,0.29,0.49,0.58,0.75,0.85c0.22,0.24,0.43,0.46,0.65,0.69c0.25,0.26,0.5,0.51,0.76,0.75c0.22,0.21,0.44,0.41,0.67,0.61
			c0.26,0.22,0.52,0.44,0.77,0.65c0.23,0.18,0.45,0.36,0.68,0.53c0.26,0.19,0.52,0.37,0.79,0.55c0.23,0.16,0.46,0.31,0.7,0.45
			c0.26,0.16,0.53,0.31,0.8,0.46c0.23,0.13,0.46,0.26,0.7,0.37c0.27,0.13,0.54,0.25,0.82,0.37c0.24,0.1,0.47,0.21,0.71,0.3
			c0.28,0.11,0.56,0.19,0.83,0.28c0.24,0.07,0.47,0.16,0.71,0.22c0.28,0.08,0.57,0.14,0.86,0.2c0.23,0.05,0.46,0.11,0.69,0.14
			c0.3,0.05,0.6,0.08,0.9,0.11c0.22,0.02,0.44,0.06,0.67,0.07c0.33,0.02,0.67,0.02,1,0.02c0.19,0,0.39,0.02,0.58,0.01
			c0.52-0.02,1.05-0.06,1.57-0.12c0.14-0.02,0.27-0.05,0.4-0.07c0.4-0.06,0.79-0.12,1.19-0.21c0.21-0.05,0.43-0.11,0.64-0.17
			c0.32-0.08,0.64-0.16,0.96-0.26c0.23-0.07,0.47-0.16,0.7-0.24c0.3-0.1,0.6-0.2,0.89-0.32c0.24-0.1,0.48-0.21,0.73-0.31
			c0.29-0.13,0.58-0.25,0.87-0.39c0.25-0.12,0.49-0.25,0.74-0.38c0.28-0.15,0.57-0.3,0.85-0.46c0.25-0.14,0.5-0.3,0.75-0.45
			c0.28-0.17,0.56-0.34,0.84-0.53c0.25-0.16,0.5-0.33,0.74-0.51c0.28-0.19,0.55-0.39,0.83-0.59c0.25-0.18,0.5-0.38,0.75-0.57
			c0.27-0.22,0.55-0.44,0.82-0.66c0.25-0.21,0.49-0.42,0.73-0.63c0.27-0.24,0.55-0.48,0.82-0.73c0.25-0.23,0.49-0.45,0.73-0.68
			c0.27-0.26,0.54-0.53,0.81-0.8c0.24-0.24,0.48-0.48,0.72-0.73c0.27-0.28,0.54-0.57,0.8-0.86c0.24-0.26,0.47-0.52,0.71-0.78
			c0.26-0.3,0.53-0.62,0.79-0.93c0.23-0.27,0.46-0.54,0.69-0.82c0.27-0.33,0.53-0.67,0.8-1.01c0.22-0.28,0.44-0.57,0.67-0.86
			c0.27-0.36,0.53-0.73,0.8-1.1c0.21-0.29,0.42-0.58,0.63-0.88c0.27-0.39,0.55-0.8,0.82-1.21c0.2-0.29,0.39-0.58,0.59-0.88
			c0.29-0.46,0.58-0.93,0.88-1.39c0.16-0.27,0.33-0.52,0.49-0.79c0.45-0.74,0.89-1.5,1.33-2.27c0.05-0.1,0.11-0.2,0.16-0.29
			c0.38-0.68,0.77-1.38,1.14-2.09c0.15-0.29,0.3-0.6,0.46-0.9c0.27-0.52,0.54-1.04,0.8-1.57c0.17-0.34,0.34-0.7,0.5-1.05
			c0.24-0.5,0.48-0.99,0.71-1.5c0.17-0.38,0.34-0.76,0.52-1.15c0.22-0.5,0.44-0.99,0.66-1.5c0.17-0.4,0.34-0.8,0.5-1.21
			c0.21-0.5,0.42-1.01,0.62-1.52c0.16-0.42,0.33-0.84,0.49-1.27c0.2-0.51,0.39-1.02,0.59-1.54c0.16-0.43,0.32-0.87,0.47-1.31
			c0.19-0.52,0.37-1.04,0.55-1.57c0.15-0.45,0.3-0.9,0.45-1.35c0.18-0.53,0.35-1.07,0.52-1.61c0.15-0.46,0.29-0.92,0.43-1.38
			c0.17-0.55,0.33-1.1,0.49-1.65c0.13-0.47,0.27-0.94,0.4-1.41c0.16-0.56,0.31-1.13,0.45-1.69c0.13-0.48,0.26-0.96,0.38-1.44
			c0.14-0.57,0.28-1.15,0.42-1.73c0.11-0.48,0.23-0.97,0.34-1.46c0.14-0.59,0.26-1.18,0.39-1.78c0.11-0.49,0.21-0.98,0.31-1.47
			c0.13-0.61,0.24-1.22,0.36-1.83c0.09-0.49,0.19-0.98,0.28-1.48c0.12-0.63,0.22-1.27,0.33-1.91c0.05-0.27,0.1-0.55,0.14-0.82
			l2.56,1.1l5.17-8.48c1.33-2.18,0.91-5-1-6.71l-7.04-6.28c4.32-9.21,16.23-12.17,27.35-20.37c0.87-0.64,1.59-1.36,2.24-2.11
			c1.36-0.64,3-3.26,4.02-6.67c0.01-0.04,0.02-0.07,0.03-0.11c0.92-0.44,1.89-1.05,2.87-1.91c2.96-2.59,4.92-4.55,5.32-5.88
			c0.21-0.23,0.36-0.48,0.42-0.76c0.04-0.16,0.03-0.31,0.02-0.46c-0.01-0.05-0.02-0.1-0.03-0.15c-0.03-0.09-0.06-0.18-0.11-0.26
			c-0.03-0.05-0.05-0.1-0.09-0.15c-0.07-0.1-0.17-0.2-0.27-0.29c-0.37-0.32-0.97-0.59-1.75-0.84c1.26-0.81,2.15-1.63,2.54-2.35
			c0.84-1.03,1.59-3.02,2.44-5.64c0.14-0.44,0.25-0.84,0.35-1.23c0.03-0.13,0.06-0.25,0.09-0.37c0.06-0.27,0.11-0.52,0.15-0.77
			c0.02-0.13,0.04-0.25,0.05-0.37c0.03-0.25,0.05-0.49,0.05-0.72C265.26,130.58,265.25,130.44,265.25,130.3z M-2.61,164.19
			c-0.24-0.04-0.48-0.08-0.71-0.11c0.14-0.26,0.27-0.52,0.4-0.76L-2.61,164.19z M-4.97,157.52l0.33,0.94
			c-0.13,0.12-0.25,0.22-0.38,0.36C-4.99,158.36-4.98,157.92-4.97,157.52z M-3.69,147.71c0.23-0.03,0.47-0.06,0.72-0.1l0.07,0.5
			C-3.16,147.97-3.42,147.84-3.69,147.71z"/>
	</g>
</g>
</svg>
